SplineFontDB: 3.0
FontName: Metamorphous
FullName: Metamorphous
FamilyName: Metamorphous
Weight: Book
Copyright: Copyright (c) 2011, Sorkin Type Co (www.sorkintype.com)\nwith Reserved Font Name "Metamorphous". 
Version: 1.001
ItalicAngle: 0
UnderlinePosition: -51
UnderlineWidth: 94
Ascent: 1638
Descent: 410
LayerCount: 2
Layer: 0 1 "Back"  1
Layer: 1 1 "Fore"  0
XUID: [1021 631 1661839179 12367373]
FSType: 0
OS2Version: 3
OS2_WeightWidthSlopeOnly: 0
OS2_UseTypoMetrics: 1
CreationTime: 1323154740
ModificationTime: 1323146901
PfmFamily: 17
TTFWeight: 400
TTFWidth: 5
LineGap: 0
VLineGap: 0
Panose: 2 0 6 6 8 0 0 2 0 4
OS2TypoAscent: 334
OS2TypoAOffset: 1
OS2TypoDescent: -178
OS2TypoDOffset: 1
OS2TypoLinegap: 0
OS2WinAscent: 0
OS2WinAOffset: 1
OS2WinDescent: 0
OS2WinDOffset: 1
HheadAscent: 0
HheadAOffset: 1
HheadDescent: 0
HheadDOffset: 1
OS2SubXSize: 1434
OS2SubYSize: 1331
OS2SubXOff: 0
OS2SubYOff: 287
OS2SupXSize: 1434
OS2SupYSize: 1331
OS2SupXOff: 0
OS2SupYOff: 977
OS2StrikeYSize: 102
OS2StrikeYPos: 512
OS2Vendor: 'STC '
OS2CodePages: 20000093.00000000
OS2UnicodeRanges: a00000af.4000204a.00000000.00000000
DEI: 91125
TtTable: prep
PUSHW_1
 0
CALL
SVTCA[y-axis]
PUSHW_3
 1
 3
 2
CALL
SVTCA[x-axis]
PUSHW_3
 4
 5
 2
CALL
SVTCA[x-axis]
PUSHW_8
 4
 58
 45
 38
 27
 17
 0
 8
CALL
PUSHW_8
 5
 72
 59
 38
 27
 17
 0
 8
CALL
PUSHW_8
 6
 56
 45
 38
 27
 17
 0
 8
CALL
PUSHW_8
 7
 50
 45
 38
 27
 17
 0
 8
CALL
PUSHW_8
 8
 32
 26
 20
 15
 9
 0
 8
CALL
SVTCA[y-axis]
PUSHW_8
 1
 162
 133
 94
 67
 37
 0
 8
CALL
PUSHW_8
 2
 131
 108
 94
 67
 37
 0
 8
CALL
PUSHW_8
 3
 100
 82
 64
 46
 37
 0
 8
CALL
SVTCA[y-axis]
PUSHW_3
 9
 4
 7
CALL
PUSHW_1
 0
DUP
RCVT
RDTG
ROUND[Black]
RTG
WCVTP
EndTTInstrs
TtTable: fpgm
PUSHW_1
 0
FDEF
MPPEM
PUSHW_1
 9
LT
IF
PUSHB_2
 1
 1
INSTCTRL
EIF
PUSHW_1
 511
SCANCTRL
PUSHW_1
 68
SCVTCI
PUSHW_2
 9
 3
SDS
SDB
ENDF
PUSHW_1
 1
FDEF
DUP
DUP
RCVT
ROUND[Black]
WCVTP
PUSHB_1
 1
ADD
ENDF
PUSHW_1
 2
FDEF
PUSHW_1
 1
LOOPCALL
POP
ENDF
PUSHW_1
 3
FDEF
DUP
GC[cur]
PUSHB_1
 3

StartChar: .notdef
Encoding: 65536 -1 0
Width: 1770
Flags: W
LayerCount: 2
Fore
SplineSet
177 1416 m 1,0,-1
 1593 1416 l 1,1,-1
 1593 0 l 1,2,-1
 177 0 l 1,3,-1
 177 1416 l 1,0,-1
670 149 m 1,4,-1
 725 204 l 1,5,6
 691 244 691 244 673.5 269.5 c 128,-1,7
 656 295 656 295 656 318 c 256,8,9
 656 341 656 341 673.5 365.5 c 128,-1,10
 691 390 691 390 729 427 c 2,11,-1
 882 579 l 1,12,-1
 1032 429 l 2,13,14
 1071 389 1071 389 1089 364.5 c 128,-1,15
 1107 340 1107 340 1107 318 c 0,16,17
 1107 298 1107 298 1094 277.5 c 128,-1,18
 1081 257 1081 257 1058 227 c 2,19,-1
 1039 202 l 1,20,-1
 1092 150 l 1,21,-1
 1440 497 l 1,22,-1
 1387 550 l 1,23,-1
 1358 530 l 2,24,25
 1326 508 1326 508 1308 495 c 128,-1,26
 1290 482 1290 482 1270 482 c 0,27,28
 1249 482 1249 482 1225 500 c 128,-1,29
 1201 518 1201 518 1161 558 c 2,30,-1
 1011 708 l 1,31,-1
 1160 858 l 2,32,33
 1199 898 1199 898 1224 915 c 128,-1,34
 1249 932 1249 932 1271 933 c 0,35,36
 1291 933 1291 933 1311 920 c 128,-1,37
 1331 907 1331 907 1362 884 c 2,38,-1
 1387 865 l 1,39,-1
 1439 918 l 1,40,-1
 1092 1266 l 1,41,-1
 1039 1213 l 1,42,-1
 1059 1184 l 2,43,44
 1081 1152 1081 1152 1093.5 1134 c 128,-1,45
 1106 1116 1106 1116 1106 1096 c 0,46,47
 1107 1075 1107 1075 1088.5 1051 c 128,-1,48
 1070 1027 1070 1027 1031 987 c 2,49,-1
 882 837 l 1,50,-1
 730 989 l 2,51,52
 692 1027 692 1027 674.5 1051 c 128,-1,53
 657 1075 657 1075 657 1097 c 0,54,55
 657 1120 657 1120 674.5 1145.5 c 128,-1,56
 692 1171 692 1171 726 1212 c 1,57,-1
 671 1266 l 1,58,-1
 323 919 l 1,59,-1
 378 864 l 1,60,61
 418 898 418 898 443.5 915.5 c 128,-1,62
 469 933 469 933 492 933 c 256,63,64
 515 933 515 933 539 915 c 128,-1,65
 563 897 563 897 601 860 c 2,66,-1
 753 708 l 1,67,-1
 600 556 l 2,68,69
 562 518 562 518 538 500.5 c 128,-1,70
 514 483 514 483 492 483 c 0,71,72
 469 483 469 483 443.5 500.5 c 128,-1,73
 418 518 418 518 377 552 c 1,74,-1
 323 497 l 1,75,-1
 670 149 l 1,4,-1
EndSplineSet
EndChar

StartChar: a
Encoding: 97 97 5
Width: 1360
Flags: W
LayerCount: 2
Fore
SplineSet
169 303 m 0,0,1
 169 344 169 344 186.5 391.5 c 128,-1,2
 204 439 204 439 242.5 486.5 c 128,-1,3
 281 534 281 534 341.5 578.5 c 128,-1,4
 402 623 402 623 487.5 658 c 128,-1,5
 573 693 573 693 685 715 c 128,-1,6
 797 737 797 737 939 740 c 1,7,-1
 939 915 l 2,8,9
 939 1015 939 1015 873 1069 c 128,-1,10
 807 1123 807 1123 662 1123 c 0,11,12
 611 1123 611 1123 568 1110.5 c 128,-1,13
 525 1098 525 1098 494.5 1075.5 c 128,-1,14
 464 1053 464 1053 446.5 1021.5 c 128,-1,15
 429 990 429 990 429 953 c 0,16,17
 429 921 429 921 442 896 c 128,-1,18
 455 871 455 871 467 853 c 1,19,-1
 399 812 l 1,20,21
 370 817 370 817 336.5 830 c 128,-1,22
 303 843 303 843 274.5 863.5 c 128,-1,23
 246 884 246 884 227.5 911 c 128,-1,24
 209 938 209 938 209 971 c 0,25,26
 209 1023 209 1023 244 1070 c 128,-1,27
 279 1117 279 1117 342.5 1152 c 128,-1,28
 406 1187 406 1187 494.5 1207.5 c 128,-1,29
 583 1228 583 1228 690 1228 c 0,30,31
 808 1228 808 1228 893.5 1204 c 128,-1,32
 979 1180 979 1180 1034 1136 c 128,-1,33
 1089 1092 1089 1092 1115 1030 c 128,-1,34
 1141 968 1141 968 1141 893 c 2,35,-1
 1141 266 l 2,36,37
 1141 207 1141 207 1146 173 c 128,-1,38
 1151 139 1151 139 1168 121 c 128,-1,39
 1185 103 1185 103 1216.5 96 c 128,-1,40
 1248 89 1248 89 1301 84 c 1,41,-1
 1301 0 l 1,42,-1
 1053 0 l 2,43,44
 1002 0 1002 0 948 -4 c 128,-1,45
 894 -8 894 -8 836.5 -13 c 128,-1,46
 779 -18 779 -18 718 -22 c 128,-1,47
 657 -26 657 -26 592 -26 c 0,48,49
 479 -26 479 -26 399 2 c 128,-1,50
 319 30 319 30 268 76 c 128,-1,51
 217 122 217 122 193 181.5 c 128,-1,52
 169 241 169 241 169 303 c 0,0,1
398 303 m 0,53,54
 398 249 398 249 417.5 208 c 128,-1,55
 437 167 437 167 473 139.5 c 128,-1,56
 509 112 509 112 559 97.5 c 128,-1,57
 609 83 609 83 671 83 c 0,58,59
 759 83 759 83 811.5 91.5 c 128,-1,60
 864 100 864 100 892.5 122 c 128,-1,61
 921 144 921 144 930 182.5 c 128,-1,62
 939 221 939 221 939 282 c 2,63,-1
 939 636 l 1,64,65
 836 630 836 630 738.5 611 c 128,-1,66
 641 592 641 592 565.5 554 c 128,-1,67
 490 516 490 516 444 454.5 c 128,-1,68
 398 393 398 393 398 303 c 0,53,54
EndSplineSet
EndChar

StartChar: b
Encoding: 98 98 6
Width: 1362
Flags: W
LayerCount: 2
Fore
SplineSet
101 83 m 1,0,1
 160 88 160 88 194.5 97 c 128,-1,2
 229 106 229 106 246.5 124 c 128,-1,3
 264 142 264 142 269 172 c 128,-1,4
 274 202 274 202 274 249 c 2,5,-1
 274 1475 l 2,6,7
 274 1526 274 1526 266 1554.5 c 128,-1,8
 258 1583 258 1583 238.5 1597.5 c 128,-1,9
 219 1612 219 1612 185.5 1617 c 128,-1,10
 152 1622 152 1622 101 1627 c 1,11,-1
 101 1710 l 1,12,-1
 650 1710 l 1,13,-1
 650 1627 l 1,14,15
 600 1622 600 1622 566.5 1617 c 128,-1,16
 533 1612 533 1612 513.5 1598 c 128,-1,17
 494 1584 494 1584 486 1555.5 c 128,-1,18
 478 1527 478 1527 478 1475 c 2,19,-1
 478 1105 l 1,20,21
 508 1137 508 1137 547 1163 c 128,-1,22
 586 1189 586 1189 631 1207 c 128,-1,23
 676 1225 676 1225 724.5 1235 c 128,-1,24
 773 1245 773 1245 821 1245 c 0,25,26
 902 1245 902 1245 971 1220.5 c 128,-1,27
 1040 1196 1040 1196 1096 1153 c 128,-1,28
 1152 1110 1152 1110 1195 1051.5 c 128,-1,29
 1238 993 1238 993 1266.5 923.5 c 128,-1,30
 1295 854 1295 854 1310 777 c 128,-1,31
 1325 700 1325 700 1325 621 c 0,32,33
 1325 540 1325 540 1309 460.5 c 128,-1,34
 1293 381 1293 381 1261 308.5 c 128,-1,35
 1229 236 1229 236 1181.5 174 c 128,-1,36
 1134 112 1134 112 1072 67 c 128,-1,37
 1010 22 1010 22 932.5 -4 c 128,-1,38
 855 -30 855 -30 764 -30 c 0,39,40
 716 -30 716 -30 662 -25.5 c 128,-1,41
 608 -21 608 -21 554 -15 c 128,-1,42
 500 -9 500 -9 450 -4.5 c 128,-1,43
 400 0 400 0 361 0 c 2,44,-1
 101 0 l 1,45,-1
 101 83 l 1,0,1
478 293 m 2,46,47
 478 252 478 252 489.5 214.5 c 128,-1,48
 501 177 501 177 532.5 148.5 c 128,-1,49
 564 120 564 120 620.5 103 c 128,-1,50
 677 86 677 86 768 86 c 0,51,52
 856 86 856 86 919 130 c 128,-1,53
 982 174 982 174 1022.5 247.5 c 128,-1,54
 1063 321 1063 321 1081.5 418 c 128,-1,55
 1100 515 1100 515 1100 621 c 0,56,57
 1100 711 1100 711 1086 801 c 128,-1,58
 1072 891 1072 891 1038.5 964 c 128,-1,59
 1005 1037 1005 1037 949.5 1082.5 c 128,-1,60
 894 1128 894 1128 812 1128 c 0,61,62
 746 1128 746 1128 686 1106 c 128,-1,63
 626 1084 626 1084 579.5 1046 c 128,-1,64
 533 1008 533 1008 505.5 957.5 c 128,-1,65
 478 907 478 907 478 849 c 2,66,-1
 478 293 l 2,46,47
EndSplineSet
EndChar

StartChar: c
Encoding: 99 99 7
Width: 1195
Flags: W
LayerCount: 2
Fore
SplineSet
85 608 m 0,0,1
 85 738 85 738 121.5 853.5 c 128,-1,2
 158 969 158 969 228.5 1056 c 128,-1,3
 299 1143 299 1143 403 1194 c 128,-1,4
 507 1245 507 1245 642 1245 c 0,5,6
 697 1245 697 1245 760 1234.5 c 128,-1,7
 823 1224 823 1224 874 1200 c 1,8,-1
 915 1185 l 1,9,10
 952 1195 952 1195 969 1215 c 128,-1,11
 986 1235 986 1235 992 1266 c 1,12,-1
 1071 1266 l 1,13,-1
 1071 838 l 1,14,-1
 988 838 l 1,15,16
 976 905 976 905 952 960.5 c 128,-1,17
 928 1016 928 1016 888.5 1055.5 c 128,-1,18
 849 1095 849 1095 792 1117 c 128,-1,19
 735 1139 735 1139 657 1139 c 0,20,21
 561 1139 561 1139 495.5 1094 c 128,-1,22
 430 1049 430 1049 389.5 974.5 c 128,-1,23
 349 900 349 900 331 804 c 128,-1,24
 313 708 313 708 313 606 c 0,25,26
 313 545 313 545 320.5 484.5 c 128,-1,27
 328 424 328 424 344.5 368 c 128,-1,28
 361 312 361 312 388.5 264 c 128,-1,29
 416 216 416 216 456 180.5 c 128,-1,30
 496 145 496 145 550 124.5 c 128,-1,31
 604 104 604 104 673 104 c 0,32,33
 784 104 784 104 873.5 139.5 c 128,-1,34
 963 175 963 175 1038 233 c 1,35,-1
 1095 178 l 1,36,37
 1058 133 1058 133 1007 96 c 128,-1,38
 956 59 956 59 896 32 c 128,-1,39
 836 5 836 5 770 -9.5 c 128,-1,40
 704 -24 704 -24 638 -24 c 0,41,42
 503 -24 503 -24 399.5 28.5 c 128,-1,43
 296 81 296 81 226.5 168.5 c 128,-1,44
 157 256 157 256 121 370.5 c 128,-1,45
 85 485 85 485 85 608 c 0,0,1
EndSplineSet
EndChar

StartChar: d
Encoding: 100 100 8
Width: 1363
Flags: W
LayerCount: 2
Fore
SplineSet
123 606 m 0,0,1
 123 684 123 684 138 761.5 c 128,-1,2
 153 839 153 839 183 909 c 128,-1,3
 213 979 213 979 258 1039 c 128,-1,4
 303 1099 303 1099 363 1143 c 128,-1,5
 423 1187 423 1187 498.5 1212 c 128,-1,6
 574 1237 574 1237 664 1237 c 0,7,8
 737 1237 737 1237 808.5 1215.5 c 128,-1,9
 880 1194 880 1194 934 1155 c 1,10,11
 859 1378 859 1378 704 1522 c 128,-1,12
 549 1666 549 1666 313 1718 c 1,13,-1
 334 1806 l 1,14,15
 495 1782 495 1782 624 1728 c 128,-1,16
 753 1674 753 1674 853 1595.5 c 128,-1,17
 953 1517 953 1517 1025 1417.5 c 128,-1,18
 1097 1318 1097 1318 1143 1203.5 c 128,-1,19
 1189 1089 1189 1089 1211 962 c 128,-1,20
 1233 835 1233 835 1233 703 c 0,21,22
 1233 535 1233 535 1193 400 c 128,-1,23
 1153 265 1153 265 1079.5 171 c 128,-1,24
 1006 77 1006 77 902 26.5 c 128,-1,25
 798 -24 798 -24 670 -24 c 0,26,27
 541 -24 541 -24 439.5 30.5 c 128,-1,28
 338 85 338 85 267.5 174 c 128,-1,29
 197 263 197 263 160 376 c 128,-1,30
 123 489 123 489 123 606 c 0,0,1
673 87 m 0,31,32
 777 87 777 87 842 132 c 128,-1,33
 907 177 907 177 943 256.5 c 128,-1,34
 979 336 979 336 992 444 c 128,-1,35
 1005 552 1005 552 1005 678 c 0,36,37
 1005 778 1005 778 987.5 861 c 128,-1,38
 970 944 970 944 932 1003.5 c 128,-1,39
 894 1063 894 1063 832.5 1096 c 128,-1,40
 771 1129 771 1129 683 1129 c 0,41,42
 618 1129 618 1129 568 1108.5 c 128,-1,43
 518 1088 518 1088 481 1052 c 128,-1,44
 444 1016 444 1016 419.5 966.5 c 128,-1,45
 395 917 395 917 380 858.5 c 128,-1,46
 365 800 365 800 358.5 735 c 128,-1,47
 352 670 352 670 352 603 c 0,48,49
 352 513 352 513 367.5 421.5 c 128,-1,50
 383 330 383 330 420 255.5 c 128,-1,51
 457 181 457 181 518.5 134 c 128,-1,52
 580 87 580 87 673 87 c 0,31,32
EndSplineSet
EndChar

StartChar: e
Encoding: 101 101 9
Width: 1195
Flags: W
LayerCount: 2
Fore
SplineSet
101 587 m 0,0,1
 101 727 101 727 143 844.5 c 128,-1,2
 185 962 185 962 260 1047.5 c 128,-1,3
 335 1133 335 1133 438.5 1180.5 c 128,-1,4
 542 1228 542 1228 665 1228 c 0,5,6
 762 1228 762 1228 836 1207 c 128,-1,7
 910 1186 910 1186 960 1148.5 c 128,-1,8
 1010 1111 1010 1111 1035.5 1058 c 128,-1,9
 1061 1005 1061 1005 1061 942 c 0,10,11
 1061 892 1061 892 1044.5 841.5 c 128,-1,12
 1028 791 1028 791 991.5 744.5 c 128,-1,13
 955 698 955 698 897 657 c 128,-1,14
 839 616 839 616 756.5 586 c 128,-1,15
 674 556 674 556 565.5 538 c 128,-1,16
 457 520 457 520 319 519 c 1,17,18
 326 438 326 438 347.5 363.5 c 128,-1,19
 369 289 369 289 412 233 c 128,-1,20
 455 177 455 177 522.5 143.5 c 128,-1,21
 590 110 590 110 689 110 c 0,22,23
 783 110 783 110 865 130.5 c 128,-1,24
 947 151 947 151 1011 206 c 1,25,-1
 1068 149 l 1,26,27
 999 64 999 64 899 22 c 128,-1,28
 799 -20 799 -20 657 -20 c 0,29,30
 523 -20 523 -20 419 25 c 128,-1,31
 315 70 315 70 244.5 151 c 128,-1,32
 174 232 174 232 137.5 343.5 c 128,-1,33
 101 455 101 455 101 587 c 0,0,1
316 626 m 1,34,35
 412 628 412 628 506.5 644.5 c 128,-1,36
 601 661 601 661 676 698 c 128,-1,37
 751 735 751 735 797.5 795 c 128,-1,38
 844 855 844 855 844 944 c 0,39,40
 844 972 844 972 835.5 1003.5 c 128,-1,41
 827 1035 827 1035 805 1061 c 128,-1,42
 783 1087 783 1087 744 1104 c 128,-1,43
 705 1121 705 1121 644 1121 c 0,44,45
 589 1121 589 1121 544 1100.5 c 128,-1,46
 499 1080 499 1080 463 1044.5 c 128,-1,47
 427 1009 427 1009 400 961.5 c 128,-1,48
 373 914 373 914 354.5 859 c 128,-1,49
 336 804 336 804 326.5 744.5 c 128,-1,50
 317 685 317 685 316 626 c 1,34,35
EndSplineSet
EndChar

StartChar: f
Encoding: 102 102 10
Width: 854
Flags: W
LayerCount: 2
Fore
SplineSet
98 85 m 1,0,1
 155 89 155 89 189.5 96.5 c 128,-1,2
 224 104 224 104 242.5 119.5 c 128,-1,3
 261 135 261 135 267 162 c 128,-1,4
 273 189 273 189 273 231 c 2,5,-1
 273 1086 l 1,6,-1
 106 1086 l 1,7,-1
 106 1179 l 1,8,9
 159 1186 159 1186 192 1195 c 128,-1,10
 225 1204 225 1204 243.5 1217 c 128,-1,11
 262 1230 262 1230 268.5 1248.5 c 128,-1,12
 275 1267 275 1267 275 1294 c 2,13,-1
 275 1350 l 2,14,15
 275 1484 275 1484 308 1573.5 c 128,-1,16
 341 1663 341 1663 404 1716.5 c 128,-1,17
 467 1770 467 1770 559 1792.5 c 128,-1,18
 651 1815 651 1815 768 1815 c 2,19,-1
 885 1815 l 1,20,-1
 894 1708 l 1,21,-1
 772 1692 l 2,22,23
 695 1682 695 1682 638.5 1662.5 c 128,-1,24
 582 1643 582 1643 545.5 1608.5 c 128,-1,25
 509 1574 509 1574 491.5 1522.5 c 128,-1,26
 474 1471 474 1471 474 1397 c 2,27,-1
 474 1208 l 1,28,-1
 813 1208 l 1,29,-1
 813 1086 l 1,30,-1
 476 1086 l 1,31,-1
 476 252 l 2,32,33
 476 199 476 199 484 169 c 128,-1,34
 492 139 492 139 518.5 122 c 128,-1,35
 545 105 545 105 594 98 c 128,-1,36
 643 91 643 91 724 85 c 1,37,-1
 724 0 l 1,38,-1
 98 0 l 1,39,-1
 98 85 l 1,0,1
EndSplineSet
EndChar

StartChar: g
Encoding: 103 103 11
Width: 1364
Flags: W
LayerCount: 2
Fore
SplineSet
361 -419 m 1,0,1
 404 -436 404 -436 452 -444.5 c 128,-1,2
 500 -453 500 -453 551 -453 c 0,3,4
 661 -453 661 -453 734.5 -409.5 c 128,-1,5
 808 -366 808 -366 851.5 -295.5 c 128,-1,6
 895 -225 895 -225 913 -134.5 c 128,-1,7
 931 -44 931 -44 931 49 c 2,8,-1
 931 114 l 1,9,10
 870 48 870 48 792 12 c 128,-1,11
 714 -24 714 -24 618 -24 c 0,12,13
 484 -24 484 -24 386.5 27 c 128,-1,14
 289 78 289 78 225 163 c 128,-1,15
 161 248 161 248 130 358.5 c 128,-1,16
 99 469 99 469 99 588 c 0,17,18
 99 669 99 669 114 748 c 128,-1,19
 129 827 129 827 160 898 c 128,-1,20
 191 969 191 969 238 1029.5 c 128,-1,21
 285 1090 285 1090 349 1134 c 128,-1,22
 413 1178 413 1178 494 1203 c 128,-1,23
 575 1228 575 1228 674 1228 c 0,24,25
 722 1228 722 1228 772 1225 c 128,-1,26
 822 1222 822 1222 870.5 1218.5 c 128,-1,27
 919 1215 919 1215 964.5 1212 c 128,-1,28
 1010 1209 1010 1209 1048 1209 c 2,29,-1
 1307 1209 l 1,30,-1
 1307 1124 l 1,31,32
 1248 1120 1248 1120 1214 1111.5 c 128,-1,33
 1180 1103 1180 1103 1162.5 1085 c 128,-1,34
 1145 1067 1145 1067 1140 1036.5 c 128,-1,35
 1135 1006 1135 1006 1135 958 c 2,36,-1
 1135 51 l 2,37,38
 1135 -71 1135 -71 1099 -185.5 c 128,-1,39
 1063 -300 1063 -300 992.5 -389.5 c 128,-1,40
 922 -479 922 -479 817.5 -533 c 128,-1,41
 713 -587 713 -587 575 -587 c 0,42,43
 509 -587 509 -587 445.5 -571.5 c 128,-1,44
 382 -556 382 -556 322 -527 c 1,45,-1
 361 -419 l 1,0,1
626 87 m 0,46,47
 692 87 692 87 747.5 109.5 c 128,-1,48
 803 132 803 132 844 171 c 128,-1,49
 885 210 885 210 908 261.5 c 128,-1,50
 931 313 931 313 931 371 c 2,51,-1
 931 916 l 2,52,53
 931 957 931 957 924.5 994 c 128,-1,54
 918 1031 918 1031 891.5 1059 c 128,-1,55
 865 1087 865 1087 813 1103.5 c 128,-1,56
 761 1120 761 1120 670 1120 c 0,57,58
 569 1120 569 1120 502.5 1076.5 c 128,-1,59
 436 1033 436 1033 397 960 c 128,-1,60
 358 887 358 887 342 790.5 c 128,-1,61
 326 694 326 694 326 588 c 0,62,63
 326 528 326 528 330.5 468 c 128,-1,64
 335 408 335 408 347.5 352 c 128,-1,65
 360 296 360 296 381 248 c 128,-1,66
 402 200 402 200 435.5 164 c 128,-1,67
 469 128 469 128 516 107.5 c 128,-1,68
 563 87 563 87 626 87 c 0,46,47
EndSplineSet
EndChar

StartChar: h
Encoding: 104 104 12
Width: 1535
Flags: W
LayerCount: 2
Fore
SplineSet
151 82 m 1,0,-1
 153 83 l 1,1,2
 212 90 212 90 246 98 c 128,-1,3
 280 106 280 106 297 123.5 c 128,-1,4
 314 141 314 141 318.5 173 c 128,-1,5
 323 205 323 205 323 261 c 2,6,-1
 323 1473 l 2,7,8
 323 1530 323 1530 317.5 1562 c 128,-1,9
 312 1594 312 1594 294 1611 c 128,-1,10
 276 1628 276 1628 242 1634.5 c 128,-1,11
 208 1641 208 1641 151 1646 c 1,12,-1
 151 1730 l 1,13,-1
 700 1730 l 1,14,-1
 700 1646 l 1,15,16
 644 1640 644 1640 610 1634 c 128,-1,17
 576 1628 576 1628 557.5 1612 c 128,-1,18
 539 1596 539 1596 533 1563.5 c 128,-1,19
 527 1531 527 1531 527 1473 c 2,20,-1
 527 1000 l 1,21,22
 572 1088 572 1088 657 1164 c 128,-1,23
 742 1240 742 1240 860 1300 c 1,24,25
 942 1256 942 1256 1007.5 1206.5 c 128,-1,26
 1073 1157 1073 1157 1123.5 1096.5 c 128,-1,27
 1174 1036 1174 1036 1209.5 960.5 c 128,-1,28
 1245 885 1245 885 1268 788.5 c 128,-1,29
 1291 692 1291 692 1301.5 571.5 c 128,-1,30
 1312 451 1312 451 1312 300 c 0,31,32
 1312 244 1312 244 1314 208 c 128,-1,33
 1316 172 1316 172 1321.5 151 c 128,-1,34
 1327 130 1327 130 1338 119.5 c 128,-1,35
 1349 109 1349 109 1367 104 c 128,-1,36
 1385 99 1385 99 1411 95 c 128,-1,37
 1437 91 1437 91 1474 83 c 1,38,-1
 1474 0 l 1,39,-1
 931 0 l 1,40,-1
 931 83 l 1,41,42
 988 90 988 90 1022 96.5 c 128,-1,43
 1056 103 1056 103 1074 121 c 128,-1,44
 1092 139 1092 139 1097.5 176 c 128,-1,45
 1103 213 1103 213 1103 282 c 2,46,-1
 1103 399 l 2,47,48
 1103 501 1103 501 1100.5 584 c 128,-1,49
 1098 667 1098 667 1089.5 736 c 128,-1,50
 1081 805 1081 805 1064.5 861.5 c 128,-1,51
 1048 918 1048 918 1020 968.5 c 128,-1,52
 992 1019 992 1019 950.5 1065.5 c 128,-1,53
 909 1112 909 1112 851 1159 c 1,54,55
 792 1123 792 1123 734 1078 c 128,-1,56
 676 1033 676 1033 630 971.5 c 128,-1,57
 584 910 584 910 555.5 826.5 c 128,-1,58
 527 743 527 743 527 631 c 2,59,-1
 527 292 l 2,60,61
 527 223 527 223 531 184.5 c 128,-1,62
 535 146 535 146 552.5 126 c 128,-1,63
 570 106 570 106 604.5 98.5 c 128,-1,64
 639 91 639 91 700 83 c 1,65,-1
 700 0 l 1,66,-1
 151 0 l 1,67,-1
 151 82 l 1,0,-1
EndSplineSet
EndChar

StartChar: i
Encoding: 105 105 13
Width: 680
Flags: W
LayerCount: 2
Fore
SplineSet
168 1607 m 1,0,-1
 350 1786 l 1,1,-1
 528 1607 l 1,2,-1
 350 1426 l 1,3,-1
 168 1607 l 1,0,-1
85 83 m 1,4,-1
 120 88 l 2,5,6
 163 94 163 94 190 100.5 c 128,-1,7
 217 107 217 107 232 124.5 c 128,-1,8
 247 142 247 142 252.5 174.5 c 128,-1,9
 258 207 258 207 258 266 c 2,10,-1
 258 944 l 2,11,12
 258 1002 258 1002 252.5 1035.5 c 128,-1,13
 247 1069 247 1069 228.5 1086.5 c 128,-1,14
 210 1104 210 1104 176 1110.5 c 128,-1,15
 142 1117 142 1117 85 1122 c 1,16,-1
 85 1208 l 1,17,-1
 632 1208 l 1,18,-1
 632 1122 l 1,19,20
 575 1116 575 1116 541 1110 c 128,-1,21
 507 1104 507 1104 489 1087 c 128,-1,22
 471 1070 471 1070 465.5 1037 c 128,-1,23
 460 1004 460 1004 460 944 c 2,24,-1
 460 266 l 2,25,26
 460 208 460 208 464 176 c 128,-1,27
 468 144 468 144 482 126.5 c 128,-1,28
 496 109 496 109 522.5 102.5 c 128,-1,29
 549 96 549 96 593 89 c 2,30,-1
 632 83 l 1,31,-1
 632 0 l 1,32,-1
 85 0 l 1,33,-1
 85 83 l 1,4,-1
EndSplineSet
EndChar

StartChar: j
Encoding: 106 106 14
Width: 680
Flags: W
LayerCount: 2
Fore
SplineSet
180 1607 m 1,0,-1
 362 1786 l 1,1,-1
 540 1607 l 1,2,-1
 362 1426 l 1,3,-1
 180 1607 l 1,0,-1
270 966 m 2,4,5
 270 1016 270 1016 263.5 1045 c 128,-1,6
 257 1074 257 1074 238 1089.5 c 128,-1,7
 219 1105 219 1105 185 1111 c 128,-1,8
 151 1117 151 1117 97 1122 c 1,9,-1
 97 1208 l 1,10,-1
 645 1208 l 1,11,-1
 645 1122 l 1,12,13
 588 1116 588 1116 554 1110 c 128,-1,14
 520 1104 520 1104 502 1087 c 128,-1,15
 484 1070 484 1070 478 1037 c 128,-1,16
 472 1004 472 1004 472 944 c 2,17,-1
 472 310 l 2,18,19
 472 175 472 175 464 74.5 c 128,-1,20
 456 -26 456 -26 436 -103 c 128,-1,21
 416 -180 416 -180 382 -239.5 c 128,-1,22
 348 -299 348 -299 295.5 -351 c 128,-1,23
 243 -403 243 -403 170 -454 c 128,-1,24
 97 -505 97 -505 0 -565 c 1,25,-1
 -54 -497 l 1,26,27
 10 -437 10 -437 59 -391 c 128,-1,28
 108 -345 108 -345 144 -301.5 c 128,-1,29
 180 -258 180 -258 204.5 -211.5 c 128,-1,30
 229 -165 229 -165 243.5 -104.5 c 128,-1,31
 258 -44 258 -44 264 37 c 128,-1,32
 270 118 270 118 270 231 c 2,33,-1
 270 966 l 2,4,5
EndSplineSet
EndChar

StartChar: k
Encoding: 107 107 15
Width: 1364
Flags: W
LayerCount: 2
Fore
SplineSet
80 83 m 1,0,-1
 114 88 l 2,1,2
 158 94 158 94 185 101 c 128,-1,3
 212 108 212 108 227 125 c 128,-1,4
 242 142 242 142 247 174.5 c 128,-1,5
 252 207 252 207 252 266 c 2,6,-1
 252 1448 l 2,7,8
 252 1506 252 1506 246.5 1539 c 128,-1,9
 241 1572 241 1572 223 1589.5 c 128,-1,10
 205 1607 205 1607 171 1613.5 c 128,-1,11
 137 1620 137 1620 80 1625 c 1,12,-1
 80 1710 l 1,13,-1
 628 1710 l 1,14,-1
 628 1625 l 1,15,16
 571 1619 571 1619 537 1613 c 128,-1,17
 503 1607 503 1607 485 1590.5 c 128,-1,18
 467 1574 467 1574 461 1541 c 128,-1,19
 455 1508 455 1508 455 1448 c 2,20,-1
 455 266 l 2,21,22
 455 207 455 207 459 175 c 128,-1,23
 463 143 463 143 477.5 126 c 128,-1,24
 492 109 492 109 518.5 102.5 c 128,-1,25
 545 96 545 96 590 89 c 2,26,-1
 628 83 l 1,27,-1
 628 0 l 1,28,-1
 80 0 l 1,29,-1
 80 83 l 1,0,-1
876 988 m 1,30,31
 902 1011 902 1011 923.5 1035.5 c 128,-1,32
 945 1060 945 1060 945 1074 c 0,33,34
 945 1090 945 1090 934.5 1100 c 128,-1,35
 924 1110 924 1110 907 1114.5 c 128,-1,36
 890 1119 890 1119 869.5 1120.5 c 128,-1,37
 849 1122 849 1122 829 1122 c 1,38,-1
 829 1209 l 1,39,-1
 1359 1209 l 1,40,-1
 1359 1128 l 1,41,42
 1283 1120 1283 1120 1211.5 1088.5 c 128,-1,43
 1140 1057 1140 1057 1083 999 c 2,44,-1
 777 689 l 1,45,-1
 1390 -165 l 1,46,-1
 1322 -222 l 1,47,-1
 525 650 l 1,48,-1
 876 988 l 1,30,31
EndSplineSet
EndChar

StartChar: l
Encoding: 108 108 16
Width: 686
Flags: W
LayerCount: 2
Fore
SplineSet
89 83 m 1,0,-1
 124 88 l 2,1,2
 167 94 167 94 194 100.5 c 128,-1,3
 221 107 221 107 236 124.5 c 128,-1,4
 251 142 251 142 256.5 174.5 c 128,-1,5
 262 207 262 207 262 265 c 2,6,-1
 262 1468 l 2,7,8
 262 1526 262 1526 256.5 1559 c 128,-1,9
 251 1592 251 1592 232.5 1609.5 c 128,-1,10
 214 1627 214 1627 180 1633.5 c 128,-1,11
 146 1640 146 1640 89 1645 c 1,12,-1
 89 1730 l 1,13,-1
 464 1730 l 1,14,-1
 464 265 l 2,15,16
 464 209 464 209 472 177 c 128,-1,17
 480 145 480 145 498 127.5 c 128,-1,18
 516 110 516 110 545.5 103 c 128,-1,19
 575 96 575 96 618 90 c 2,20,-1
 666 83 l 1,21,-1
 666 0 l 1,22,-1
 89 0 l 1,23,-1
 89 83 l 1,0,-1
EndSplineSet
EndChar

StartChar: m
Encoding: 109 109 17
Width: 2213
Flags: W
LayerCount: 2
Fore
SplineSet
147 83 m 1,0,-1
 175 87 l 2,1,2
 220 93 220 93 248 100 c 128,-1,3
 276 107 276 107 291.5 123.5 c 128,-1,4
 307 140 307 140 312 171.5 c 128,-1,5
 317 203 317 203 317 260 c 2,6,-1
 317 973 l 2,7,8
 317 1019 317 1019 311.5 1046.5 c 128,-1,9
 306 1074 306 1074 288.5 1089.5 c 128,-1,10
 271 1105 271 1105 237.5 1111.5 c 128,-1,11
 204 1118 204 1118 147 1122 c 1,12,-1
 147 1208 l 1,13,-1
 520 1208 l 1,14,-1
 520 1000 l 1,15,16
 541 1044 541 1044 568 1084.5 c 128,-1,17
 595 1125 595 1125 631.5 1162 c 128,-1,18
 668 1199 668 1199 716 1233.5 c 128,-1,19
 764 1268 764 1268 826 1300 c 1,20,21
 888 1265 888 1265 939.5 1227 c 128,-1,22
 991 1189 991 1189 1033.5 1145 c 128,-1,23
 1076 1101 1076 1101 1109.5 1049.5 c 128,-1,24
 1143 998 1143 998 1169 937 c 1,25,26
 1197 994 1197 994 1233 1043 c 128,-1,27
 1269 1092 1269 1092 1314 1136 c 128,-1,28
 1359 1180 1359 1180 1413.5 1220.5 c 128,-1,29
 1468 1261 1468 1261 1533 1302 c 1,30,31
 1625 1251 1625 1251 1696.5 1198.5 c 128,-1,32
 1768 1146 1768 1146 1821 1085 c 128,-1,33
 1874 1024 1874 1024 1910.5 950 c 128,-1,34
 1947 876 1947 876 1969.5 782 c 128,-1,35
 1992 688 1992 688 2002 569.5 c 128,-1,36
 2012 451 2012 451 2012 301 c 0,37,38
 2012 230 2012 230 2017.5 190 c 128,-1,39
 2023 150 2023 150 2037.5 129 c 128,-1,40
 2052 108 2052 108 2077 100.5 c 128,-1,41
 2102 93 2102 93 2142 88 c 2,42,-1
 2180 83 l 1,43,-1
 2180 0 l 1,44,-1
 1633 0 l 1,45,-1
 1633 83 l 1,46,47
 1690 90 1690 90 1724 96.5 c 128,-1,48
 1758 103 1758 103 1776 121 c 128,-1,49
 1794 139 1794 139 1800 176 c 128,-1,50
 1806 213 1806 213 1806 282 c 2,51,-1
 1807 433 l 1,52,-1
 1807 467 l 2,53,54
 1807 597 1807 597 1796 693 c 128,-1,55
 1785 789 1785 789 1755 867.5 c 128,-1,56
 1725 946 1725 946 1671.5 1015 c 128,-1,57
 1618 1084 1618 1084 1533 1160 c 1,58,59
 1472 1109 1472 1109 1428 1058 c 128,-1,60
 1384 1007 1384 1007 1354 949 c 128,-1,61
 1324 891 1324 891 1306 823.5 c 128,-1,62
 1288 756 1288 756 1278 673 c 128,-1,63
 1268 590 1268 590 1265 487 c 128,-1,64
 1262 384 1262 384 1262 256 c 0,65,66
 1262 201 1262 201 1268 170.5 c 128,-1,67
 1274 140 1274 140 1290.5 123.5 c 128,-1,68
 1307 107 1307 107 1335.5 100 c 128,-1,69
 1364 93 1364 93 1408 87 c 2,70,-1
 1435 83 l 1,71,-1
 1435 0 l 1,72,-1
 887 0 l 1,73,-1
 887 83 l 1,74,75
 944 90 944 90 978 96 c 128,-1,76
 1012 102 1012 102 1030 119.5 c 128,-1,77
 1048 137 1048 137 1053.5 173 c 128,-1,78
 1059 209 1059 209 1059 276 c 2,79,-1
 1059 397 l 2,80,81
 1059 548 1059 548 1051.5 660 c 128,-1,82
 1044 772 1044 772 1019 859.5 c 128,-1,83
 994 947 994 947 945.5 1018.5 c 128,-1,84
 897 1090 897 1090 816 1159 c 1,85,86
 758 1122 758 1122 704.5 1074.5 c 128,-1,87
 651 1027 651 1027 610 963.5 c 128,-1,88
 569 900 569 900 544.5 818 c 128,-1,89
 520 736 520 736 520 631 c 2,90,-1
 520 292 l 2,91,92
 520 224 520 224 524.5 186 c 128,-1,93
 529 148 529 148 544 128 c 128,-1,94
 559 108 559 108 588 100.5 c 128,-1,95
 617 93 617 93 667 86 c 1,96,-1
 693 83 l 1,97,-1
 693 0 l 1,98,-1
 147 0 l 1,99,-1
 147 83 l 1,0,-1
EndSplineSet
EndChar

StartChar: n
Encoding: 110 110 18
Width: 1538
Flags: W
LayerCount: 2
Fore
SplineSet
152 82 m 1,0,-1
 154 83 l 1,1,2
 161 85 161 85 169 85.5 c 128,-1,3
 177 86 177 86 183 87 c 0,4,5
 228 93 228 93 255.5 99.5 c 128,-1,6
 283 106 283 106 298 123 c 128,-1,7
 313 140 313 140 318 172 c 128,-1,8
 323 204 323 204 323 260 c 2,9,-1
 323 973 l 2,10,11
 323 1019 323 1019 317.5 1046.5 c 128,-1,12
 312 1074 312 1074 294.5 1089.5 c 128,-1,13
 277 1105 277 1105 243 1111.5 c 128,-1,14
 209 1118 209 1118 152 1122 c 1,15,-1
 152 1208 l 1,16,-1
 526 1208 l 1,17,-1
 526 1000 l 1,18,19
 570 1087 570 1087 647 1161 c 128,-1,20
 724 1235 724 1235 852 1300 c 1,21,22
 935 1256 935 1256 1001 1207 c 128,-1,23
 1067 1158 1067 1158 1117.5 1097.5 c 128,-1,24
 1168 1037 1168 1037 1203.5 961.5 c 128,-1,25
 1239 886 1239 886 1262 789.5 c 128,-1,26
 1285 693 1285 693 1295.5 572.5 c 128,-1,27
 1306 452 1306 452 1306 301 c 0,28,29
 1306 218 1306 218 1311 177.5 c 128,-1,30
 1316 137 1316 137 1333 120 c 128,-1,31
 1350 103 1350 103 1383 98.5 c 128,-1,32
 1416 94 1416 94 1472 83 c 1,33,-1
 1472 0 l 1,34,-1
 925 0 l 1,35,-1
 925 83 l 1,36,37
 982 90 982 90 1016 96.5 c 128,-1,38
 1050 103 1050 103 1068 121 c 128,-1,39
 1086 139 1086 139 1091.5 176 c 128,-1,40
 1097 213 1097 213 1097 282 c 2,41,-1
 1097 398 l 2,42,43
 1097 500 1097 500 1094.5 583.5 c 128,-1,44
 1092 667 1092 667 1083.5 736 c 128,-1,45
 1075 805 1075 805 1058.5 862 c 128,-1,46
 1042 919 1042 919 1013.5 969.5 c 128,-1,47
 985 1020 985 1020 943 1066 c 128,-1,48
 901 1112 901 1112 842 1159 c 1,49,50
 782 1122 782 1122 725.5 1074.5 c 128,-1,51
 669 1027 669 1027 624.5 963.5 c 128,-1,52
 580 900 580 900 553 818 c 128,-1,53
 526 736 526 736 526 631 c 2,54,-1
 526 292 l 2,55,56
 526 224 526 224 530.5 186 c 128,-1,57
 535 148 535 148 550 128 c 128,-1,58
 565 108 565 108 594 100.5 c 128,-1,59
 623 93 623 93 673 86 c 1,60,-1
 699 83 l 1,61,-1
 699 0 l 1,62,-1
 152 0 l 1,63,-1
 152 82 l 1,0,-1
EndSplineSet
EndChar

StartChar: o
Encoding: 111 111 19
Width: 1364
Flags: W
LayerCount: 2
Fore
SplineSet
121 609 m 0,0,1
 121 688 121 688 136.5 765 c 128,-1,2
 152 842 152 842 183.5 911 c 128,-1,3
 215 980 215 980 262 1038 c 128,-1,4
 309 1096 309 1096 371 1138 c 128,-1,5
 433 1180 433 1180 510 1204 c 128,-1,6
 587 1228 587 1228 680 1228 c 256,7,8
 773 1228 773 1228 850.5 1204 c 128,-1,9
 928 1180 928 1180 990.5 1138 c 128,-1,10
 1053 1096 1053 1096 1100 1038 c 128,-1,11
 1147 980 1147 980 1178 911 c 128,-1,12
 1209 842 1209 842 1225 765 c 128,-1,13
 1241 688 1241 688 1241 609 c 0,14,15
 1241 529 1241 529 1225 451 c 128,-1,16
 1209 373 1209 373 1178 302.5 c 128,-1,17
 1147 232 1147 232 1100 172 c 128,-1,18
 1053 112 1053 112 990.5 68.5 c 128,-1,19
 928 25 928 25 850.5 0.5 c 128,-1,20
 773 -24 773 -24 680 -24 c 256,21,22
 587 -24 587 -24 509 1 c 128,-1,23
 431 26 431 26 369 70.5 c 128,-1,24
 307 115 307 115 260.5 175 c 128,-1,25
 214 235 214 235 183 305.5 c 128,-1,26
 152 376 152 376 136.5 453.5 c 128,-1,27
 121 531 121 531 121 609 c 0,0,1
682 87 m 0,28,29
 749 87 749 87 800 108.5 c 128,-1,30
 851 130 851 130 888 168 c 128,-1,31
 925 206 925 206 949.5 256.5 c 128,-1,32
 974 307 974 307 989 365 c 128,-1,33
 1004 423 1004 423 1010 485.5 c 128,-1,34
 1016 548 1016 548 1016 609 c 0,35,36
 1016 672 1016 672 1010 734.5 c 128,-1,37
 1004 797 1004 797 989 853.5 c 128,-1,38
 974 910 974 910 949.5 959 c 128,-1,39
 925 1008 925 1008 888 1043.5 c 128,-1,40
 851 1079 851 1079 800 1099.5 c 128,-1,41
 749 1120 749 1120 682 1120 c 256,42,43
 615 1120 615 1120 564 1099 c 128,-1,44
 513 1078 513 1078 476 1041 c 128,-1,45
 439 1004 439 1004 414.5 954.5 c 128,-1,46
 390 905 390 905 375.5 848.5 c 128,-1,47
 361 792 361 792 355 730.5 c 128,-1,48
 349 669 349 669 349 609 c 256,49,50
 349 549 349 549 355 487 c 128,-1,51
 361 425 361 425 375.5 367 c 128,-1,52
 390 309 390 309 414 258 c 128,-1,53
 438 207 438 207 475 169 c 128,-1,54
 512 131 512 131 563 109 c 128,-1,55
 614 87 614 87 682 87 c 0,28,29
EndSplineSet
EndChar

StartChar: p
Encoding: 112 112 20
Width: 1364
Flags: W
LayerCount: 2
Fore
SplineSet
239 959 m 2,0,1
 239 1007 239 1007 234 1037 c 128,-1,2
 229 1067 229 1067 211.5 1085 c 128,-1,3
 194 1103 194 1103 159.5 1111.5 c 128,-1,4
 125 1120 125 1120 66 1125 c 1,5,-1
 66 1208 l 1,6,-1
 326 1208 l 2,7,8
 364 1208 364 1208 409 1211 c 128,-1,9
 454 1214 454 1214 502.5 1218 c 128,-1,10
 551 1222 551 1222 601 1225 c 128,-1,11
 651 1228 651 1228 699 1228 c 0,12,13
 798 1228 798 1228 879 1203.5 c 128,-1,14
 960 1179 960 1179 1024 1135.5 c 128,-1,15
 1088 1092 1088 1092 1135 1032.5 c 128,-1,16
 1182 973 1182 973 1213 902.5 c 128,-1,17
 1244 832 1244 832 1259 753.5 c 128,-1,18
 1274 675 1274 675 1274 594 c 0,19,20
 1274 475 1274 475 1243 363.5 c 128,-1,21
 1212 252 1212 252 1148.5 166 c 128,-1,22
 1085 80 1085 80 987 28 c 128,-1,23
 889 -24 889 -24 756 -24 c 0,24,25
 662 -24 662 -24 582.5 11.5 c 128,-1,26
 503 47 503 47 443 110 c 1,27,-1
 443 -330 l 2,28,29
 443 -383 443 -383 452 -411.5 c 128,-1,30
 461 -440 461 -440 483.5 -454 c 128,-1,31
 506 -468 506 -468 543 -473 c 128,-1,32
 580 -478 580 -478 637 -483 c 1,33,-1
 637 -566 l 1,34,-1
 77 -566 l 1,35,-1
 77 -484 l 1,36,-1
 79 -483 l 1,37,38
 126 -479 126 -479 157 -474 c 128,-1,39
 188 -469 188 -469 206 -454 c 128,-1,40
 224 -439 224 -439 231.5 -410 c 128,-1,41
 239 -381 239 -381 239 -330 c 2,42,-1
 239 959 l 2,0,1
443 366 m 2,43,44
 443 308 443 308 466 257 c 128,-1,45
 489 206 489 206 530 168.5 c 128,-1,46
 571 131 571 131 626.5 109 c 128,-1,47
 682 87 682 87 748 87 c 0,48,49
 842 87 842 87 901 132.5 c 128,-1,50
 960 178 960 178 992.5 251 c 128,-1,51
 1025 324 1025 324 1036.5 414 c 128,-1,52
 1048 504 1048 504 1048 594 c 0,53,54
 1048 700 1048 700 1032 796 c 128,-1,55
 1016 892 1016 892 976.5 964.5 c 128,-1,56
 937 1037 937 1037 870.5 1079.5 c 128,-1,57
 804 1122 804 1122 703 1122 c 0,58,59
 612 1122 612 1122 560 1105 c 128,-1,60
 508 1088 508 1088 482 1059.5 c 128,-1,61
 456 1031 456 1031 449.5 993.5 c 128,-1,62
 443 956 443 956 443 916 c 2,63,-1
 443 366 l 2,43,44
EndSplineSet
EndChar

StartChar: q
Encoding: 113 113 21
Width: 1364
Flags: W
LayerCount: 2
Fore
SplineSet
128 615 m 256,0,1
 128 694 128 694 143.5 770 c 128,-1,2
 159 846 159 846 190 914.5 c 128,-1,3
 221 983 221 983 268 1040.5 c 128,-1,4
 315 1098 315 1098 377 1140 c 128,-1,5
 439 1182 439 1182 516.5 1205.5 c 128,-1,6
 594 1229 594 1229 687 1229 c 0,7,8
 811 1229 811 1229 905.5 1189 c 128,-1,9
 1000 1149 1000 1149 1063 1079.5 c 128,-1,10
 1126 1010 1126 1010 1158 916 c 128,-1,11
 1190 822 1190 822 1190 713 c 2,12,-1
 1190 -349 l 2,13,14
 1190 -386 1190 -386 1195.5 -409.5 c 128,-1,15
 1201 -433 1201 -433 1219 -447.5 c 128,-1,16
 1237 -462 1237 -462 1271 -469 c 128,-1,17
 1305 -476 1305 -476 1362 -481 c 1,18,-1
 1362 -566 l 1,19,-1
 815 -566 l 1,20,-1
 815 -482 l 1,21,-1
 817 -481 l 1,22,23
 871 -476 871 -476 904.5 -469.5 c 128,-1,24
 938 -463 938 -463 956.5 -448.5 c 128,-1,25
 975 -434 975 -434 981 -408 c 128,-1,26
 987 -382 987 -382 987 -338 c 2,27,-1
 986 116 l 1,28,29
 940 55 940 55 859 15 c 128,-1,30
 778 -25 778 -25 666 -25 c 0,31,32
 576 -25 576 -25 501.5 0.5 c 128,-1,33
 427 26 427 26 367.5 70.5 c 128,-1,34
 308 115 308 115 263 176 c 128,-1,35
 218 237 218 237 188 308 c 128,-1,36
 158 379 158 379 143 457.5 c 128,-1,37
 128 536 128 536 128 615 c 256,0,1
678 93 m 0,38,39
 727 93 727 93 781 109 c 128,-1,40
 835 125 835 125 880.5 159.5 c 128,-1,41
 926 194 926 194 956 248 c 128,-1,42
 986 302 986 302 986 378 c 2,43,-1
 986 677 l 2,44,45
 986 760 986 760 972.5 840 c 128,-1,46
 959 920 959 920 925.5 982.5 c 128,-1,47
 892 1045 892 1045 834.5 1083 c 128,-1,48
 777 1121 777 1121 689 1121 c 0,49,50
 622 1121 622 1121 571 1100 c 128,-1,51
 520 1079 520 1079 483 1043 c 128,-1,52
 446 1007 446 1007 421.5 958 c 128,-1,53
 397 909 397 909 382.5 852.5 c 128,-1,54
 368 796 368 796 362 734.5 c 128,-1,55
 356 673 356 673 356 612 c 256,56,57
 356 551 356 551 361.5 489 c 128,-1,58
 367 427 367 427 381 369 c 128,-1,59
 395 311 395 311 418.5 261 c 128,-1,60
 442 211 442 211 477.5 173.5 c 128,-1,61
 513 136 513 136 562.5 114.5 c 128,-1,62
 612 93 612 93 678 93 c 0,38,39
EndSplineSet
EndChar

StartChar: r
Encoding: 114 114 22
Width: 1195
Flags: W
LayerCount: 2
Fore
SplineSet
140 82 m 1,0,-1
 142 83 l 1,1,2
 201 89 201 89 236 97 c 128,-1,3
 271 105 271 105 289 121.5 c 128,-1,4
 307 138 307 138 312.5 166.5 c 128,-1,5
 318 195 318 195 318 243 c 2,6,-1
 318 936 l 2,7,8
 318 990 318 990 313 1023.5 c 128,-1,9
 308 1057 308 1057 291.5 1077 c 128,-1,10
 275 1097 275 1097 244 1107 c 128,-1,11
 213 1117 213 1117 162 1123 c 1,12,-1
 162 1208 l 1,13,-1
 369 1208 l 2,14,15
 446 1208 446 1208 500 1211 c 128,-1,16
 554 1214 554 1214 597.5 1218 c 128,-1,17
 641 1222 641 1222 680 1225 c 128,-1,18
 719 1228 719 1228 764 1228 c 0,19,20
 829 1228 829 1228 889 1219 c 128,-1,21
 949 1210 949 1210 995 1188 c 128,-1,22
 1041 1166 1041 1166 1068.5 1130 c 128,-1,23
 1096 1094 1096 1094 1096 1039 c 0,24,25
 1096 997 1096 997 1078 958.5 c 128,-1,26
 1060 920 1060 920 1030.5 888.5 c 128,-1,27
 1001 857 1001 857 964.5 834 c 128,-1,28
 928 811 928 811 892 801 c 1,29,-1
 837 845 l 1,30,31
 893 899 893 899 893 1009 c 0,32,33
 893 1038 893 1038 878.5 1059 c 128,-1,34
 864 1080 864 1080 841.5 1093.5 c 128,-1,35
 819 1107 819 1107 791 1113 c 128,-1,36
 763 1119 763 1119 736 1119 c 0,37,38
 622 1119 622 1119 571.5 1089 c 128,-1,39
 521 1059 521 1059 521 995 c 2,40,-1
 521 235 l 2,41,42
 521 192 521 192 529.5 164 c 128,-1,43
 538 136 538 136 567.5 119 c 128,-1,44
 597 102 597 102 654 94 c 128,-1,45
 711 86 711 86 808 83 c 1,46,-1
 808 0 l 1,47,-1
 140 0 l 1,48,-1
 140 82 l 1,0,-1
EndSplineSet
EndChar

StartChar: s
Encoding: 115 115 23
Width: 1190
Flags: W
LayerCount: 2
Fore
SplineSet
164 251 m 1,0,1
 165 289 165 289 182 321.5 c 128,-1,2
 199 354 199 354 226 379.5 c 128,-1,3
 253 405 253 405 286.5 422.5 c 128,-1,4
 320 440 320 440 355 448 c 1,5,-1
 399 397 l 1,6,7
 379 372 379 372 370 344 c 128,-1,8
 361 316 361 316 361 271 c 0,9,10
 361 239 361 239 379.5 206.5 c 128,-1,11
 398 174 398 174 433 147.5 c 128,-1,12
 468 121 468 121 517.5 104 c 128,-1,13
 567 87 567 87 630 87 c 0,14,15
 763 87 763 87 834 143 c 128,-1,16
 905 199 905 199 905 293 c 0,17,18
 905 337 905 337 881.5 371 c 128,-1,19
 858 405 858 405 817 433.5 c 128,-1,20
 776 462 776 462 721 487 c 128,-1,21
 666 512 666 512 603 538 c 1,22,23
 524 573 524 573 453.5 611 c 128,-1,24
 383 649 383 649 329.5 694 c 128,-1,25
 276 739 276 739 245 793 c 128,-1,26
 214 847 214 847 214 914 c 0,27,28
 214 988 214 988 248 1046.5 c 128,-1,29
 282 1105 282 1105 342 1145.5 c 128,-1,30
 402 1186 402 1186 485 1207 c 128,-1,31
 568 1228 568 1228 666 1228 c 0,32,33
 744 1228 744 1228 810 1211.5 c 128,-1,34
 876 1195 876 1195 923.5 1166 c 128,-1,35
 971 1137 971 1137 998 1097.5 c 128,-1,36
 1025 1058 1025 1058 1025 1012 c 0,37,38
 1025 981 1025 981 1009.5 954 c 128,-1,39
 994 927 994 927 970.5 906.5 c 128,-1,40
 947 886 947 886 919 872 c 128,-1,41
 891 858 891 858 867 853 c 1,42,-1
 810 894 l 1,43,44
 821 911 821 911 834.5 936 c 128,-1,45
 848 961 848 961 848 993 c 0,46,47
 848 1048 848 1048 791.5 1084.5 c 128,-1,48
 735 1121 735 1121 635 1121 c 0,49,50
 579 1121 579 1121 537 1107 c 128,-1,51
 495 1093 495 1093 466.5 1068.5 c 128,-1,52
 438 1044 438 1044 423.5 1010.5 c 128,-1,53
 409 977 409 977 409 937 c 0,54,55
 409 892 409 892 439 855.5 c 128,-1,56
 469 819 469 819 518 786.5 c 128,-1,57
 567 754 567 754 629.5 724.5 c 128,-1,58
 692 695 692 695 757.5 664.5 c 128,-1,59
 823 634 823 634 885.5 600.5 c 128,-1,60
 948 567 948 567 997 526.5 c 128,-1,61
 1046 486 1046 486 1076 436.5 c 128,-1,62
 1106 387 1106 387 1106 326 c 0,63,64
 1106 243 1106 243 1065 178 c 128,-1,65
 1024 113 1024 113 956.5 68 c 128,-1,66
 889 23 889 23 802 -0.5 c 128,-1,67
 715 -24 715 -24 624 -24 c 0,68,69
 538 -24 538 -24 455 -5 c 128,-1,70
 372 14 372 14 307.5 49.5 c 128,-1,71
 243 85 243 85 203.5 136 c 128,-1,72
 164 187 164 187 164 251 c 1,0,1
EndSplineSet
EndChar

StartChar: t
Encoding: 116 116 24
Width: 856
Flags: W
LayerCount: 2
Fore
SplineSet
159 83 m 1,0,1
 204 93 204 93 230.5 100.5 c 128,-1,2
 257 108 257 108 270.5 126 c 128,-1,3
 284 144 284 144 288 178.5 c 128,-1,4
 292 213 292 213 292 276 c 2,5,-1
 292 1086 l 1,6,-1
 121 1086 l 1,7,-1
 121 1178 l 1,8,9
 145 1181 145 1181 172 1185.5 c 128,-1,10
 199 1190 199 1190 222.5 1195.5 c 128,-1,11
 246 1201 246 1201 264 1207.5 c 128,-1,12
 282 1214 282 1214 289 1221 c 1,13,-1
 288 1221 l 1,14,15
 293 1228 293 1228 301.5 1255.5 c 128,-1,16
 310 1283 310 1283 319 1322.5 c 128,-1,17
 328 1362 328 1362 336 1410.5 c 128,-1,18
 344 1459 344 1459 348 1508 c 1,19,-1
 493 1568 l 1,20,-1
 493 1208 l 1,21,-1
 855 1208 l 1,22,-1
 855 1086 l 1,23,-1
 493 1086 l 1,24,-1
 493 279 l 2,25,26
 493 214 493 214 501 177.5 c 128,-1,27
 509 141 509 141 540 123 c 128,-1,28
 571 105 571 105 631 99.5 c 128,-1,29
 691 94 691 94 795 93 c 1,30,-1
 795 0 l 1,31,-1
 159 0 l 1,32,-1
 159 83 l 1,0,1
EndSplineSet
EndChar

StartChar: u
Encoding: 117 117 25
Width: 1361
Flags: W
LayerCount: 2
Fore
SplineSet
680 -52 m 1,0,1
 592 0 592 0 522.5 51 c 128,-1,2
 453 102 453 102 399.5 160.5 c 128,-1,3
 346 219 346 219 308 289.5 c 128,-1,4
 270 360 270 360 245.5 452 c 128,-1,5
 221 544 221 544 209.5 662 c 128,-1,6
 198 780 198 780 198 933 c 0,7,8
 198 985 198 985 196 1019.5 c 128,-1,9
 194 1054 194 1054 180.5 1075 c 128,-1,10
 167 1096 167 1096 138.5 1106.5 c 128,-1,11
 110 1117 110 1117 58 1122 c 1,12,-1
 58 1208 l 1,13,-1
 550 1208 l 1,14,-1
 550 1122 l 1,15,16
 498 1117 498 1117 468 1107 c 128,-1,17
 438 1097 438 1097 422.5 1078 c 128,-1,18
 407 1059 407 1059 403 1029 c 128,-1,19
 399 999 399 999 399 953 c 0,20,21
 399 828 399 828 402.5 731.5 c 128,-1,22
 406 635 406 635 416 559 c 128,-1,23
 426 483 426 483 445 422 c 128,-1,24
 464 361 464 361 495 307 c 128,-1,25
 526 253 526 253 571.5 201 c 128,-1,26
 617 149 617 149 680 90 c 1,27,28
 743 149 743 149 788.5 201.5 c 128,-1,29
 834 254 834 254 865.5 308 c 128,-1,30
 897 362 897 362 915.5 422.5 c 128,-1,31
 934 483 934 483 944.5 559 c 128,-1,32
 955 635 955 635 958 731.5 c 128,-1,33
 961 828 961 828 961 953 c 0,34,35
 961 999 961 999 957 1029 c 128,-1,36
 953 1059 953 1059 937.5 1078 c 128,-1,37
 922 1097 922 1097 892 1107 c 128,-1,38
 862 1117 862 1117 811 1122 c 1,39,-1
 811 1208 l 1,40,-1
 1301 1208 l 1,41,-1
 1301 1122 l 1,42,43
 1252 1115 1252 1115 1224 1105.5 c 128,-1,44
 1196 1096 1196 1096 1182.5 1076.5 c 128,-1,45
 1169 1057 1169 1057 1165.5 1023 c 128,-1,46
 1162 989 1162 989 1162 933 c 0,47,48
 1162 780 1162 780 1150.5 662 c 128,-1,49
 1139 544 1139 544 1114.5 452 c 128,-1,50
 1090 360 1090 360 1052 289.5 c 128,-1,51
 1014 219 1014 219 960.5 160.5 c 128,-1,52
 907 102 907 102 837 51 c 128,-1,53
 767 0 767 0 680 -52 c 1,0,1
EndSplineSet
EndChar

StartChar: v
Encoding: 118 118 26
Width: 1191
Flags: W
LayerCount: 2
Fore
SplineSet
173 954 m 2,0,1
 155 1001 155 1001 139 1031 c 128,-1,2
 123 1061 123 1061 103.5 1080 c 128,-1,3
 84 1099 84 1099 56.5 1108.5 c 128,-1,4
 29 1118 29 1118 -12 1124 c 1,5,-1
 -12 1208 l 1,6,-1
 477 1208 l 1,7,-1
 477 1122 l 1,8,9
 450 1121 450 1121 426 1119.5 c 128,-1,10
 402 1118 402 1118 385 1112.5 c 128,-1,11
 368 1107 368 1107 358 1096 c 128,-1,12
 348 1085 348 1085 348 1064 c 256,13,14
 348 1043 348 1043 360 1010 c 2,15,-1
 625 303 l 1,16,-1
 865 936 l 2,17,18
 877 968 877 968 885 994.5 c 128,-1,19
 893 1021 893 1021 893 1049 c 0,20,21
 893 1073 893 1073 883 1087 c 128,-1,22
 873 1101 873 1101 856 1109 c 128,-1,23
 839 1117 839 1117 815.5 1119.5 c 128,-1,24
 792 1122 792 1122 765 1122 c 1,25,-1
 765 1208 l 1,26,-1
 1204 1208 l 1,27,-1
 1204 1124 l 1,28,29
 1157 1124 1157 1124 1118.5 1090.5 c 128,-1,30
 1080 1057 1080 1057 1048 975 c 0,31,32
 946 721 946 721 843.5 466 c 128,-1,33
 741 211 741 211 641 -45 c 1,34,-1
 568 -45 l 1,35,-1
 173 954 l 2,0,1
EndSplineSet
EndChar

StartChar: w
Encoding: 119 119 27
Width: 2050
Flags: W
LayerCount: 2
Fore
SplineSet
666 60 m 1,0,1
 727 120 727 120 770 173.5 c 128,-1,2
 813 227 813 227 842 281.5 c 128,-1,3
 871 336 871 336 887.5 397 c 128,-1,4
 904 458 904 458 912.5 533 c 128,-1,5
 921 608 921 608 923 702 c 128,-1,6
 925 796 925 796 925 917 c 0,7,8
 925 982 925 982 921 1020.5 c 128,-1,9
 917 1059 917 1059 901.5 1080.5 c 128,-1,10
 886 1102 886 1102 854.5 1110.5 c 128,-1,11
 823 1119 823 1119 769 1124 c 1,12,-1
 769 1208 l 1,13,-1
 1282 1208 l 1,14,-1
 1282 1124 l 1,15,16
 1228 1117 1228 1117 1196.5 1109.5 c 128,-1,17
 1165 1102 1165 1102 1149 1082 c 128,-1,18
 1133 1062 1133 1062 1128.5 1024 c 128,-1,19
 1124 986 1124 986 1124 917 c 0,20,21
 1124 786 1124 786 1127 687.5 c 128,-1,22
 1130 589 1130 589 1140 512.5 c 128,-1,23
 1150 436 1150 436 1167.5 376.5 c 128,-1,24
 1185 317 1185 317 1214 265.5 c 128,-1,25
 1243 214 1243 214 1284.5 165 c 128,-1,26
 1326 116 1326 116 1384 60 c 1,27,28
 1444 120 1444 120 1486.5 174.5 c 128,-1,29
 1529 229 1529 229 1557.5 286 c 128,-1,30
 1586 343 1586 343 1603 406.5 c 128,-1,31
 1620 470 1620 470 1628.5 549 c 128,-1,32
 1637 628 1637 628 1639.5 726.5 c 128,-1,33
 1642 825 1642 825 1642 951 c 0,34,35
 1642 1000 1642 1000 1639 1031.5 c 128,-1,36
 1636 1063 1636 1063 1621 1082 c 128,-1,37
 1606 1101 1606 1101 1574 1110 c 128,-1,38
 1542 1119 1542 1119 1485 1124 c 1,39,-1
 1485 1208 l 1,40,-1
 1986 1208 l 1,41,-1
 1986 1124 l 1,42,43
 1938 1118 1938 1118 1909 1111.5 c 128,-1,44
 1880 1105 1880 1105 1865 1086.5 c 128,-1,45
 1850 1068 1850 1068 1845 1031 c 128,-1,46
 1840 994 1840 994 1840 928 c 0,47,48
 1840 776 1840 776 1830.5 656.5 c 128,-1,49
 1821 537 1821 537 1799 442.5 c 128,-1,50
 1777 348 1777 348 1742.5 273.5 c 128,-1,51
 1708 199 1708 199 1657 137.5 c 128,-1,52
 1606 76 1606 76 1538.5 23.5 c 128,-1,53
 1471 -29 1471 -29 1384 -81 c 1,54,55
 1319 -38 1319 -38 1264.5 6.5 c 128,-1,56
 1210 51 1210 51 1165.5 100 c 128,-1,57
 1121 149 1121 149 1086 203.5 c 128,-1,58
 1051 258 1051 258 1026 320 c 1,59,60
 999 258 999 258 964.5 203.5 c 128,-1,61
 930 149 930 149 886 100.5 c 128,-1,62
 842 52 842 52 787.5 7 c 128,-1,63
 733 -38 733 -38 666 -81 c 1,64,65
 579 -29 579 -29 511.5 23.5 c 128,-1,66
 444 76 444 76 393 137.5 c 128,-1,67
 342 199 342 199 307.5 273 c 128,-1,68
 273 347 273 347 251 442 c 128,-1,69
 229 537 229 537 219.5 656.5 c 128,-1,70
 210 776 210 776 210 928 c 0,71,72
 210 987 210 987 206.5 1022 c 128,-1,73
 203 1057 203 1057 189 1077.5 c 128,-1,74
 175 1098 175 1098 145.5 1107.5 c 128,-1,75
 116 1117 116 1117 64 1124 c 1,76,-1
 64 1208 l 1,77,-1
 565 1208 l 1,78,-1
 565 1124 l 1,79,80
 507 1119 507 1119 475 1108.5 c 128,-1,81
 443 1098 443 1098 428 1078.5 c 128,-1,82
 413 1059 413 1059 410 1028 c 128,-1,83
 407 997 407 997 407 951 c 0,84,85
 407 825 407 825 409.5 726.5 c 128,-1,86
 412 628 412 628 420.5 549 c 128,-1,87
 429 470 429 470 446 406.5 c 128,-1,88
 463 343 463 343 492 286 c 128,-1,89
 521 229 521 229 563.5 174.5 c 128,-1,90
 606 120 606 120 666 60 c 1,0,1
EndSplineSet
EndChar

StartChar: x
Encoding: 120 120 28
Width: 1364
Flags: W
LayerCount: 2
Fore
SplineSet
101 82 m 1,0,1
 148 86 148 86 174 92 c 128,-1,2
 200 98 200 98 214.5 110 c 128,-1,3
 229 122 229 122 236.5 142 c 128,-1,4
 244 162 244 162 254 195 c 2,5,-1
 260 215 l 1,6,7
 298 330 298 330 379.5 433 c 128,-1,8
 461 536 461 536 596 623 c 1,9,10
 520 667 520 667 465 710.5 c 128,-1,11
 410 754 410 754 371.5 799.5 c 128,-1,12
 333 845 333 845 309 893 c 128,-1,13
 285 941 285 941 271 993 c 0,14,15
 260 1034 260 1034 250.5 1058 c 128,-1,16
 241 1082 241 1082 224 1095.5 c 128,-1,17
 207 1109 207 1109 178.5 1115 c 128,-1,18
 150 1121 150 1121 101 1126 c 1,19,-1
 101 1208 l 1,20,-1
 627 1208 l 1,21,-1
 627 1126 l 1,22,23
 571 1122 571 1122 542 1116 c 128,-1,24
 513 1110 513 1110 499.5 1101 c 128,-1,25
 486 1092 486 1092 484.5 1079.5 c 128,-1,26
 483 1067 483 1067 483 1050 c 0,27,28
 483 1035 483 1035 494 995 c 128,-1,29
 505 955 505 955 532 904 c 128,-1,30
 559 853 559 853 604 797 c 128,-1,31
 649 741 649 741 717 693 c 1,32,33
 797 740 797 740 850 796 c 128,-1,34
 903 852 903 852 934 903.5 c 128,-1,35
 965 955 965 955 977.5 995 c 128,-1,36
 990 1035 990 1035 990 1050 c 0,37,38
 990 1067 990 1067 987 1079.5 c 128,-1,39
 984 1092 984 1092 971 1101 c 128,-1,40
 958 1110 958 1110 931.5 1116 c 128,-1,41
 905 1122 905 1122 857 1126 c 1,42,-1
 857 1208 l 1,43,-1
 1328 1208 l 1,44,-1
 1328 1126 l 1,45,46
 1281 1121 1281 1121 1253.5 1114 c 128,-1,47
 1226 1107 1226 1107 1209.5 1094.5 c 128,-1,48
 1193 1082 1193 1082 1184 1063 c 128,-1,49
 1175 1044 1175 1044 1166 1015 c 2,50,-1
 1159 993 l 1,51,52
 1142 943 1142 943 1117.5 896 c 128,-1,53
 1093 849 1093 849 1056.5 803 c 128,-1,54
 1020 757 1020 757 967.5 712.5 c 128,-1,55
 915 668 915 668 842 624 c 1,56,57
 992 533 992 533 1072 431.5 c 128,-1,58
 1152 330 1152 330 1181 215 c 0,59,60
 1191 174 1191 174 1199 150 c 128,-1,61
 1207 126 1207 126 1221.5 112.5 c 128,-1,62
 1236 99 1236 99 1263 93 c 128,-1,63
 1290 87 1290 87 1339 82 c 1,64,-1
 1339 0 l 1,65,-1
 814 0 l 1,66,-1
 814 82 l 1,67,68
 865 86 865 86 894 92 c 128,-1,69
 923 98 923 98 937.5 107 c 128,-1,70
 952 116 952 116 955 128.5 c 128,-1,71
 958 141 958 141 958 158 c 0,72,73
 958 174 958 174 948 219 c 128,-1,74
 938 264 938 264 911 321.5 c 128,-1,75
 884 379 884 379 837 442.5 c 128,-1,76
 790 506 790 506 717 559 c 1,77,78
 634 506 634 506 578.5 442.5 c 128,-1,79
 523 379 523 379 490 321.5 c 128,-1,80
 457 264 457 264 443 219 c 128,-1,81
 429 174 429 174 429 158 c 0,82,83
 429 141 429 141 432.5 128.5 c 128,-1,84
 436 116 436 116 453.5 107 c 128,-1,85
 471 98 471 98 506.5 92 c 128,-1,86
 542 86 542 86 605 82 c 1,87,-1
 605 0 l 1,88,-1
 101 0 l 1,89,-1
 101 82 l 1,0,1
EndSplineSet
EndChar

StartChar: y
Encoding: 121 121 29
Width: 1361
Flags: W
LayerCount: 2
Fore
SplineSet
640 -92 m 1,0,1
 557 -48 557 -48 491 1 c 128,-1,2
 425 50 425 50 374.5 110.5 c 128,-1,3
 324 171 324 171 288.5 246.5 c 128,-1,4
 253 322 253 322 230 418.5 c 128,-1,5
 207 515 207 515 196.5 635.5 c 128,-1,6
 186 756 186 756 186 907 c 0,7,8
 186 975 186 975 181 1015.5 c 128,-1,9
 176 1056 176 1056 161.5 1078.5 c 128,-1,10
 147 1101 147 1101 120 1109.5 c 128,-1,11
 93 1118 93 1118 50 1122 c 1,12,-1
 50 1208 l 1,13,-1
 554 1208 l 1,14,-1
 554 1122 l 1,15,-1
 529 1119 l 2,16,17
 484 1113 484 1113 457.5 1106.5 c 128,-1,18
 431 1100 431 1100 417 1081.5 c 128,-1,19
 403 1063 403 1063 399 1026.5 c 128,-1,20
 395 990 395 990 395 926 c 2,21,-1
 395 810 l 2,22,23
 395 708 395 708 397.5 625 c 128,-1,24
 400 542 400 542 408.5 473 c 128,-1,25
 417 404 417 404 433.5 346.5 c 128,-1,26
 450 289 450 289 478 238.5 c 128,-1,27
 506 188 506 188 548 141.5 c 128,-1,28
 590 95 590 95 649 49 c 1,29,30
 709 86 709 86 764.5 134 c 128,-1,31
 820 182 820 182 862.5 245.5 c 128,-1,32
 905 309 905 309 930.5 391 c 128,-1,33
 956 473 956 473 956 578 c 2,34,-1
 956 916 l 2,35,36
 956 984 956 984 952 1022.5 c 128,-1,37
 948 1061 948 1061 933.5 1080.5 c 128,-1,38
 919 1100 919 1100 892.5 1106.5 c 128,-1,39
 866 1113 866 1113 821 1119 c 2,40,-1
 797 1122 l 1,41,-1
 797 1208 l 1,42,-1
 1300 1208 l 1,43,-1
 1300 1123 l 1,44,-1
 1298 1122 l 1,45,46
 1255 1118 1255 1118 1228 1109.5 c 128,-1,47
 1201 1101 1201 1101 1185.5 1078.5 c 128,-1,48
 1170 1056 1170 1056 1164.5 1015.5 c 128,-1,49
 1159 975 1159 975 1159 908 c 2,50,-1
 1159 461 l 2,51,52
 1159 328 1159 328 1148 205 c 128,-1,53
 1137 82 1137 82 1109 -27 c 128,-1,54
 1081 -136 1081 -136 1032.5 -229 c 128,-1,55
 984 -322 984 -322 909 -394 c 128,-1,56
 834 -466 834 -466 730 -515.5 c 128,-1,57
 626 -565 626 -565 486 -587 c 1,58,-1
 465 -482 l 1,59,60
 587 -452 587 -452 674 -398.5 c 128,-1,61
 761 -345 761 -345 819.5 -264 c 128,-1,62
 878 -183 878 -183 910 -72 c 128,-1,63
 942 39 942 39 954 183 c 1,64,65
 900 99 900 99 822.5 29 c 128,-1,66
 745 -41 745 -41 640 -92 c 1,0,1
EndSplineSet
EndChar

StartChar: z
Encoding: 122 122 30
Width: 1193
Flags: W
LayerCount: 2
Fore
SplineSet
854 1086 m 1,0,-1
 491 1086 l 2,1,2
 425 1086 425 1086 383.5 1070 c 128,-1,3
 342 1054 342 1054 314 1024.5 c 128,-1,4
 286 995 286 995 266.5 953 c 128,-1,5
 247 911 247 911 225 859 c 1,6,-1
 126 859 l 1,7,-1
 230 1259 l 1,8,-1
 325 1259 l 1,9,10
 330 1234 330 1234 347.5 1221 c 128,-1,11
 365 1208 365 1208 407 1208 c 2,12,-1
 1112 1208 l 1,13,-1
 1134 1145 l 1,14,-1
 400 123 l 1,15,-1
 772 123 l 2,16,17
 850 123 850 123 898 136 c 128,-1,18
 946 149 946 149 976 176 c 128,-1,19
 1006 203 1006 203 1024.5 245 c 128,-1,20
 1043 287 1043 287 1061 344 c 1,21,-1
 1158 344 l 1,22,-1
 1104 -51 l 1,23,-1
 1006 -51 l 1,24,25
 1002 -25 1002 -25 981 -12.5 c 128,-1,26
 960 0 960 0 934 0 c 2,27,-1
 132 0 l 1,28,-1
 110 63 l 1,29,-1
 854 1086 l 1,0,-1
EndSplineSet
EndChar

StartChar: A
Encoding: 65 65 31
Width: 1534
Flags: W
LayerCount: 2
Fore
SplineSet
46 83 m 1,0,1
 103 93 103 93 133.5 100 c 128,-1,2
 164 107 164 107 177.5 119 c 128,-1,3
 191 131 191 131 192 152 c 128,-1,4
 193 173 193 173 193 210 c 2,5,-1
 192 313 l 1,6,-1
 192 367 l 2,7,8
 192 553 192 553 206 696.5 c 128,-1,9
 220 840 220 840 250 953 c 128,-1,10
 280 1066 280 1066 325.5 1154 c 128,-1,11
 371 1242 371 1242 435 1316 c 128,-1,12
 499 1390 499 1390 581 1455.5 c 128,-1,13
 663 1521 663 1521 765 1589 c 1,14,-1
 766 1589 l 1,15,16
 868 1521 868 1521 950 1455 c 128,-1,17
 1032 1389 1032 1389 1094.5 1314.5 c 128,-1,18
 1157 1240 1157 1240 1202 1151.5 c 128,-1,19
 1247 1063 1247 1063 1276 950 c 128,-1,20
 1305 837 1305 837 1318.5 694.5 c 128,-1,21
 1332 552 1332 552 1332 369 c 2,22,-1
 1332 313 l 1,23,-1
 1331 212 l 2,24,25
 1331 174 1331 174 1334 153 c 128,-1,26
 1337 132 1337 132 1352 120 c 128,-1,27
 1367 108 1367 108 1399 100.5 c 128,-1,28
 1431 93 1431 93 1488 83 c 1,29,-1
 1488 0 l 1,30,-1
 939 0 l 1,31,-1
 939 83 l 1,32,33
 1005 90 1005 90 1042 98.5 c 128,-1,34
 1079 107 1079 107 1097 126.5 c 128,-1,35
 1115 146 1115 146 1118.5 182.5 c 128,-1,36
 1122 219 1122 219 1122 284 c 2,37,-1
 1122 526 l 1,38,-1
 403 526 l 1,39,-1
 403 284 l 2,40,41
 403 219 403 219 406.5 182.5 c 128,-1,42
 410 146 410 146 428 126.5 c 128,-1,43
 446 107 446 107 483 99 c 128,-1,44
 520 91 520 91 587 83 c 1,45,-1
 587 0 l 1,46,-1
 46 0 l 1,47,-1
 46 83 l 1,0,1
1120 638 m 1,48,49
 1119 764 1119 764 1103 867 c 128,-1,50
 1087 970 1087 970 1047 1064 c 128,-1,51
 1007 1158 1007 1158 939 1250.5 c 128,-1,52
 871 1343 871 1343 765 1448 c 1,53,54
 660 1343 660 1343 592.5 1250.5 c 128,-1,55
 525 1158 525 1158 485.5 1064 c 128,-1,56
 446 970 446 970 428.5 867 c 128,-1,57
 411 764 411 764 405 638 c 1,58,-1
 1120 638 l 1,48,49
EndSplineSet
EndChar

StartChar: B
Encoding: 66 66 32
Width: 1530
Flags: W
LayerCount: 2
Fore
SplineSet
91 83 m 1,0,1
 150 88 150 88 184.5 97 c 128,-1,2
 219 106 219 106 236.5 124 c 128,-1,3
 254 142 254 142 259 172 c 128,-1,4
 264 202 264 202 264 249 c 2,5,-1
 264 1281 l 2,6,7
 264 1329 264 1329 259 1358 c 128,-1,8
 254 1387 254 1387 236.5 1404.5 c 128,-1,9
 219 1422 219 1422 184.5 1430 c 128,-1,10
 150 1438 150 1438 91 1443 c 1,11,-1
 91 1530 l 1,12,-1
 351 1530 l 2,13,14
 441 1530 441 1530 533.5 1540 c 128,-1,15
 626 1550 626 1550 728 1550 c 0,16,17
 879 1550 879 1550 987 1526 c 128,-1,18
 1095 1502 1095 1502 1164 1458 c 128,-1,19
 1233 1414 1233 1414 1265.5 1352 c 128,-1,20
 1298 1290 1298 1290 1298 1214 c 0,21,22
 1298 1151 1298 1151 1281 1092 c 128,-1,23
 1264 1033 1264 1033 1230 982.5 c 128,-1,24
 1196 932 1196 932 1144.5 892.5 c 128,-1,25
 1093 853 1093 853 1023 829 c 1,26,27
 1124 812 1124 812 1199.5 777.5 c 128,-1,28
 1275 743 1275 743 1325.5 695 c 128,-1,29
 1376 647 1376 647 1401 587 c 128,-1,30
 1426 527 1426 527 1426 460 c 0,31,32
 1426 362 1426 362 1388.5 273.5 c 128,-1,33
 1351 185 1351 185 1272 117.5 c 128,-1,34
 1193 50 1193 50 1071.5 10 c 128,-1,35
 950 -30 950 -30 782 -30 c 0,36,37
 729 -30 729 -30 675.5 -25.5 c 128,-1,38
 622 -21 622 -21 568 -15 c 128,-1,39
 514 -9 514 -9 459.5 -4.5 c 128,-1,40
 405 0 405 0 351 0 c 2,41,-1
 91 0 l 1,42,-1
 91 83 l 1,0,1
467 292 m 2,43,44
 467 251 467 251 475.5 214 c 128,-1,45
 484 177 484 177 516 148.5 c 128,-1,46
 548 120 548 120 612 103 c 128,-1,47
 676 86 676 86 786 86 c 0,48,49
 909 86 909 86 989.5 114 c 128,-1,50
 1070 142 1070 142 1116.5 188.5 c 128,-1,51
 1163 235 1163 235 1181.5 294.5 c 128,-1,52
 1200 354 1200 354 1200 418 c 0,53,54
 1200 476 1200 476 1185.5 533.5 c 128,-1,55
 1171 591 1171 591 1135 638.5 c 128,-1,56
 1099 686 1099 686 1039 718.5 c 128,-1,57
 979 751 979 751 888 759 c 1,58,-1
 626 773 l 1,59,-1
 626 867 l 1,60,-1
 833 880 l 1,61,62
 905 887 905 887 951.5 918 c 128,-1,63
 998 949 998 949 1025 993.5 c 128,-1,64
 1052 1038 1052 1038 1062 1091 c 128,-1,65
 1072 1144 1072 1144 1072 1195 c 0,66,67
 1072 1247 1072 1247 1058 1292.5 c 128,-1,68
 1044 1338 1044 1338 1006.5 1371.5 c 128,-1,69
 969 1405 969 1405 902.5 1424 c 128,-1,70
 836 1443 836 1443 732 1443 c 0,71,72
 640 1443 640 1443 587 1427 c 128,-1,73
 534 1411 534 1411 507.5 1383 c 128,-1,74
 481 1355 481 1355 474 1318 c 128,-1,75
 467 1281 467 1281 467 1238 c 2,76,-1
 467 292 l 2,43,44
EndSplineSet
EndChar

StartChar: C
Encoding: 67 67 33
Width: 1531
Flags: W
LayerCount: 2
Fore
SplineSet
120 755 m 0,0,1
 120 855 120 855 142.5 952.5 c 128,-1,2
 165 1050 165 1050 208.5 1138.5 c 128,-1,3
 252 1227 252 1227 317.5 1302.5 c 128,-1,4
 383 1378 383 1378 469.5 1433 c 128,-1,5
 556 1488 556 1488 662.5 1519.5 c 128,-1,6
 769 1551 769 1551 896 1551 c 0,7,8
 953 1551 953 1551 997 1545 c 128,-1,9
 1041 1539 1041 1539 1076.5 1530 c 128,-1,10
 1112 1521 1112 1521 1141 1511 c 128,-1,11
 1170 1501 1170 1501 1196.5 1492 c 128,-1,12
 1223 1483 1223 1483 1249.5 1477 c 128,-1,13
 1276 1471 1276 1471 1306 1471 c 0,14,15
 1335 1471 1335 1471 1363 1494.5 c 128,-1,16
 1391 1518 1391 1518 1417 1553 c 1,17,-1
 1512 1553 l 1,18,-1
 1380 1023 l 1,19,-1
 1284 1023 l 1,20,21
 1286 1047 1286 1047 1287.5 1071 c 128,-1,22
 1289 1095 1289 1095 1289 1120 c 0,23,24
 1289 1152 1289 1152 1285.5 1185.5 c 128,-1,25
 1282 1219 1282 1219 1273 1252 c 1,26,27
 1258 1298 1258 1298 1219 1333.5 c 128,-1,28
 1180 1369 1180 1369 1127.5 1393 c 128,-1,29
 1075 1417 1075 1417 1013.5 1429.5 c 128,-1,30
 952 1442 952 1442 893 1442 c 0,31,32
 793 1442 793 1442 714.5 1413.5 c 128,-1,33
 636 1385 636 1385 576 1336 c 128,-1,34
 516 1287 516 1287 474 1220 c 128,-1,35
 432 1153 432 1153 405.5 1076 c 128,-1,36
 379 999 379 999 367 915 c 128,-1,37
 355 831 355 831 355 748 c 0,38,39
 355 674 355 674 369 598.5 c 128,-1,40
 383 523 383 523 413 452.5 c 128,-1,41
 443 382 443 382 489 320.5 c 128,-1,42
 535 259 535 259 599.5 213.5 c 128,-1,43
 664 168 664 168 747 141.5 c 128,-1,44
 830 115 830 115 934 115 c 0,45,46
 1008 115 1008 115 1072 125.5 c 128,-1,47
 1136 136 1136 136 1192.5 157.5 c 128,-1,48
 1249 179 1249 179 1300 212.5 c 128,-1,49
 1351 246 1351 246 1398 292 c 1,50,-1
 1448 225 l 1,51,52
 1370 110 1370 110 1230.5 42.5 c 128,-1,53
 1091 -25 1091 -25 892 -25 c 0,54,55
 764 -25 764 -25 657.5 4.5 c 128,-1,56
 551 34 551 34 465 87 c 128,-1,57
 379 140 379 140 314.5 212.5 c 128,-1,58
 250 285 250 285 207 372 c 128,-1,59
 164 459 164 459 142 556 c 128,-1,60
 120 653 120 653 120 755 c 0,0,1
EndSplineSet
EndChar

StartChar: D
Encoding: 68 68 34
Width: 1537
Flags: W
LayerCount: 2
Fore
SplineSet
64 83 m 1,0,1
 121 91 121 91 155 98.5 c 128,-1,2
 189 106 189 106 207 123.5 c 128,-1,3
 225 141 225 141 231 173.5 c 128,-1,4
 237 206 237 206 237 265 c 2,5,-1
 237 1269 l 2,6,7
 237 1327 237 1327 231.5 1359.5 c 128,-1,8
 226 1392 226 1392 207.5 1409 c 128,-1,9
 189 1426 189 1426 155 1432 c 128,-1,10
 121 1438 121 1438 64 1443 c 1,11,-1
 64 1531 l 1,12,-1
 355 1531 l 2,13,14
 368 1531 368 1531 388.5 1530.5 c 128,-1,15
 409 1530 409 1530 435 1530 c 0,16,17
 469 1530 469 1530 513.5 1532 c 128,-1,18
 558 1534 558 1534 602 1537 c 128,-1,19
 646 1540 646 1540 684 1542 c 128,-1,20
 722 1544 722 1544 743 1544 c 0,21,22
 905 1544 905 1544 1043.5 1501.5 c 128,-1,23
 1182 1459 1182 1459 1283.5 1370.5 c 128,-1,24
 1385 1282 1385 1282 1442 1144.5 c 128,-1,25
 1499 1007 1499 1007 1499 817 c 0,26,27
 1499 630 1499 630 1448 475 c 128,-1,28
 1397 320 1397 320 1299 209 c 128,-1,29
 1201 98 1201 98 1057 36.5 c 128,-1,30
 913 -25 913 -25 726 -25 c 0,31,32
 698 -25 698 -25 646 -21 c 128,-1,33
 594 -17 594 -17 537.5 -12 c 128,-1,34
 481 -7 481 -7 430.5 -3 c 128,-1,35
 380 1 380 1 355 1 c 2,36,-1
 64 0 l 1,37,-1
 64 83 l 1,0,1
440 217 m 2,38,39
 440 190 440 190 458 170 c 128,-1,40
 476 150 476 150 504.5 135.5 c 128,-1,41
 533 121 533 121 568 112 c 128,-1,42
 603 103 603 103 637.5 97.5 c 128,-1,43
 672 92 672 92 702.5 90 c 128,-1,44
 733 88 733 88 751 88 c 0,45,46
 890 88 890 88 989.5 137.5 c 128,-1,47
 1089 187 1089 187 1152.5 283.5 c 128,-1,48
 1216 380 1216 380 1245.5 523 c 128,-1,49
 1275 666 1275 666 1275 853 c 0,50,51
 1275 1018 1275 1018 1234 1130.5 c 128,-1,52
 1193 1243 1193 1243 1119 1312.5 c 128,-1,53
 1045 1382 1045 1382 941.5 1412.5 c 128,-1,54
 838 1443 838 1443 714 1443 c 0,55,56
 676 1443 676 1443 628.5 1438 c 128,-1,57
 581 1433 581 1433 539 1420 c 128,-1,58
 497 1407 497 1407 468.5 1385 c 128,-1,59
 440 1363 440 1363 440 1329 c 2,60,-1
 440 217 l 2,38,39
EndSplineSet
EndChar

StartChar: E
Encoding: 69 69 35
Width: 1533
Flags: W
LayerCount: 2
Fore
SplineSet
107 725 m 0,0,1
 107 829 107 829 127.5 930.5 c 128,-1,2
 148 1032 148 1032 189 1124 c 128,-1,3
 230 1216 230 1216 290 1294.5 c 128,-1,4
 350 1373 350 1373 429.5 1430 c 128,-1,5
 509 1487 509 1487 607 1519.5 c 128,-1,6
 705 1552 705 1552 821 1552 c 0,7,8
 910 1552 910 1552 967.5 1539 c 128,-1,9
 1025 1526 1025 1526 1068 1510.5 c 128,-1,10
 1111 1495 1111 1495 1147.5 1482 c 128,-1,11
 1184 1469 1184 1469 1231 1469 c 0,12,13
 1260 1469 1260 1469 1288 1492.5 c 128,-1,14
 1316 1516 1316 1516 1341 1551 c 1,15,-1
 1437 1551 l 1,16,-1
 1304 1021 l 1,17,-1
 1209 1021 l 1,18,19
 1211 1052 1211 1052 1212.5 1077.5 c 128,-1,20
 1214 1103 1214 1103 1214 1126 c 0,21,22
 1214 1159 1214 1159 1211 1189.5 c 128,-1,23
 1208 1220 1208 1220 1198 1250 c 0,24,25
 1183 1296 1183 1296 1146 1332 c 128,-1,26
 1109 1368 1109 1368 1058 1392.5 c 128,-1,27
 1007 1417 1007 1417 947 1430 c 128,-1,28
 887 1443 887 1443 828 1443 c 0,29,30
 710 1443 710 1443 623 1394 c 128,-1,31
 536 1345 536 1345 477 1260 c 128,-1,32
 418 1175 418 1175 384.5 1061 c 128,-1,33
 351 947 351 947 341 817 c 1,34,-1
 986 817 l 1,35,-1
 959 704 l 1,36,-1
 338 704 l 1,37,38
 341 632 341 632 359.5 560 c 128,-1,39
 378 488 378 488 411 421 c 128,-1,40
 444 354 444 354 491.5 296.5 c 128,-1,41
 539 239 539 239 600.5 196 c 128,-1,42
 662 153 662 153 736.5 128.5 c 128,-1,43
 811 104 811 104 898 104 c 0,44,45
 961 104 961 104 1025.5 114 c 128,-1,46
 1090 124 1090 124 1151.5 146.5 c 128,-1,47
 1213 169 1213 169 1270 205 c 128,-1,48
 1327 241 1327 241 1375 292 c 1,49,-1
 1425 225 l 1,50,51
 1381 165 1381 165 1320 118 c 128,-1,52
 1259 71 1259 71 1185.5 39.5 c 128,-1,53
 1112 8 1112 8 1028.5 -8.5 c 128,-1,54
 945 -25 945 -25 856 -25 c 0,55,56
 683 -25 683 -25 544 35.5 c 128,-1,57
 405 96 405 96 308 199 c 128,-1,58
 211 302 211 302 159 438 c 128,-1,59
 107 574 107 574 107 725 c 0,0,1
EndSplineSet
EndChar

StartChar: F
Encoding: 70 70 36
Width: 1364
Flags: W
LayerCount: 2
Fore
SplineSet
86 83 m 1,0,1
 143 91 143 91 177 98.5 c 128,-1,2
 211 106 211 106 229 123.5 c 128,-1,3
 247 141 247 141 253 173.5 c 128,-1,4
 259 206 259 206 259 265 c 2,5,-1
 259 1267 l 2,6,7
 259 1325 259 1325 253.5 1358 c 128,-1,8
 248 1391 248 1391 229.5 1408 c 128,-1,9
 211 1425 211 1425 177 1431.5 c 128,-1,10
 143 1438 143 1438 86 1443 c 1,11,-1
 86 1530 l 1,12,-1
 1339 1530 l 1,13,-1
 1234 1100 l 1,14,-1
 1139 1100 l 1,15,16
 1149 1154 1149 1154 1154.5 1195.5 c 128,-1,17
 1160 1237 1160 1237 1160 1271 c 0,18,19
 1160 1317 1160 1317 1147.5 1345.5 c 128,-1,20
 1135 1374 1135 1374 1106.5 1390 c 128,-1,21
 1078 1406 1078 1406 1031 1412 c 128,-1,22
 984 1418 984 1418 915 1418 c 2,23,-1
 461 1418 l 1,24,-1
 461 842 l 1,25,-1
 1057 842 l 1,26,-1
 1030 728 l 1,27,-1
 461 728 l 1,28,-1
 461 265 l 2,29,30
 461 207 461 207 468.5 174.5 c 128,-1,31
 476 142 476 142 504.5 125 c 128,-1,32
 533 108 533 108 589 100 c 128,-1,33
 645 92 645 92 741 83 c 1,34,-1
 741 0 l 1,35,-1
 86 0 l 1,36,-1
 86 83 l 1,0,1
EndSplineSet
EndChar

StartChar: G
Encoding: 71 71 37
Width: 1700
Flags: W
LayerCount: 2
Fore
SplineSet
96 761 m 256,0,1
 96 860 96 860 117.5 957 c 128,-1,2
 139 1054 139 1054 183 1142 c 128,-1,3
 227 1230 227 1230 293 1304.5 c 128,-1,4
 359 1379 359 1379 447.5 1434 c 128,-1,5
 536 1489 536 1489 647.5 1520 c 128,-1,6
 759 1551 759 1551 893 1551 c 0,7,8
 980 1551 980 1551 1042 1538.5 c 128,-1,9
 1104 1526 1104 1526 1153 1511 c 128,-1,10
 1202 1496 1202 1496 1243.5 1483.5 c 128,-1,11
 1285 1471 1285 1471 1330 1471 c 0,12,13
 1359 1471 1359 1471 1387 1494.5 c 128,-1,14
 1415 1518 1415 1518 1441 1553 c 1,15,-1
 1536 1553 l 1,16,-1
 1403 1043 l 1,17,-1
 1308 1043 l 1,18,19
 1310 1075 1310 1075 1311.5 1100 c 128,-1,20
 1313 1125 1313 1125 1313 1145 c 0,21,22
 1313 1174 1313 1174 1309.5 1198.5 c 128,-1,23
 1306 1223 1306 1223 1297 1253 c 0,24,25
 1283 1299 1283 1299 1240.5 1334.5 c 128,-1,26
 1198 1370 1198 1370 1141 1394 c 128,-1,27
 1084 1418 1084 1418 1019 1430.5 c 128,-1,28
 954 1443 954 1443 895 1443 c 0,29,30
 782 1443 782 1443 697 1414.5 c 128,-1,31
 612 1386 612 1386 549.5 1337 c 128,-1,32
 487 1288 487 1288 446 1221.5 c 128,-1,33
 405 1155 405 1155 380 1079.5 c 128,-1,34
 355 1004 355 1004 345 922.5 c 128,-1,35
 335 841 335 841 335 761 c 0,36,37
 335 685 335 685 348 606 c 128,-1,38
 361 527 361 527 388.5 453 c 128,-1,39
 416 379 416 379 459 314 c 128,-1,40
 502 249 502 249 563 200 c 128,-1,41
 624 151 624 151 704 123 c 128,-1,42
 784 95 784 95 885 95 c 0,43,44
 1011 95 1011 95 1115 124 c 128,-1,45
 1219 153 1219 153 1282 210 c 1,46,-1
 1270 502 l 2,47,48
 1268 560 1268 560 1257.5 593.5 c 128,-1,49
 1247 627 1247 627 1220 644.5 c 128,-1,50
 1193 662 1193 662 1145.5 668.5 c 128,-1,51
 1098 675 1098 675 1023 680 c 1,52,-1
 1023 765 l 1,53,-1
 1591 765 l 1,54,-1
 1591 680 l 1,55,56
 1561 674 1561 674 1540.5 668 c 128,-1,57
 1520 662 1520 662 1507.5 645 c 128,-1,58
 1495 628 1495 628 1489 595 c 128,-1,59
 1483 562 1483 562 1481 502 c 2,60,-1
 1438 -388 l 1,61,-1
 1313 -388 l 1,62,-1
 1288 58 l 1,63,64
 1207 18 1207 18 1101 -4 c 128,-1,65
 995 -26 995 -26 883 -26 c 0,66,67
 753 -26 753 -26 644 4.5 c 128,-1,68
 535 35 535 35 447.5 89.5 c 128,-1,69
 360 144 360 144 294.5 218.5 c 128,-1,70
 229 293 229 293 184.5 380.5 c 128,-1,71
 140 468 140 468 118 565 c 128,-1,72
 96 662 96 662 96 761 c 256,0,1
EndSplineSet
EndChar

StartChar: H
Encoding: 72 72 38
Width: 1698
Flags: W
LayerCount: 2
Fore
SplineSet
112 83 m 1,0,1
 169 91 169 91 201.5 98.5 c 128,-1,2
 234 106 234 106 250.5 123.5 c 128,-1,3
 267 141 267 141 271 173.5 c 128,-1,4
 275 206 275 206 275 265 c 2,5,-1
 275 1267 l 2,6,7
 275 1325 275 1325 269.5 1358 c 128,-1,8
 264 1391 264 1391 246.5 1408 c 128,-1,9
 229 1425 229 1425 195 1431.5 c 128,-1,10
 161 1438 161 1438 104 1443 c 1,11,-1
 104 1530 l 1,12,-1
 647 1530 l 1,13,-1
 647 1443 l 1,14,15
 590 1437 590 1437 556 1431.5 c 128,-1,16
 522 1426 522 1426 504 1409.5 c 128,-1,17
 486 1393 486 1393 480.5 1360 c 128,-1,18
 475 1327 475 1327 475 1267 c 2,19,-1
 475 849 l 1,20,-1
 1220 849 l 1,21,-1
 1220 1267 l 2,22,23
 1220 1325 1220 1325 1214.5 1358 c 128,-1,24
 1209 1391 1209 1391 1191 1408 c 128,-1,25
 1173 1425 1173 1425 1139 1431.5 c 128,-1,26
 1105 1438 1105 1438 1048 1443 c 1,27,-1
 1048 1530 l 1,28,-1
 1593 1530 l 1,29,-1
 1593 1443 l 1,30,31
 1537 1437 1537 1437 1503 1431.5 c 128,-1,32
 1469 1426 1469 1426 1451 1409.5 c 128,-1,33
 1433 1393 1433 1393 1427 1360 c 128,-1,34
 1421 1327 1421 1327 1421 1267 c 2,35,-1
 1421 265 l 2,36,37
 1421 207 1421 207 1425.5 174.5 c 128,-1,38
 1430 142 1430 142 1447.5 125 c 128,-1,39
 1465 108 1465 108 1499.5 100 c 128,-1,40
 1534 92 1534 92 1593 83 c 1,41,-1
 1593 0 l 1,42,-1
 1048 0 l 1,43,-1
 1048 83 l 1,44,45
 1104 91 1104 91 1138 98.5 c 128,-1,46
 1172 106 1172 106 1190 123.5 c 128,-1,47
 1208 141 1208 141 1214 173.5 c 128,-1,48
 1220 206 1220 206 1220 265 c 2,49,-1
 1220 736 l 1,50,-1
 475 736 l 1,51,-1
 475 265 l 2,52,53
 475 207 475 207 480 174.5 c 128,-1,54
 485 142 485 142 502.5 125 c 128,-1,55
 520 108 520 108 554 100 c 128,-1,56
 588 92 588 92 647 83 c 1,57,-1
 647 0 l 1,58,-1
 112 0 l 1,59,-1
 112 83 l 1,0,1
EndSplineSet
EndChar

StartChar: I
Encoding: 73 73 39
Width: 848
Flags: W
LayerCount: 2
Fore
SplineSet
154 82 m 1,0,-1
 188 88 l 1,1,2
 231 94 231 94 258.5 100.5 c 128,-1,3
 286 107 286 107 301 124.5 c 128,-1,4
 316 142 316 142 321.5 174.5 c 128,-1,5
 327 207 327 207 327 265 c 2,6,-1
 327 1267 l 2,7,8
 327 1325 327 1325 321.5 1358 c 128,-1,9
 316 1391 316 1391 297.5 1408 c 128,-1,10
 279 1425 279 1425 245 1431.5 c 128,-1,11
 211 1438 211 1438 154 1443 c 1,12,-1
 154 1530 l 1,13,-1
 701 1530 l 1,14,-1
 701 1443 l 1,15,16
 645 1437 645 1437 611 1431.5 c 128,-1,17
 577 1426 577 1426 559 1409.5 c 128,-1,18
 541 1393 541 1393 535 1360 c 128,-1,19
 529 1327 529 1327 529 1267 c 2,20,-1
 529 265 l 2,21,22
 529 207 529 207 533 175 c 128,-1,23
 537 143 537 143 551 126 c 128,-1,24
 565 109 565 109 591.5 102.5 c 128,-1,25
 618 96 618 96 663 89 c 2,26,-1
 701 83 l 1,27,-1
 701 0 l 1,28,-1
 154 0 l 1,29,-1
 154 82 l 1,0,-1
EndSplineSet
EndChar

StartChar: J
Encoding: 74 74 40
Width: 683
Flags: W
LayerCount: 2
Fore
SplineSet
283 1266 m 2,0,1
 283 1326 283 1326 273 1359.5 c 128,-1,2
 263 1393 263 1393 240.5 1410 c 128,-1,3
 218 1427 218 1427 181 1432.5 c 128,-1,4
 144 1438 144 1438 90 1443 c 1,5,-1
 90 1530 l 1,6,-1
 678 1530 l 1,7,-1
 678 1443 l 1,8,9
 618 1437 618 1437 580.5 1431.5 c 128,-1,10
 543 1426 543 1426 522 1409.5 c 128,-1,11
 501 1393 501 1393 493.5 1360 c 128,-1,12
 486 1327 486 1327 486 1267 c 2,13,-1
 486 429 l 2,14,15
 486 294 486 294 478 184.5 c 128,-1,16
 470 75 470 75 450 -15.5 c 128,-1,17
 430 -106 430 -106 396 -180.5 c 128,-1,18
 362 -255 362 -255 309 -320.5 c 128,-1,19
 256 -386 256 -386 183 -445.5 c 128,-1,20
 110 -505 110 -505 13 -565 c 1,21,-1
 -41 -497 l 1,22,23
 30 -428 30 -428 82 -367.5 c 128,-1,24
 134 -307 134 -307 170 -247.5 c 128,-1,25
 206 -188 206 -188 228 -124.5 c 128,-1,26
 250 -61 250 -61 262.5 15 c 128,-1,27
 275 91 275 91 279 183 c 128,-1,28
 283 275 283 275 283 392 c 2,29,-1
 283 1266 l 2,0,1
EndSplineSet
EndChar

StartChar: K
Encoding: 75 75 41
Width: 1533
Flags: W
LayerCount: 2
Fore
SplineSet
991 1270 m 1,0,1
 1005 1286 1005 1286 1018 1304.5 c 128,-1,2
 1031 1323 1031 1323 1040.5 1340 c 128,-1,3
 1050 1357 1050 1357 1055.5 1371.5 c 128,-1,4
 1061 1386 1061 1386 1061 1395 c 0,5,6
 1061 1411 1061 1411 1047.5 1421 c 128,-1,7
 1034 1431 1034 1431 1013 1435.5 c 128,-1,8
 992 1440 992 1440 965.5 1441.5 c 128,-1,9
 939 1443 939 1443 913 1443 c 1,10,-1
 913 1530 l 1,11,-1
 1430 1530 l 1,12,-1
 1430 1443 l 1,13,14
 1398 1439 1398 1439 1371.5 1430 c 128,-1,15
 1345 1421 1345 1421 1321.5 1406 c 128,-1,16
 1298 1391 1298 1391 1276 1370 c 128,-1,17
 1254 1349 1254 1349 1230 1321 c 1,18,-1
 824 791 l 1,19,-1
 1617 -244 l 1,20,-1
 1549 -301 l 1,21,-1
 581 724 l 1,22,-1
 991 1270 l 1,0,1
102 83 m 1,23,-1
 137 88 l 2,24,25
 181 94 181 94 208 101 c 128,-1,26
 235 108 235 108 250 125 c 128,-1,27
 265 142 265 142 270 174.5 c 128,-1,28
 275 207 275 207 275 265 c 2,29,-1
 275 1267 l 2,30,31
 275 1325 275 1325 269.5 1358 c 128,-1,32
 264 1391 264 1391 246 1408 c 128,-1,33
 228 1425 228 1425 193.5 1431.5 c 128,-1,34
 159 1438 159 1438 102 1443 c 1,35,-1
 102 1530 l 1,36,-1
 651 1530 l 1,37,-1
 651 1443 l 1,38,39
 592 1438 592 1438 558 1432.5 c 128,-1,40
 524 1427 524 1427 506 1410 c 128,-1,41
 488 1393 488 1393 483 1360 c 128,-1,42
 478 1327 478 1327 478 1267 c 2,43,-1
 478 265 l 2,44,45
 478 207 478 207 482.5 175 c 128,-1,46
 487 143 487 143 503 126.5 c 128,-1,47
 519 110 519 110 548.5 103 c 128,-1,48
 578 96 578 96 629 89 c 2,49,-1
 672 83 l 1,50,-1
 672 0 l 1,51,-1
 102 0 l 1,52,-1
 102 83 l 1,23,-1
EndSplineSet
EndChar

StartChar: L
Encoding: 76 76 42
Width: 1364
Flags: W
LayerCount: 2
Fore
SplineSet
74 84 m 1,0,1
 138 90 138 90 175 98.5 c 128,-1,2
 212 107 212 107 230.5 123 c 128,-1,3
 249 139 249 139 253.5 165.5 c 128,-1,4
 258 192 258 192 258 235 c 2,5,-1
 258 1297 l 2,6,7
 258 1339 258 1339 252 1365 c 128,-1,8
 246 1391 246 1391 227 1406.5 c 128,-1,9
 208 1422 208 1422 171.5 1430 c 128,-1,10
 135 1438 135 1438 74 1443 c 1,11,-1
 74 1530 l 1,12,-1
 657 1530 l 1,13,-1
 657 1444 l 1,14,15
 597 1441 597 1441 559 1434.5 c 128,-1,16
 521 1428 521 1428 499.5 1413 c 128,-1,17
 478 1398 478 1398 470 1371 c 128,-1,18
 462 1344 462 1344 462 1301 c 2,19,-1
 462 210 l 2,20,21
 462 175 462 175 476 155 c 128,-1,22
 490 135 490 135 521.5 125 c 128,-1,23
 553 115 553 115 603.5 112.5 c 128,-1,24
 654 110 654 110 728 110 c 0,25,26
 828 110 828 110 899 113 c 128,-1,27
 970 116 970 116 1020 127 c 128,-1,28
 1070 138 1070 138 1102.5 159.5 c 128,-1,29
 1135 181 1135 181 1158.5 217 c 128,-1,30
 1182 253 1182 253 1201 306.5 c 128,-1,31
 1220 360 1220 360 1242 436 c 1,32,-1
 1335 436 l 1,33,-1
 1258 -78 l 1,34,-1
 1172 -78 l 1,35,36
 1169 -41 1169 -41 1147.5 -20.5 c 128,-1,37
 1126 0 1126 0 1091 0 c 2,38,-1
 74 0 l 1,39,-1
 74 84 l 1,0,1
EndSplineSet
EndChar

StartChar: M
Encoding: 77 77 43
Width: 2224
Flags: W
LayerCount: 2
Fore
SplineSet
31 83 m 1,0,1
 74 89 74 89 102.5 94.5 c 128,-1,2
 131 100 131 100 149.5 108.5 c 128,-1,3
 168 117 168 117 177.5 130.5 c 128,-1,4
 187 144 187 144 192 167 c 2,5,-1
 484 1559 l 1,6,-1
 558 1559 l 1,7,-1
 1111 338 l 1,8,-1
 1647 1559 l 1,9,-1
 1715 1559 l 1,10,-1
 1996 266 l 2,11,12
 2009 203 2009 203 2021.5 169.5 c 128,-1,13
 2034 136 2034 136 2055 119 c 128,-1,14
 2076 102 2076 102 2108 96 c 128,-1,15
 2140 90 2140 90 2192 83 c 1,16,-1
 2192 0 l 1,17,-1
 1623 0 l 1,18,-1
 1623 83 l 1,19,20
 1672 91 1672 91 1704 97.5 c 128,-1,21
 1736 104 1736 104 1755 114.5 c 128,-1,22
 1774 125 1774 125 1781.5 142 c 128,-1,23
 1789 159 1789 159 1789 189 c 0,24,25
 1789 204 1789 204 1786.5 223.5 c 128,-1,26
 1784 243 1784 243 1781 266 c 1,27,-1
 1620 1104 l 1,28,-1
 1110 -50 l 1,29,-1
 1043 -50 l 1,30,-1
 523 1104 l 1,31,-1
 351 203 l 2,32,33
 347 187 347 187 347 170 c 0,34,35
 347 149 347 149 356 134.5 c 128,-1,36
 365 120 365 120 387.5 110 c 128,-1,37
 410 100 410 100 447.5 93.5 c 128,-1,38
 485 87 485 87 541 83 c 1,39,-1
 541 0 l 1,40,-1
 31 0 l 1,41,-1
 31 83 l 1,0,1
EndSplineSet
EndChar

StartChar: N
Encoding: 78 78 44
Width: 1703
Flags: W
LayerCount: 2
Fore
SplineSet
45 83 m 1,0,-1
 90 89 l 1,1,2
 127 95 127 95 155 100.5 c 128,-1,3
 183 106 183 106 201.5 118 c 128,-1,4
 220 130 220 130 229 151 c 128,-1,5
 238 172 238 172 238 210 c 2,6,-1
 238 1558 l 1,7,-1
 323 1588 l 1,8,-1
 1307 350 l 1,9,-1
 1307 1287 l 2,10,11
 1307 1338 1307 1338 1298 1367 c 128,-1,12
 1289 1396 1289 1396 1267 1412 c 128,-1,13
 1245 1428 1245 1428 1207.5 1434 c 128,-1,14
 1170 1440 1170 1440 1113 1445 c 1,15,-1
 1113 1530 l 1,16,-1
 1641 1530 l 1,17,-1
 1641 1445 l 1,18,19
 1588 1439 1588 1439 1553 1433.5 c 128,-1,20
 1518 1428 1518 1428 1497 1413 c 128,-1,21
 1476 1398 1476 1398 1467.5 1369.5 c 128,-1,22
 1459 1341 1459 1341 1459 1290 c 2,23,-1
 1459 -24 l 1,24,-1
 1381 -47 l 1,25,-1
 390 1200 l 1,26,-1
 390 241 l 2,27,28
 390 194 390 194 400 167 c 128,-1,29
 410 140 410 140 430.5 125 c 128,-1,30
 451 110 451 110 481 103.5 c 128,-1,31
 511 97 511 97 550 91 c 2,32,-1
 604 83 l 1,33,-1
 604 0 l 1,34,-1
 45 0 l 1,35,-1
 45 83 l 1,0,-1
EndSplineSet
EndChar

StartChar: O
Encoding: 79 79 45
Width: 1703
Flags: W
LayerCount: 2
Fore
SplineSet
119 756 m 0,0,1
 119 854 119 854 139 951 c 128,-1,2
 159 1048 159 1048 199.5 1136.5 c 128,-1,3
 240 1225 240 1225 301 1300.5 c 128,-1,4
 362 1376 362 1376 443 1432 c 128,-1,5
 524 1488 524 1488 626 1519.5 c 128,-1,6
 728 1551 728 1551 851 1551 c 256,7,8
 974 1551 974 1551 1076 1519.5 c 128,-1,9
 1178 1488 1178 1488 1259.5 1432 c 128,-1,10
 1341 1376 1341 1376 1402 1300.5 c 128,-1,11
 1463 1225 1463 1225 1503.5 1136.5 c 128,-1,12
 1544 1048 1544 1048 1564 951 c 128,-1,13
 1584 854 1584 854 1584 756 c 0,14,15
 1584 655 1584 655 1564 558.5 c 128,-1,16
 1544 462 1544 462 1503.5 376 c 128,-1,17
 1463 290 1463 290 1402 217.5 c 128,-1,18
 1341 145 1341 145 1259.5 92 c 128,-1,19
 1178 39 1178 39 1076 9.5 c 128,-1,20
 974 -20 974 -20 851 -20 c 0,21,22
 727 -20 727 -20 625 10 c 128,-1,23
 523 40 523 40 441.5 93.5 c 128,-1,24
 360 147 360 147 299.5 220 c 128,-1,25
 239 293 239 293 199 379 c 128,-1,26
 159 465 159 465 139 561 c 128,-1,27
 119 657 119 657 119 756 c 0,0,1
358 756 m 0,28,29
 358 674 358 674 367 592 c 128,-1,30
 376 510 376 510 397.5 435 c 128,-1,31
 419 360 419 360 455 295 c 128,-1,32
 491 230 491 230 546 182.5 c 128,-1,33
 601 135 601 135 677 108 c 128,-1,34
 753 81 753 81 853 81 c 256,35,36
 953 81 953 81 1028.5 108 c 128,-1,37
 1104 135 1104 135 1159 182.5 c 128,-1,38
 1214 230 1214 230 1250.5 294.5 c 128,-1,39
 1287 359 1287 359 1309 434 c 128,-1,40
 1331 509 1331 509 1340 591 c 128,-1,41
 1349 673 1349 673 1349 756 c 256,42,43
 1349 839 1349 839 1340 922 c 128,-1,44
 1331 1005 1331 1005 1309 1081.5 c 128,-1,45
 1287 1158 1287 1158 1250.5 1224 c 128,-1,46
 1214 1290 1214 1290 1159 1338.5 c 128,-1,47
 1104 1387 1104 1387 1028.5 1415 c 128,-1,48
 953 1443 953 1443 853 1443 c 256,49,50
 753 1443 753 1443 677.5 1414.5 c 128,-1,51
 602 1386 602 1386 547 1336.5 c 128,-1,52
 492 1287 492 1287 455.5 1220.5 c 128,-1,53
 419 1154 419 1154 397.5 1077.5 c 128,-1,54
 376 1001 376 1001 367 918.5 c 128,-1,55
 358 836 358 836 358 756 c 0,28,29
EndSplineSet
EndChar

StartChar: P
Encoding: 80 80 46
Width: 1361
Flags: W
LayerCount: 2
Fore
SplineSet
96 82 m 1,0,1
 101 84 101 84 111 84.5 c 128,-1,2
 121 85 121 85 129 86 c 0,3,4
 172 92 172 92 199 99 c 128,-1,5
 226 106 226 106 241.5 123.5 c 128,-1,6
 257 141 257 141 263 173.5 c 128,-1,7
 269 206 269 206 269 264 c 2,8,-1
 269 1277 l 2,9,10
 269 1324 269 1324 264 1354 c 128,-1,11
 259 1384 259 1384 241.5 1402 c 128,-1,12
 224 1420 224 1420 189.5 1429 c 128,-1,13
 155 1438 155 1438 96 1443 c 1,14,-1
 96 1530 l 1,15,-1
 356 1530 l 2,16,17
 404 1530 404 1530 452.5 1533.5 c 128,-1,18
 501 1537 501 1537 550 1541 c 128,-1,19
 599 1545 599 1545 648.5 1548.5 c 128,-1,20
 698 1552 698 1552 749 1552 c 0,21,22
 901 1552 901 1552 1000 1511.5 c 128,-1,23
 1099 1471 1099 1471 1157 1403 c 128,-1,24
 1215 1335 1215 1335 1238 1246 c 128,-1,25
 1261 1157 1261 1157 1261 1060 c 0,26,27
 1261 959 1261 959 1233 864.5 c 128,-1,28
 1205 770 1205 770 1143 696.5 c 128,-1,29
 1081 623 1081 623 982.5 579 c 128,-1,30
 884 535 884 535 742 535 c 0,31,32
 708 535 708 535 670.5 541 c 128,-1,33
 633 547 633 547 601 555 c 1,34,-1
 618 648 l 1,35,36
 644 643 644 643 670 641.5 c 128,-1,37
 696 640 696 640 716 640 c 0,38,39
 803 640 803 640 863.5 670 c 128,-1,40
 924 700 924 700 962 754 c 128,-1,41
 1000 808 1000 808 1017.5 883 c 128,-1,42
 1035 958 1035 958 1035 1048 c 0,43,44
 1035 1097 1035 1097 1032 1145.5 c 128,-1,45
 1029 1194 1029 1194 1018.5 1238 c 128,-1,46
 1008 1282 1008 1282 988 1319.5 c 128,-1,47
 968 1357 968 1357 934.5 1384.5 c 128,-1,48
 901 1412 901 1412 851.5 1427.5 c 128,-1,49
 802 1443 802 1443 733 1443 c 0,50,51
 642 1443 642 1443 590 1429 c 128,-1,52
 538 1415 538 1415 511.5 1390 c 128,-1,53
 485 1365 485 1365 478 1330 c 128,-1,54
 471 1295 471 1295 471 1254 c 2,55,-1
 471 264 l 2,56,57
 471 206 471 206 477 174 c 128,-1,58
 483 142 483 142 503 125 c 128,-1,59
 523 108 523 108 561.5 101.5 c 128,-1,60
 600 95 600 95 665 88 c 2,61,-1
 720 82 l 1,62,-1
 720 0 l 1,63,-1
 96 0 l 1,64,-1
 96 82 l 1,0,1
EndSplineSet
EndChar

StartChar: Q
Encoding: 81 81 47
Width: 1704
Flags: W
LayerCount: 2
Fore
SplineSet
118 756 m 0,0,1
 118 854 118 854 138 951 c 128,-1,2
 158 1048 158 1048 198.5 1136.5 c 128,-1,3
 239 1225 239 1225 300 1300.5 c 128,-1,4
 361 1376 361 1376 442.5 1432 c 128,-1,5
 524 1488 524 1488 626 1519.5 c 128,-1,6
 728 1551 728 1551 851 1551 c 256,7,8
 974 1551 974 1551 1076 1519.5 c 128,-1,9
 1178 1488 1178 1488 1259.5 1432 c 128,-1,10
 1341 1376 1341 1376 1402 1300.5 c 128,-1,11
 1463 1225 1463 1225 1503.5 1136.5 c 128,-1,12
 1544 1048 1544 1048 1564 951 c 128,-1,13
 1584 854 1584 854 1584 756 c 0,14,15
 1584 675 1584 675 1571 596 c 128,-1,16
 1558 517 1558 517 1531.5 443.5 c 128,-1,17
 1505 370 1505 370 1465.5 304 c 128,-1,18
 1426 238 1426 238 1373 182 c 1,19,-1
 1756 -316 l 1,20,-1
 1696 -368 l 1,21,-1
 1210 58 l 1,22,23
 1135 18 1135 18 1046 -4 c 128,-1,24
 957 -26 957 -26 851 -26 c 0,25,26
 727 -26 727 -26 624.5 4.5 c 128,-1,27
 522 35 522 35 440.5 89 c 128,-1,28
 359 143 359 143 298.5 217 c 128,-1,29
 238 291 238 291 198 378 c 128,-1,30
 158 465 158 465 138 561 c 128,-1,31
 118 657 118 657 118 756 c 0,0,1
357 756 m 0,32,33
 357 674 357 674 366 591.5 c 128,-1,34
 375 509 375 509 396.5 433.5 c 128,-1,35
 418 358 418 358 454 292.5 c 128,-1,36
 490 227 490 227 545 178.5 c 128,-1,37
 600 130 600 130 676 102.5 c 128,-1,38
 752 75 752 75 852 75 c 256,39,40
 952 75 952 75 1027.5 102.5 c 128,-1,41
 1103 130 1103 130 1158 178 c 128,-1,42
 1213 226 1213 226 1249.5 291.5 c 128,-1,43
 1286 357 1286 357 1308 432.5 c 128,-1,44
 1330 508 1330 508 1339 590.5 c 128,-1,45
 1348 673 1348 673 1348 756 c 256,46,47
 1348 839 1348 839 1339 922 c 128,-1,48
 1330 1005 1330 1005 1308 1081.5 c 128,-1,49
 1286 1158 1286 1158 1249.5 1224 c 128,-1,50
 1213 1290 1213 1290 1158 1338.5 c 128,-1,51
 1103 1387 1103 1387 1027.5 1415 c 128,-1,52
 952 1443 952 1443 852 1443 c 256,53,54
 752 1443 752 1443 676.5 1414.5 c 128,-1,55
 601 1386 601 1386 546 1336.5 c 128,-1,56
 491 1287 491 1287 454.5 1220.5 c 128,-1,57
 418 1154 418 1154 396.5 1077.5 c 128,-1,58
 375 1001 375 1001 366 918.5 c 128,-1,59
 357 836 357 836 357 756 c 0,32,33
EndSplineSet
EndChar

StartChar: R
Encoding: 82 82 48
Width: 1533
Flags: W
LayerCount: 2
Fore
SplineSet
91 82 m 1,0,-1
 125 87 l 2,1,2
 168 93 168 93 195.5 99.5 c 128,-1,3
 223 106 223 106 238 123.5 c 128,-1,4
 253 141 253 141 258.5 173.5 c 128,-1,5
 264 206 264 206 264 265 c 2,6,-1
 264 1277 l 2,7,8
 264 1325 264 1325 259 1355 c 128,-1,9
 254 1385 254 1385 236.5 1403 c 128,-1,10
 219 1421 219 1421 184.5 1430 c 128,-1,11
 150 1439 150 1439 91 1444 c 1,12,-1
 91 1530 l 1,13,-1
 351 1530 l 2,14,15
 397 1530 397 1530 446.5 1533.5 c 128,-1,16
 496 1537 496 1537 546 1541 c 128,-1,17
 596 1545 596 1545 646.5 1548.5 c 128,-1,18
 697 1552 697 1552 746 1552 c 0,19,20
 889 1552 889 1552 993.5 1518 c 128,-1,21
 1098 1484 1098 1484 1165.5 1425 c 128,-1,22
 1233 1366 1233 1366 1265.5 1287.5 c 128,-1,23
 1298 1209 1298 1209 1298 1119 c 0,24,25
 1298 1054 1298 1054 1277.5 985.5 c 128,-1,26
 1257 917 1257 917 1212.5 853 c 128,-1,27
 1168 789 1168 789 1097 736 c 128,-1,28
 1026 683 1026 683 926 650 c 1,29,-1
 1607 -284 l 1,30,-1
 1532 -341 l 1,31,-1
 657 640 l 1,32,-1
 701 729 l 1,33,-1
 777 729 l 2,34,35
 831 729 831 729 883.5 752 c 128,-1,36
 936 775 936 775 977.5 822.5 c 128,-1,37
 1019 870 1019 870 1045 941 c 128,-1,38
 1071 1012 1071 1012 1071 1108 c 0,39,40
 1071 1174 1071 1174 1056.5 1234.5 c 128,-1,41
 1042 1295 1042 1295 1005 1341.5 c 128,-1,42
 968 1388 968 1388 905 1415.5 c 128,-1,43
 842 1443 842 1443 745 1443 c 0,44,45
 650 1443 650 1443 595 1426 c 128,-1,46
 540 1409 540 1409 511.5 1380.5 c 128,-1,47
 483 1352 483 1352 475 1314.5 c 128,-1,48
 467 1277 467 1277 467 1237 c 2,49,-1
 467 265 l 2,50,51
 467 206 467 206 473 174 c 128,-1,52
 479 142 479 142 499 125 c 128,-1,53
 519 108 519 108 557.5 101.5 c 128,-1,54
 596 95 596 95 661 88 c 2,55,-1
 715 82 l 1,56,-1
 715 -1 l 1,57,-1
 91 -1 l 1,58,-1
 91 82 l 1,0,-1
EndSplineSet
EndChar

StartChar: S
Encoding: 83 83 49
Width: 1364
Flags: W
LayerCount: 2
Fore
SplineSet
137 313 m 0,0,1
 137 370 137 370 161.5 413.5 c 128,-1,2
 186 457 186 457 221.5 488 c 128,-1,3
 257 519 257 519 297 537.5 c 128,-1,4
 337 556 337 556 368 562 c 1,5,-1
 422 498 l 1,6,7
 411 483 411 483 402.5 470 c 128,-1,8
 394 457 394 457 387.5 440 c 128,-1,9
 381 423 381 423 377.5 400.5 c 128,-1,10
 374 378 374 378 374 345 c 0,11,12
 374 293 374 293 401 245 c 128,-1,13
 428 197 428 197 474.5 160 c 128,-1,14
 521 123 521 123 583 101 c 128,-1,15
 645 79 645 79 715 79 c 0,16,17
 794 79 794 79 856 97 c 128,-1,18
 918 115 918 115 961.5 149 c 128,-1,19
 1005 183 1005 183 1028 232 c 128,-1,20
 1051 281 1051 281 1051 343 c 0,21,22
 1051 415 1051 415 1014.5 465.5 c 128,-1,23
 978 516 978 516 920.5 555.5 c 128,-1,24
 863 595 863 595 791 628.5 c 128,-1,25
 719 662 719 662 648 699 c 0,26,27
 537 756 537 756 456 809.5 c 128,-1,28
 375 863 375 863 322 918.5 c 128,-1,29
 269 974 269 974 243 1035 c 128,-1,30
 217 1096 217 1096 217 1170 c 0,31,32
 217 1260 217 1260 255.5 1330.5 c 128,-1,33
 294 1401 294 1401 361 1450 c 128,-1,34
 428 1499 428 1499 518.5 1525 c 128,-1,35
 609 1551 609 1551 714 1551 c 0,36,37
 809 1551 809 1551 895.5 1534.5 c 128,-1,38
 982 1518 982 1518 1047.5 1486.5 c 128,-1,39
 1113 1455 1113 1455 1151.5 1409.5 c 128,-1,40
 1190 1364 1190 1364 1190 1306 c 0,41,42
 1190 1277 1190 1277 1181 1245.5 c 128,-1,43
 1172 1214 1172 1214 1150.5 1185 c 128,-1,44
 1129 1156 1129 1156 1094.5 1131 c 128,-1,45
 1060 1106 1060 1106 1009 1091 c 1,46,-1
 935 1140 l 1,47,48
 952 1163 952 1163 966.5 1192 c 128,-1,49
 981 1221 981 1221 981 1270 c 0,50,51
 981 1313 981 1313 958 1345.5 c 128,-1,52
 935 1378 935 1378 895.5 1400 c 128,-1,53
 856 1422 856 1422 802 1433.5 c 128,-1,54
 748 1445 748 1445 686 1445 c 0,55,56
 628 1445 628 1445 578.5 1428.5 c 128,-1,57
 529 1412 529 1412 492.5 1382 c 128,-1,58
 456 1352 456 1352 435.5 1309.5 c 128,-1,59
 415 1267 415 1267 415 1216 c 0,60,61
 415 1153 415 1153 440 1106.5 c 128,-1,62
 465 1060 465 1060 515 1019 c 128,-1,63
 565 978 565 978 638.5 938 c 128,-1,64
 712 898 712 898 810 849 c 1,65,66
 903 801 903 801 986.5 754 c 128,-1,67
 1070 707 1070 707 1132.5 654 c 128,-1,68
 1195 601 1195 601 1232 538.5 c 128,-1,69
 1269 476 1269 476 1269 396 c 0,70,71
 1269 282 1269 282 1224.5 202.5 c 128,-1,72
 1180 123 1180 123 1103 72.5 c 128,-1,73
 1026 22 1026 22 923 -1 c 128,-1,74
 820 -24 820 -24 703 -24 c 0,75,76
 644 -24 644 -24 579.5 -14 c 128,-1,77
 515 -4 515 -4 452 15 c 128,-1,78
 389 34 389 34 332 62.5 c 128,-1,79
 275 91 275 91 231.5 128.5 c 128,-1,80
 188 166 188 166 162.5 212 c 128,-1,81
 137 258 137 258 137 313 c 0,0,1
EndSplineSet
EndChar

StartChar: T
Encoding: 84 84 50
Width: 1533
Flags: W
LayerCount: 2
Fore
SplineSet
403 87 m 1,0,1
 488 95 488 95 539.5 102.5 c 128,-1,2
 591 110 591 110 618 128 c 128,-1,3
 645 146 645 146 653.5 178.5 c 128,-1,4
 662 211 662 211 662 269 c 2,5,-1
 662 1424 l 1,6,-1
 470 1424 l 2,7,8
 398 1424 398 1424 350 1401.5 c 128,-1,9
 302 1379 302 1379 268 1340 c 128,-1,10
 234 1301 234 1301 209.5 1247.5 c 128,-1,11
 185 1194 185 1194 160 1132 c 2,12,-1
 148 1101 l 1,13,-1
 50 1101 l 1,14,-1
 162 1530 l 1,15,-1
 1458 1530 l 1,16,-1
 1353 1100 l 1,17,-1
 1257 1100 l 1,18,19
 1267 1154 1267 1154 1272.5 1196.5 c 128,-1,20
 1278 1239 1278 1239 1278 1273 c 0,21,22
 1278 1318 1278 1318 1265.5 1347.5 c 128,-1,23
 1253 1377 1253 1377 1224.5 1394 c 128,-1,24
 1196 1411 1196 1411 1149.5 1417.5 c 128,-1,25
 1103 1424 1103 1424 1034 1424 c 2,26,-1
 865 1424 l 1,27,-1
 865 269 l 2,28,29
 865 211 865 211 872 178.5 c 128,-1,30
 879 146 879 146 906 129 c 128,-1,31
 933 112 933 112 986.5 104 c 128,-1,32
 1040 96 1040 96 1133 87 c 1,33,-1
 1133 0 l 1,34,-1
 403 0 l 1,35,-1
 403 87 l 1,0,1
EndSplineSet
EndChar

StartChar: U
Encoding: 85 85 51
Width: 1700
Flags: W
LayerCount: 2
Fore
SplineSet
861 -47 m 1,0,1
 741 20 741 20 645.5 87.5 c 128,-1,2
 550 155 550 155 476 233.5 c 128,-1,3
 402 312 402 312 349 406.5 c 128,-1,4
 296 501 296 501 262 623.5 c 128,-1,5
 228 746 228 746 212 901 c 128,-1,6
 196 1056 196 1056 196 1254 c 0,7,8
 196 1306 196 1306 194 1340.5 c 128,-1,9
 192 1375 192 1375 178.5 1396 c 128,-1,10
 165 1417 165 1417 136.5 1427.5 c 128,-1,11
 108 1438 108 1438 55 1443 c 1,12,-1
 55 1530 l 1,13,-1
 568 1530 l 1,14,-1
 568 1443 l 1,15,16
 516 1438 516 1438 484.5 1428 c 128,-1,17
 453 1418 453 1418 435.5 1399 c 128,-1,18
 418 1380 418 1380 412.5 1350 c 128,-1,19
 407 1320 407 1320 407 1274 c 0,20,21
 407 1104 407 1104 412 973.5 c 128,-1,22
 417 843 417 843 433.5 739 c 128,-1,23
 450 635 450 635 480 552.5 c 128,-1,24
 510 470 510 470 560.5 395.5 c 128,-1,25
 611 321 611 321 684.5 249.5 c 128,-1,26
 758 178 758 178 861 96 c 1,27,28
 963 179 963 179 1034.5 251 c 128,-1,29
 1106 323 1106 323 1154 396.5 c 128,-1,30
 1202 470 1202 470 1230 552 c 128,-1,31
 1258 634 1258 634 1272 737 c 128,-1,32
 1286 840 1286 840 1289.5 971 c 128,-1,33
 1293 1102 1293 1102 1293 1274 c 0,34,35
 1293 1320 1293 1320 1287.5 1350 c 128,-1,36
 1282 1380 1282 1380 1264.5 1399 c 128,-1,37
 1247 1418 1247 1418 1215.5 1428 c 128,-1,38
 1184 1438 1184 1438 1133 1443 c 1,39,-1
 1133 1530 l 1,40,-1
 1644 1530 l 1,41,-1
 1644 1443 l 1,42,43
 1595 1437 1595 1437 1567 1427.5 c 128,-1,44
 1539 1418 1539 1418 1525 1398 c 128,-1,45
 1511 1378 1511 1378 1507.5 1343.5 c 128,-1,46
 1504 1309 1504 1309 1504 1254 c 0,47,48
 1504 1056 1504 1056 1488.5 901 c 128,-1,49
 1473 746 1473 746 1440 624 c 128,-1,50
 1407 502 1407 502 1355.5 407 c 128,-1,51
 1304 312 1304 312 1233 233.5 c 128,-1,52
 1162 155 1162 155 1069 87.5 c 128,-1,53
 976 20 976 20 861 -47 c 1,0,1
EndSplineSet
EndChar

StartChar: V
Encoding: 86 86 52
Width: 1530
Flags: W
LayerCount: 2
Fore
SplineSet
181 1308 m 2,0,1
 168 1340 168 1340 155.5 1363.5 c 128,-1,2
 143 1387 143 1387 126.5 1403.5 c 128,-1,3
 110 1420 110 1420 86 1429.5 c 128,-1,4
 62 1439 62 1439 26 1444 c 1,5,-1
 26 1531 l 1,6,-1
 528 1531 l 1,7,-1
 528 1444 l 1,8,9
 498 1443 498 1443 468.5 1441 c 128,-1,10
 439 1439 439 1439 415.5 1433 c 128,-1,11
 392 1427 392 1427 377.5 1416 c 128,-1,12
 363 1405 363 1405 363 1386 c 0,13,14
 363 1384 363 1384 379.5 1340.5 c 128,-1,15
 396 1297 396 1297 423 1226.5 c 128,-1,16
 450 1156 450 1156 485.5 1065 c 128,-1,17
 521 974 521 974 559 877 c 128,-1,18
 597 780 597 780 635.5 683 c 128,-1,19
 674 586 674 586 706 504 c 128,-1,20
 738 422 738 422 762.5 361 c 128,-1,21
 787 300 787 300 797 274 c 1,22,23
 807 299 807 299 830 358.5 c 128,-1,24
 853 418 853 418 883.5 497.5 c 128,-1,25
 914 577 914 577 949.5 671 c 128,-1,26
 985 765 985 765 1020.5 859.5 c 128,-1,27
 1056 954 1056 954 1089.5 1043 c 128,-1,28
 1123 1132 1123 1132 1148 1202.5 c 128,-1,29
 1173 1273 1173 1273 1188.5 1318 c 128,-1,30
 1204 1363 1204 1363 1204 1370 c 0,31,32
 1204 1394 1204 1394 1193.5 1408.5 c 128,-1,33
 1183 1423 1183 1423 1163 1430.5 c 128,-1,34
 1143 1438 1143 1438 1114 1440.5 c 128,-1,35
 1085 1443 1085 1443 1049 1443 c 1,36,-1
 1049 1530 l 1,37,-1
 1504 1530 l 1,38,-1
 1504 1443 l 1,39,40
 1468 1438 1468 1438 1446 1428.5 c 128,-1,41
 1424 1419 1424 1419 1410 1402 c 128,-1,42
 1396 1385 1396 1385 1385 1359 c 128,-1,43
 1374 1333 1374 1333 1359 1296 c 2,44,-1
 812 -59 l 1,45,-1
 742 -59 l 1,46,-1
 181 1308 l 2,0,1
EndSplineSet
EndChar

StartChar: W
Encoding: 87 87 53
Width: 2223
Flags: W
LayerCount: 2
Fore
SplineSet
709 62 m 1,0,1
 781 146 781 146 831 219.5 c 128,-1,2
 881 293 881 293 914 367.5 c 128,-1,3
 947 442 947 442 965.5 524.5 c 128,-1,4
 984 607 984 607 992.5 709.5 c 128,-1,5
 1001 812 1001 812 1003 941.5 c 128,-1,6
 1005 1071 1005 1071 1005 1240 c 0,7,8
 1005 1301 1005 1301 1001 1339 c 128,-1,9
 997 1377 997 1377 981.5 1398.5 c 128,-1,10
 966 1420 966 1420 935 1429 c 128,-1,11
 904 1438 904 1438 850 1443 c 1,12,-1
 850 1530 l 1,13,-1
 1373 1530 l 1,14,-1
 1373 1443 l 1,15,16
 1319 1436 1319 1436 1287.5 1426.5 c 128,-1,17
 1256 1417 1256 1417 1240.5 1396.5 c 128,-1,18
 1225 1376 1225 1376 1220.5 1339 c 128,-1,19
 1216 1302 1216 1302 1216 1240 c 0,20,21
 1216 1061 1216 1061 1218.5 926.5 c 128,-1,22
 1221 792 1221 792 1231 688 c 128,-1,23
 1241 584 1241 584 1260 503.5 c 128,-1,24
 1279 423 1279 423 1312 352 c 128,-1,25
 1345 281 1345 281 1394 212 c 128,-1,26
 1443 143 1443 143 1513 62 c 1,27,28
 1581 148 1581 148 1627.5 222.5 c 128,-1,29
 1674 297 1674 297 1704 373 c 128,-1,30
 1734 449 1734 449 1750.5 533 c 128,-1,31
 1767 617 1767 617 1774.5 723 c 128,-1,32
 1782 829 1782 829 1783 963 c 128,-1,33
 1784 1097 1784 1097 1784 1273 c 0,34,35
 1784 1322 1784 1322 1781 1353 c 128,-1,36
 1778 1384 1778 1384 1763 1402.5 c 128,-1,37
 1748 1421 1748 1421 1716.5 1429.5 c 128,-1,38
 1685 1438 1685 1438 1628 1443 c 1,39,-1
 1628 1530 l 1,40,-1
 2139 1530 l 1,41,-1
 2139 1443 l 1,42,43
 2085 1439 2085 1439 2055.5 1430 c 128,-1,44
 2026 1421 2026 1421 2012 1400.5 c 128,-1,45
 1998 1380 1998 1380 1995.5 1344 c 128,-1,46
 1993 1308 1993 1308 1993 1250 c 0,47,48
 1993 1051 1993 1051 1983 894 c 128,-1,49
 1973 737 1973 737 1950 611.5 c 128,-1,50
 1927 486 1927 486 1890.5 387.5 c 128,-1,51
 1854 289 1854 289 1800.5 207 c 128,-1,52
 1747 125 1747 125 1676 56 c 128,-1,53
 1605 -13 1605 -13 1513 -80 c 1,54,55
 1441 -17 1441 -17 1380 47.5 c 128,-1,56
 1319 112 1319 112 1268.5 181.5 c 128,-1,57
 1218 251 1218 251 1179 328 c 128,-1,58
 1140 405 1140 405 1112 493 c 1,59,60
 1082 405 1082 405 1043.5 327.5 c 128,-1,61
 1005 250 1005 250 955.5 180.5 c 128,-1,62
 906 111 906 111 845 46.5 c 128,-1,63
 784 -18 784 -18 709 -80 c 1,64,65
 617 -12 617 -12 546 57.5 c 128,-1,66
 475 127 475 127 421.5 208.5 c 128,-1,67
 368 290 368 290 331 388 c 128,-1,68
 294 486 294 486 271 611 c 128,-1,69
 248 736 248 736 238 893.5 c 128,-1,70
 228 1051 228 1051 228 1250 c 0,71,72
 228 1308 228 1308 225 1343 c 128,-1,73
 222 1378 222 1378 207.5 1398 c 128,-1,74
 193 1418 193 1418 164 1427 c 128,-1,75
 135 1436 135 1436 83 1443 c 1,76,-1
 83 1530 l 1,77,-1
 595 1530 l 1,78,-1
 595 1443 l 1,79,80
 535 1438 535 1438 503 1428.5 c 128,-1,81
 471 1419 471 1419 456.5 1399 c 128,-1,82
 442 1379 442 1379 439.5 1345.5 c 128,-1,83
 437 1312 437 1312 437 1258 c 0,84,85
 437 1085 437 1085 438.5 953 c 128,-1,86
 440 821 440 821 447.5 716.5 c 128,-1,87
 455 612 455 612 471.5 529 c 128,-1,88
 488 446 488 446 518 370.5 c 128,-1,89
 548 295 548 295 594.5 221 c 128,-1,90
 641 147 641 147 709 62 c 1,0,1
EndSplineSet
EndChar

StartChar: X
Encoding: 88 88 54
Width: 1533
Flags: W
LayerCount: 2
Fore
SplineSet
54 84 m 1,0,1
 102 88 102 88 129.5 93.5 c 128,-1,2
 157 99 157 99 172.5 111 c 128,-1,3
 188 123 188 123 196 143 c 128,-1,4
 204 163 204 163 213 196 c 1,5,6
 217 216 217 216 226.5 251.5 c 128,-1,7
 236 287 236 287 255 332.5 c 128,-1,8
 274 378 274 378 305 432.5 c 128,-1,9
 336 487 336 487 382.5 544.5 c 128,-1,10
 429 602 429 602 493.5 661.5 c 128,-1,11
 558 721 558 721 644 777 c 1,12,13
 558 827 558 827 495 881 c 128,-1,14
 432 935 432 935 386.5 988.5 c 128,-1,15
 341 1042 341 1042 311.5 1093.5 c 128,-1,16
 282 1145 282 1145 264 1190.5 c 128,-1,17
 246 1236 246 1236 237 1272.5 c 128,-1,18
 228 1309 228 1309 224 1334 c 1,19,20
 215 1367 215 1367 205.5 1387 c 128,-1,21
 196 1407 196 1407 178.5 1418 c 128,-1,22
 161 1429 161 1429 131.5 1434.5 c 128,-1,23
 102 1440 102 1440 54 1444 c 1,24,-1
 54 1530 l 1,25,-1
 580 1530 l 1,26,-1
 580 1444 l 1,27,28
 527 1444 527 1444 498 1440 c 128,-1,29
 469 1436 469 1436 455.5 1429 c 128,-1,30
 442 1422 442 1422 439 1411 c 128,-1,31
 436 1400 436 1400 436 1387 c 0,32,33
 436 1373 436 1373 440.5 1339.5 c 128,-1,34
 445 1306 445 1306 458 1260.5 c 128,-1,35
 471 1215 471 1215 493.5 1161 c 128,-1,36
 516 1107 516 1107 551.5 1051.5 c 128,-1,37
 587 996 587 996 637 942 c 128,-1,38
 687 888 687 888 755 843 c 1,39,40
 826 888 826 888 880 942 c 128,-1,41
 934 996 934 996 972.5 1051.5 c 128,-1,42
 1011 1107 1011 1107 1036.5 1161 c 128,-1,43
 1062 1215 1062 1215 1077.5 1260.5 c 128,-1,44
 1093 1306 1093 1306 1099 1339 c 128,-1,45
 1105 1372 1105 1372 1105 1387 c 0,46,47
 1105 1400 1105 1400 1099.5 1411 c 128,-1,48
 1094 1422 1094 1422 1079.5 1429 c 128,-1,49
 1065 1436 1065 1436 1039 1440 c 128,-1,50
 1013 1444 1013 1444 973 1444 c 1,51,-1
 973 1530 l 1,52,-1
 1466 1530 l 1,53,-1
 1466 1444 l 1,54,55
 1415 1440 1415 1440 1385.5 1434.5 c 128,-1,56
 1356 1429 1356 1429 1339.5 1418 c 128,-1,57
 1323 1407 1323 1407 1314.5 1387 c 128,-1,58
 1306 1367 1306 1367 1296 1334 c 1,59,60
 1292 1310 1292 1310 1282.5 1273 c 128,-1,61
 1273 1236 1273 1236 1254 1190.5 c 128,-1,62
 1235 1145 1235 1145 1204 1093.5 c 128,-1,63
 1173 1042 1173 1042 1127 988.5 c 128,-1,64
 1081 935 1081 935 1017 881.5 c 128,-1,65
 953 828 953 828 867 779 c 1,66,67
 960 722 960 722 1028 662 c 128,-1,68
 1096 602 1096 602 1144.5 543.5 c 128,-1,69
 1193 485 1193 485 1224.5 430.5 c 128,-1,70
 1256 376 1256 376 1275 330 c 128,-1,71
 1294 284 1294 284 1303.5 249.5 c 128,-1,72
 1313 215 1313 215 1318 196 c 0,73,74
 1327 159 1327 159 1334 138.5 c 128,-1,75
 1341 118 1341 118 1356 107.5 c 128,-1,76
 1371 97 1371 97 1398.5 92.5 c 128,-1,77
 1426 88 1426 88 1477 84 c 1,78,-1
 1477 0 l 1,79,-1
 951 0 l 1,80,-1
 951 84 l 1,81,82
 1002 87 1002 87 1031 91 c 128,-1,83
 1060 95 1060 95 1074.5 101.5 c 128,-1,84
 1089 108 1089 108 1092 118 c 128,-1,85
 1095 128 1095 128 1095 143 c 256,86,87
 1095 158 1095 158 1089.5 192 c 128,-1,88
 1084 226 1084 226 1070 272.5 c 128,-1,89
 1056 319 1056 319 1032 375 c 128,-1,90
 1008 431 1008 431 970 489.5 c 128,-1,91
 932 548 932 548 879 607.5 c 128,-1,92
 826 667 826 667 755 720 c 1,93,94
 684 667 684 667 630 607.5 c 128,-1,95
 576 548 576 548 537 489.5 c 128,-1,96
 498 431 498 431 472.5 375 c 128,-1,97
 447 319 447 319 431.5 272.5 c 128,-1,98
 416 226 416 226 410 192.5 c 128,-1,99
 404 159 404 159 404 143 c 0,100,101
 404 128 404 128 407.5 118 c 128,-1,102
 411 108 411 108 428.5 101.5 c 128,-1,103
 446 95 446 95 481.5 91 c 128,-1,104
 517 87 517 87 580 84 c 1,105,-1
 580 0 l 1,106,-1
 54 0 l 1,107,-1
 54 84 l 1,0,1
EndSplineSet
EndChar

StartChar: Y
Encoding: 89 89 55
Width: 1530
Flags: W
LayerCount: 2
Fore
SplineSet
459 83 m 1,0,1
 527 91 527 91 567.5 98.5 c 128,-1,2
 608 106 608 106 630 124 c 128,-1,3
 652 142 652 142 658.5 174.5 c 128,-1,4
 665 207 665 207 665 265 c 2,5,-1
 665 512 l 1,6,7
 547 564 547 564 462.5 637.5 c 128,-1,8
 378 711 378 711 323.5 805 c 128,-1,9
 269 899 269 899 243 1012 c 128,-1,10
 217 1125 217 1125 217 1255 c 0,11,12
 217 1307 217 1307 215 1341 c 128,-1,13
 213 1375 213 1375 199.5 1396 c 128,-1,14
 186 1417 186 1417 157.5 1427.5 c 128,-1,15
 129 1438 129 1438 77 1443 c 1,16,-1
 77 1530 l 1,17,-1
 589 1530 l 1,18,-1
 589 1443 l 1,19,20
 536 1438 536 1438 503 1428 c 128,-1,21
 470 1418 470 1418 451 1399 c 128,-1,22
 432 1380 432 1380 425 1350 c 128,-1,23
 418 1320 418 1320 418 1274 c 0,24,25
 418 1161 418 1161 426.5 1065.5 c 128,-1,26
 435 970 435 970 469.5 887 c 128,-1,27
 504 804 504 804 573.5 733 c 128,-1,28
 643 662 643 662 766 599 c 1,29,30
 847 641 847 641 904.5 686.5 c 128,-1,31
 962 732 962 732 1000.5 782 c 128,-1,32
 1039 832 1039 832 1061 887 c 128,-1,33
 1083 942 1083 942 1094.5 1003 c 128,-1,34
 1106 1064 1106 1064 1109 1131.5 c 128,-1,35
 1112 1199 1112 1199 1112 1274 c 0,36,37
 1112 1320 1112 1320 1104.5 1350 c 128,-1,38
 1097 1380 1097 1380 1078 1399 c 128,-1,39
 1059 1418 1059 1418 1026 1428 c 128,-1,40
 993 1438 993 1438 942 1443 c 1,41,-1
 942 1530 l 1,42,-1
 1453 1530 l 1,43,-1
 1453 1443 l 1,44,45
 1404 1437 1404 1437 1376 1427.5 c 128,-1,46
 1348 1418 1348 1418 1334 1398.5 c 128,-1,47
 1320 1379 1320 1379 1316.5 1344.5 c 128,-1,48
 1313 1310 1313 1310 1313 1255 c 0,49,50
 1313 1125 1313 1125 1287 1012.5 c 128,-1,51
 1261 900 1261 900 1206.5 806.5 c 128,-1,52
 1152 713 1152 713 1067.5 639 c 128,-1,53
 983 565 983 565 866 512 c 1,54,-1
 866 265 l 2,55,56
 866 207 866 207 871.5 174.5 c 128,-1,57
 877 142 877 142 898 125 c 128,-1,58
 919 108 919 108 960 100 c 128,-1,59
 1001 92 1001 92 1072 83 c 1,60,-1
 1072 0 l 1,61,-1
 459 0 l 1,62,-1
 459 83 l 1,0,1
EndSplineSet
EndChar

StartChar: Z
Encoding: 90 90 56
Width: 1364
Flags: W
LayerCount: 2
Fore
SplineSet
1019 1409 m 1,0,-1
 454 1409 l 2,1,2
 385 1409 385 1409 342 1393 c 128,-1,3
 299 1377 299 1377 271 1345.5 c 128,-1,4
 243 1314 243 1314 224 1267.5 c 128,-1,5
 205 1221 205 1221 183 1161 c 2,6,-1
 161 1101 l 1,7,-1
 61 1101 l 1,8,-1
 195 1611 l 1,9,-1
 288 1611 l 1,10,11
 287 1606 287 1606 287 1598 c 0,12,13
 287 1563 287 1563 304 1546.5 c 128,-1,14
 321 1530 321 1530 349 1530 c 2,15,-1
 1287 1530 l 1,16,-1
 1309 1471 l 1,17,-1
 389 123 l 1,18,-1
 919 123 l 2,19,20
 1007 123 1007 123 1060 140.5 c 128,-1,21
 1113 158 1113 158 1144.5 196 c 128,-1,22
 1176 234 1176 234 1193 294.5 c 128,-1,23
 1210 355 1210 355 1227 441 c 1,24,-1
 1324 441 l 1,25,-1
 1261 -78 l 1,26,-1
 1163 -78 l 1,27,28
 1163 -39 1163 -39 1141.5 -19.5 c 128,-1,29
 1120 0 1120 0 1096 0 c 2,30,-1
 109 0 l 1,31,-1
 86 61 l 1,32,-1
 1019 1409 l 1,0,-1
EndSplineSet
EndChar

StartChar: ampersand
Encoding: 38 38 57
Width: 1533
Flags: W
LayerCount: 2
Fore
SplineSet
153 426 m 0,0,1
 153 508 153 508 182 574 c 128,-1,2
 211 640 211 640 260 690 c 128,-1,3
 309 740 309 740 373 773.5 c 128,-1,4
 437 807 437 807 506 824 c 1,5,6
 486 830 486 830 458.5 841 c 128,-1,7
 431 852 431 852 401.5 869.5 c 128,-1,8
 372 887 372 887 342.5 912.5 c 128,-1,9
 313 938 313 938 290 973.5 c 128,-1,10
 267 1009 267 1009 252.5 1055 c 128,-1,11
 238 1101 238 1101 238 1160 c 0,12,13
 238 1241 238 1241 267 1311 c 128,-1,14
 296 1381 296 1381 355.5 1432.5 c 128,-1,15
 415 1484 415 1484 505.5 1513.5 c 128,-1,16
 596 1543 596 1543 720 1543 c 0,17,18
 787 1543 787 1543 837.5 1532.5 c 128,-1,19
 888 1522 888 1522 926 1510 c 128,-1,20
 964 1498 964 1498 993.5 1487.5 c 128,-1,21
 1023 1477 1023 1477 1048 1477 c 0,22,23
 1086 1477 1086 1477 1110.5 1499 c 128,-1,24
 1135 1521 1135 1521 1157 1555 c 1,25,-1
 1253 1555 l 1,26,-1
 1125 1058 l 1,27,-1
 1028 1058 l 1,28,29
 1032 1084 1032 1084 1034 1113 c 128,-1,30
 1036 1142 1036 1142 1036 1184 c 0,31,32
 1036 1237 1036 1237 1016.5 1283.5 c 128,-1,33
 997 1330 997 1330 958 1364.5 c 128,-1,34
 919 1399 919 1399 859.5 1419 c 128,-1,35
 800 1439 800 1439 720 1439 c 0,36,37
 676 1439 676 1439 631.5 1427.5 c 128,-1,38
 587 1416 587 1416 551 1385 c 128,-1,39
 515 1354 515 1354 492.5 1298.5 c 128,-1,40
 470 1243 470 1243 470 1156 c 0,41,42
 470 1091 470 1091 487 1039.5 c 128,-1,43
 504 988 504 988 535.5 951 c 128,-1,44
 567 914 567 914 611.5 893 c 128,-1,45
 656 872 656 872 710 869 c 1,46,-1
 710 765 l 1,47,48
 635 765 635 765 574.5 741 c 128,-1,49
 514 717 514 717 472 670.5 c 128,-1,50
 430 624 430 624 407.5 554.5 c 128,-1,51
 385 485 385 485 385 395 c 0,52,53
 385 313 385 313 416 254 c 128,-1,54
 447 195 447 195 497.5 156.5 c 128,-1,55
 548 118 548 118 612.5 100 c 128,-1,56
 677 82 677 82 744 82 c 0,57,58
 804 82 804 82 859.5 93.5 c 128,-1,59
 915 105 915 105 964 123.5 c 128,-1,60
 1013 142 1013 142 1054 166 c 128,-1,61
 1095 190 1095 190 1125 214 c 1,62,-1
 1112 601 l 2,63,64
 1110 654 1110 654 1104 685 c 128,-1,65
 1098 716 1098 716 1081.5 733 c 128,-1,66
 1065 750 1065 750 1033.5 757 c 128,-1,67
 1002 764 1002 764 949 769 c 1,68,-1
 949 847 l 1,69,-1
 1441 847 l 1,70,-1
 1441 769 l 1,71,72
 1396 764 1396 764 1369 757.5 c 128,-1,73
 1342 751 1342 751 1327 734.5 c 128,-1,74
 1312 718 1312 718 1307 687 c 128,-1,75
 1302 656 1302 656 1300 601 c 2,76,-1
 1260 -536 l 1,77,-1
 1152 -536 l 1,78,-1
 1130 71 l 1,79,80
 1094 46 1094 46 1045 27.5 c 128,-1,81
 996 9 996 9 941.5 -3 c 128,-1,82
 887 -15 887 -15 829.5 -20.5 c 128,-1,83
 772 -26 772 -26 719 -26 c 0,84,85
 587 -26 587 -26 482 4.5 c 128,-1,86
 377 35 377 35 304 93 c 128,-1,87
 231 151 231 151 192 235 c 128,-1,88
 153 319 153 319 153 426 c 0,0,1
EndSplineSet
EndChar

StartChar: zero
Encoding: 48 48 58
Width: 1365
Flags: W
LayerCount: 2
Fore
SplineSet
106 663 m 0,0,1
 106 792 106 792 143 915.5 c 128,-1,2
 180 1039 180 1039 252.5 1136.5 c 128,-1,3
 325 1234 325 1234 434 1293.5 c 128,-1,4
 543 1353 543 1353 687 1353 c 0,5,6
 782 1353 782 1353 861 1325.5 c 128,-1,7
 940 1298 940 1298 1003.5 1250 c 128,-1,8
 1067 1202 1067 1202 1115 1136.5 c 128,-1,9
 1163 1071 1163 1071 1195 994.5 c 128,-1,10
 1227 918 1227 918 1243 833.5 c 128,-1,11
 1259 749 1259 749 1259 663 c 0,12,13
 1259 532 1259 532 1223 408 c 128,-1,14
 1187 284 1187 284 1115 187.5 c 128,-1,15
 1043 91 1043 91 936 32.5 c 128,-1,16
 829 -26 829 -26 687 -26 c 0,17,18
 590 -26 590 -26 509 1.5 c 128,-1,19
 428 29 428 29 363.5 77 c 128,-1,20
 299 125 299 125 250.5 190.5 c 128,-1,21
 202 256 202 256 170 332.5 c 128,-1,22
 138 409 138 409 122 493.5 c 128,-1,23
 106 578 106 578 106 663 c 0,0,1
218 663 m 0,24,25
 218 609 218 609 226.5 553.5 c 128,-1,26
 235 498 235 498 255.5 446 c 128,-1,27
 276 394 276 394 310.5 348 c 128,-1,28
 345 302 345 302 397.5 267.5 c 128,-1,29
 450 233 450 233 522 213 c 128,-1,30
 594 193 594 193 690 193 c 0,31,32
 783 193 783 193 853 212.5 c 128,-1,33
 923 232 923 232 974 266.5 c 128,-1,34
 1025 301 1025 301 1058 346.5 c 128,-1,35
 1091 392 1091 392 1111 444.5 c 128,-1,36
 1131 497 1131 497 1139 553 c 128,-1,37
 1147 609 1147 609 1147 663 c 0,38,39
 1147 719 1147 719 1139 776 c 128,-1,40
 1131 833 1131 833 1111 886 c 128,-1,41
 1091 939 1091 939 1058 984.5 c 128,-1,42
 1025 1030 1025 1030 974 1064 c 128,-1,43
 923 1098 923 1098 853 1117.5 c 128,-1,44
 783 1137 783 1137 690 1137 c 0,45,46
 595 1137 595 1137 523 1116.5 c 128,-1,47
 451 1096 451 1096 398.5 1061.5 c 128,-1,48
 346 1027 346 1027 311 980.5 c 128,-1,49
 276 934 276 934 255.5 881 c 128,-1,50
 235 828 235 828 226.5 772 c 128,-1,51
 218 716 218 716 218 663 c 0,24,25
EndSplineSet
EndChar

StartChar: one
Encoding: 49 49 59
Width: 1025
Flags: W
LayerCount: 2
Fore
SplineSet
137 100 m 1,0,1
 203 103 203 103 254 107.5 c 128,-1,2
 305 112 305 112 340 125 c 128,-1,3
 375 138 375 138 393 162 c 128,-1,4
 411 186 411 186 411 227 c 2,5,-1
 411 1076 l 2,6,7
 411 1128 411 1128 402 1158 c 128,-1,8
 393 1188 393 1188 364 1203.5 c 128,-1,9
 335 1219 335 1219 281 1223.5 c 128,-1,10
 227 1228 227 1228 137 1228 c 1,11,-1
 137 1327 l 1,12,-1
 611 1327 l 1,13,-1
 611 227 l 2,14,15
 611 186 611 186 629.5 162 c 128,-1,16
 648 138 648 138 683 125 c 128,-1,17
 718 112 718 112 770 107 c 128,-1,18
 822 102 822 102 888 100 c 1,19,-1
 888 0 l 1,20,-1
 137 0 l 1,21,-1
 137 100 l 1,0,1
EndSplineSet
EndChar

StartChar: two
Encoding: 50 50 60
Width: 1364
Flags: W
LayerCount: 2
Fore
SplineSet
158 41 m 1,0,1
 307 167 307 167 441.5 282.5 c 128,-1,2
 576 398 576 398 677.5 505.5 c 128,-1,3
 779 613 779 613 838.5 713 c 128,-1,4
 898 813 898 813 898 909 c 0,5,6
 898 961 898 961 884.5 1010 c 128,-1,7
 871 1059 871 1059 838 1097.5 c 128,-1,8
 805 1136 805 1136 750.5 1159.5 c 128,-1,9
 696 1183 696 1183 614 1183 c 0,10,11
 483 1183 483 1183 395.5 1110 c 128,-1,12
 308 1037 308 1037 250 896 c 1,13,-1
 152 896 l 1,14,-1
 277 1397 l 1,15,-1
 388 1397 l 1,16,17
 388 1393 388 1393 387.5 1389.5 c 128,-1,18
 387 1386 387 1386 387 1383 c 0,19,20
 387 1341 387 1341 405.5 1329 c 128,-1,21
 424 1317 424 1317 449 1317 c 0,22,23
 461 1317 461 1317 485 1322.5 c 128,-1,24
 509 1328 509 1328 540.5 1334 c 128,-1,25
 572 1340 572 1340 608 1345.5 c 128,-1,26
 644 1351 644 1351 678 1351 c 0,27,28
 762 1351 762 1351 840 1323 c 128,-1,29
 918 1295 918 1295 978.5 1242.5 c 128,-1,30
 1039 1190 1039 1190 1075.5 1115.5 c 128,-1,31
 1112 1041 1112 1041 1112 948 c 0,32,33
 1112 889 1112 889 1098.5 835 c 128,-1,34
 1085 781 1085 781 1054 726 c 128,-1,35
 1023 671 1023 671 973.5 613 c 128,-1,36
 924 555 924 555 852.5 488.5 c 128,-1,37
 781 422 781 422 686 344.5 c 128,-1,38
 591 267 591 267 469 173 c 1,39,-1
 935 173 l 2,40,41
 995 173 995 173 1038 184.5 c 128,-1,42
 1081 196 1081 196 1113.5 221.5 c 128,-1,43
 1146 247 1146 247 1170 286.5 c 128,-1,44
 1194 326 1194 326 1216 383 c 1,45,-1
 1314 383 l 1,46,-1
 1208 -78 l 1,47,-1
 1110 -78 l 1,48,49
 1103 -41 1103 -41 1081 -20.5 c 128,-1,50
 1059 0 1059 0 1027 0 c 2,51,-1
 181 0 l 1,52,-1
 158 41 l 1,0,1
EndSplineSet
EndChar

StartChar: three
Encoding: 51 51 61
Width: 1195
Flags: W
LayerCount: 2
Fore
SplineSet
220 -403 m 1,0,1
 266 -392 266 -392 334 -365.5 c 128,-1,2
 402 -339 402 -339 477 -297.5 c 128,-1,3
 552 -256 552 -256 627.5 -201 c 128,-1,4
 703 -146 703 -146 763 -78.5 c 128,-1,5
 823 -11 823 -11 860.5 69.5 c 128,-1,6
 898 150 898 150 898 241 c 0,7,8
 898 300 898 300 873 360 c 128,-1,9
 848 420 848 420 798.5 468.5 c 128,-1,10
 749 517 749 517 675.5 547.5 c 128,-1,11
 602 578 602 578 506 578 c 0,12,13
 494 578 494 578 479.5 573 c 128,-1,14
 465 568 465 568 450 560.5 c 128,-1,15
 435 553 435 553 421 545.5 c 128,-1,16
 407 538 407 538 396 534 c 1,17,-1
 344 616 l 1,18,19
 453 656 453 656 539.5 717.5 c 128,-1,20
 626 779 626 779 688.5 851 c 128,-1,21
 751 923 751 923 790 1001 c 128,-1,22
 829 1079 829 1079 844 1153 c 1,23,-1
 399 1153 l 2,24,25
 354 1153 354 1153 322.5 1137.5 c 128,-1,26
 291 1122 291 1122 267.5 1094 c 128,-1,27
 244 1066 244 1066 225.5 1027 c 128,-1,28
 207 988 207 988 188 942 c 1,29,-1
 88 942 l 1,30,-1
 221 1407 l 1,31,-1
 317 1407 l 1,32,33
 316 1402 316 1402 316 1397.5 c 128,-1,34
 316 1393 316 1393 316 1388 c 0,35,36
 316 1354 316 1354 332 1340.5 c 128,-1,37
 348 1327 348 1327 380 1327 c 2,38,-1
 1028 1327 l 1,39,40
 1028 1220 1028 1220 1001 1130.5 c 128,-1,41
 974 1041 974 1041 928.5 966.5 c 128,-1,42
 883 892 883 892 822 830.5 c 128,-1,43
 761 769 761 769 694 719 c 1,44,45
 764 707 764 707 835.5 678.5 c 128,-1,46
 907 650 907 650 964.5 600.5 c 128,-1,47
 1022 551 1022 551 1058 479.5 c 128,-1,48
 1094 408 1094 408 1094 311 c 0,49,50
 1094 191 1094 191 1053 90.5 c 128,-1,51
 1012 -10 1012 -10 944.5 -92.5 c 128,-1,52
 877 -175 877 -175 790 -240 c 128,-1,53
 703 -305 703 -305 611 -354 c 128,-1,54
 519 -403 519 -403 428 -436.5 c 128,-1,55
 337 -470 337 -470 263 -489 c 1,56,-1
 220 -403 l 1,0,1
EndSplineSet
EndChar

StartChar: four
Encoding: 52 52 62
Width: 1533
Flags: W
LayerCount: 2
Fore
SplineSet
75 304 m 1,0,-1
 1068 1645 l 1,1,-1
 1068 376 l 1,2,-1
 1161 376 l 2,3,4
 1203 376 1203 376 1233 388 c 128,-1,5
 1263 400 1263 400 1286.5 425.5 c 128,-1,6
 1310 451 1310 451 1329 491 c 128,-1,7
 1348 531 1348 531 1369 587 c 1,8,-1
 1467 587 l 1,9,-1
 1379 153 l 1,10,-1
 1283 153 l 1,11,12
 1277 188 1277 188 1256.5 209.5 c 128,-1,13
 1236 231 1236 231 1207 231 c 2,14,-1
 1030 231 l 1,15,-1
 1030 -509 l 1,16,-1
 885 -509 l 1,17,-1
 885 231 l 1,18,-1
 99 231 l 1,19,-1
 75 304 l 1,0,-1
865 376 m 1,20,-1
 865 1098 l 1,21,-1
 259 376 l 1,22,-1
 865 376 l 1,20,-1
EndSplineSet
EndChar

StartChar: five
Encoding: 53 53 63
Width: 1195
Flags: W
LayerCount: 2
Fore
SplineSet
195 -404 m 1,0,1
 321 -355 321 -355 413.5 -295 c 128,-1,2
 506 -235 506 -235 572 -170.5 c 128,-1,3
 638 -106 638 -106 679 -40 c 128,-1,4
 720 26 720 26 744 86.5 c 128,-1,5
 768 147 768 147 776.5 198.5 c 128,-1,6
 785 250 785 250 785 286 c 0,7,8
 785 365 785 365 757 431.5 c 128,-1,9
 729 498 729 498 681 551 c 128,-1,10
 633 604 633 604 569 643.5 c 128,-1,11
 505 683 505 683 434 710 c 128,-1,12
 363 737 363 737 287.5 750 c 128,-1,13
 212 763 212 763 142 763 c 0,14,15
 130 763 130 763 117.5 762.5 c 128,-1,16
 105 762 105 762 93 761 c 1,17,-1
 345 1328 l 1,18,-1
 775 1328 l 2,19,20
 820 1328 820 1328 851 1342.5 c 128,-1,21
 882 1357 882 1357 905.5 1384 c 128,-1,22
 929 1411 929 1411 946.5 1448 c 128,-1,23
 964 1485 964 1485 982 1530 c 1,24,-1
 1083 1530 l 1,25,-1
 973 1153 l 1,26,-1
 405 1153 l 1,27,-1
 297 923 l 1,28,29
 370 920 370 920 448.5 906 c 128,-1,30
 527 892 527 892 601.5 864 c 128,-1,31
 676 836 676 836 743 792.5 c 128,-1,32
 810 749 810 749 860.5 687 c 128,-1,33
 911 625 911 625 941.5 543 c 128,-1,34
 972 461 972 461 974 357 c 1,35,36
 971 235 971 235 934.5 131 c 128,-1,37
 898 27 898 27 839.5 -60.5 c 128,-1,38
 781 -148 781 -148 706 -218.5 c 128,-1,39
 631 -289 631 -289 550 -342.5 c 128,-1,40
 469 -396 469 -396 388.5 -432.5 c 128,-1,41
 308 -469 308 -469 238 -489 c 1,42,-1
 195 -404 l 1,0,1
EndSplineSet
EndChar

StartChar: six
Encoding: 54 54 64
Width: 1364
Flags: W
LayerCount: 2
Fore
SplineSet
137 623 m 0,0,1
 137 747 137 747 164.5 872.5 c 128,-1,2
 192 998 192 998 245 1114.5 c 128,-1,3
 298 1231 298 1231 376 1335 c 128,-1,4
 454 1439 454 1439 555.5 1521 c 128,-1,5
 657 1603 657 1603 780 1659 c 128,-1,6
 903 1715 903 1715 1047 1736 c 1,7,-1
 1077 1640 l 1,8,9
 951 1615 951 1615 843 1549 c 128,-1,10
 735 1483 735 1483 649 1387 c 128,-1,11
 563 1291 563 1291 501 1170 c 128,-1,12
 439 1049 439 1049 405 914 c 1,13,14
 430 945 430 945 468 970.5 c 128,-1,15
 506 996 506 996 551 1014 c 128,-1,16
 596 1032 596 1032 645 1042 c 128,-1,17
 694 1052 694 1052 741 1052 c 0,18,19
 829 1052 829 1052 900 1029.5 c 128,-1,20
 971 1007 971 1007 1027 968.5 c 128,-1,21
 1083 930 1083 930 1123.5 880 c 128,-1,22
 1164 830 1164 830 1190.5 774.5 c 128,-1,23
 1217 719 1217 719 1230 662 c 128,-1,24
 1243 605 1243 605 1243 553 c 0,25,26
 1243 428 1243 428 1205 322 c 128,-1,27
 1167 216 1167 216 1096.5 139 c 128,-1,28
 1026 62 1026 62 925.5 18 c 128,-1,29
 825 -26 825 -26 699 -26 c 0,30,31
 579 -26 579 -26 476 22.5 c 128,-1,32
 373 71 373 71 298 157.5 c 128,-1,33
 223 244 223 244 180 363 c 128,-1,34
 137 482 137 482 137 623 c 0,0,1
705 73 m 0,35,36
 799 73 799 73 859.5 113.5 c 128,-1,37
 920 154 920 154 955 217.5 c 128,-1,38
 990 281 990 281 1003.5 358 c 128,-1,39
 1017 435 1017 435 1017 509 c 0,40,41
 1017 551 1017 551 1011.5 598 c 128,-1,42
 1006 645 1006 645 992 691 c 128,-1,43
 978 737 978 737 954.5 778.5 c 128,-1,44
 931 820 931 820 895.5 851.5 c 128,-1,45
 860 883 860 883 811 901.5 c 128,-1,46
 762 920 762 920 697 920 c 0,47,48
 647 920 647 920 598 907.5 c 128,-1,49
 549 895 549 895 505.5 872 c 128,-1,50
 462 849 462 849 427.5 816 c 128,-1,51
 393 783 393 783 373 742 c 1,52,53
 373 724 373 724 371.5 710 c 128,-1,54
 370 696 370 696 368.5 682 c 128,-1,55
 367 668 367 668 366 653.5 c 128,-1,56
 365 639 365 639 365 621 c 0,57,58
 365 580 365 580 368.5 524 c 128,-1,59
 372 468 372 468 383.5 407 c 128,-1,60
 395 346 395 346 417.5 286 c 128,-1,61
 440 226 440 226 477.5 179 c 128,-1,62
 515 132 515 132 571 102.5 c 128,-1,63
 627 73 627 73 705 73 c 0,35,36
EndSplineSet
EndChar

StartChar: seven
Encoding: 55 55 65
Width: 1199
Flags: W
LayerCount: 2
Fore
SplineSet
834 1170 m 1,0,-1
 378 1170 l 2,1,2
 325 1170 325 1170 291.5 1155.5 c 128,-1,3
 258 1141 258 1141 234 1115 c 128,-1,4
 210 1089 210 1089 192.5 1052 c 128,-1,5
 175 1015 175 1015 155 970 c 1,6,-1
 56 970 l 1,7,-1
 168 1342 l 1,8,-1
 1070 1342 l 1,9,-1
 1107 1291 l 1,10,-1
 493 -497 l 1,11,-1
 389 -472 l 1,12,-1
 834 1170 l 1,0,-1
EndSplineSet
EndChar

StartChar: eight
Encoding: 56 56 66
Width: 1364
Flags: W
LayerCount: 2
Fore
SplineSet
148 399 m 0,0,1
 148 571 148 571 236.5 691 c 128,-1,2
 325 811 325 811 510 891 c 1,3,4
 424 947 424 947 368.5 1001 c 128,-1,5
 313 1055 313 1055 281 1109.5 c 128,-1,6
 249 1164 249 1164 237 1220 c 128,-1,7
 225 1276 225 1276 225 1338 c 0,8,9
 225 1432 225 1432 266.5 1503.5 c 128,-1,10
 308 1575 308 1575 374.5 1623 c 128,-1,11
 441 1671 441 1671 523.5 1695.5 c 128,-1,12
 606 1720 606 1720 688 1720 c 0,13,14
 805 1720 805 1720 892.5 1686 c 128,-1,15
 980 1652 980 1652 1038 1597 c 128,-1,16
 1096 1542 1096 1542 1124.5 1472.5 c 128,-1,17
 1153 1403 1153 1403 1153 1333 c 0,18,19
 1153 1258 1153 1258 1126 1196 c 128,-1,20
 1099 1134 1099 1134 1056 1083.5 c 128,-1,21
 1013 1033 1013 1033 959 994 c 128,-1,22
 905 955 905 955 850 926 c 1,23,24
 978 855 978 855 1051 791.5 c 128,-1,25
 1124 728 1124 728 1160 667.5 c 128,-1,26
 1196 607 1196 607 1204.5 548 c 128,-1,27
 1213 489 1213 489 1213 426 c 0,28,29
 1213 393 1213 393 1204.5 346.5 c 128,-1,30
 1196 300 1196 300 1174.5 250 c 128,-1,31
 1153 200 1153 200 1115.5 151 c 128,-1,32
 1078 102 1078 102 1020.5 63 c 128,-1,33
 963 24 963 24 883 0 c 128,-1,34
 803 -24 803 -24 695 -24 c 0,35,36
 566 -24 566 -24 464.5 14 c 128,-1,37
 363 52 363 52 292.5 112.5 c 128,-1,38
 222 173 222 173 185 248.5 c 128,-1,39
 148 324 148 324 148 399 c 0,0,1
764 975 m 1,40,41
 796 1003 796 1003 828 1037.5 c 128,-1,42
 860 1072 860 1072 885 1117 c 128,-1,43
 910 1162 910 1162 925.5 1218 c 128,-1,44
 941 1274 941 1274 941 1346 c 0,45,46
 941 1392 941 1392 927 1440.5 c 128,-1,47
 913 1489 913 1489 881.5 1528.5 c 128,-1,48
 850 1568 850 1568 799.5 1593 c 128,-1,49
 749 1618 749 1618 676 1618 c 0,50,51
 607 1618 607 1618 556 1599.5 c 128,-1,52
 505 1581 505 1581 471.5 1550.5 c 128,-1,53
 438 1520 438 1520 421 1481 c 128,-1,54
 404 1442 404 1442 404 1402 c 0,55,56
 404 1337 404 1337 434.5 1277.5 c 128,-1,57
 465 1218 465 1218 515 1164 c 128,-1,58
 565 1110 565 1110 630 1062.5 c 128,-1,59
 695 1015 695 1015 764 975 c 1,40,41
372 440 m 0,60,61
 372 375 372 375 395.5 311.5 c 128,-1,62
 419 248 419 248 464 197 c 128,-1,63
 509 146 509 146 574 114.5 c 128,-1,64
 639 83 639 83 722 83 c 0,65,66
 787 83 787 83 843 104.5 c 128,-1,67
 899 126 899 126 940 162 c 128,-1,68
 981 198 981 198 1004 245.5 c 128,-1,69
 1027 293 1027 293 1027 345 c 0,70,71
 1027 404 1027 404 1005.5 455.5 c 128,-1,72
 984 507 984 507 948.5 552.5 c 128,-1,73
 913 598 913 598 867.5 637.5 c 128,-1,74
 822 677 822 677 774 711.5 c 128,-1,75
 726 746 726 746 678.5 776 c 128,-1,76
 631 806 631 806 593 833 c 1,77,78
 554 814 554 814 514.5 782.5 c 128,-1,79
 475 751 475 751 443.5 704 c 128,-1,80
 412 657 412 657 392 592 c 128,-1,81
 372 527 372 527 372 440 c 0,60,61
EndSplineSet
EndChar

StartChar: nine
Encoding: 57 57 67
Width: 1361
Flags: W
LayerCount: 2
Fore
SplineSet
303 -306 m 1,0,1
 429 -282 429 -282 537 -218.5 c 128,-1,2
 645 -155 645 -155 730.5 -61 c 128,-1,3
 816 33 816 33 878 151.5 c 128,-1,4
 940 270 940 270 975 405 c 1,5,6
 908 350 908 350 821 313.5 c 128,-1,7
 734 277 734 277 639 277 c 0,8,9
 551 277 551 277 480 300.5 c 128,-1,10
 409 324 409 324 353 363 c 128,-1,11
 297 402 297 402 256.5 453.5 c 128,-1,12
 216 505 216 505 189.5 562 c 128,-1,13
 163 619 163 619 150 676.5 c 128,-1,14
 137 734 137 734 137 786 c 0,15,16
 137 910 137 910 175.5 1014.5 c 128,-1,17
 214 1119 214 1119 285.5 1195 c 128,-1,18
 357 1271 357 1271 458.5 1313 c 128,-1,19
 560 1355 560 1355 685 1355 c 0,20,21
 805 1355 805 1355 907.5 1309.5 c 128,-1,22
 1010 1264 1010 1264 1084.5 1181.5 c 128,-1,23
 1159 1099 1159 1099 1201 983 c 128,-1,24
 1243 867 1243 867 1243 726 c 0,25,26
 1243 602 1243 602 1215.5 476 c 128,-1,27
 1188 350 1188 350 1135 230.5 c 128,-1,28
 1082 111 1082 111 1004 4 c 128,-1,29
 926 -103 926 -103 824.5 -187.5 c 128,-1,30
 723 -272 723 -272 600 -329.5 c 128,-1,31
 477 -387 477 -387 333 -407 c 1,32,-1
 303 -306 l 1,0,1
692 399 m 0,33,34
 742 399 742 399 790 413.5 c 128,-1,35
 838 428 838 428 879.5 453.5 c 128,-1,36
 921 479 921 479 954 513.5 c 128,-1,37
 987 548 987 548 1007 587 c 1,38,39
 1012 615 1012 615 1013.5 644 c 128,-1,40
 1015 673 1015 673 1015 708 c 0,41,42
 1015 739 1015 739 1013.5 791.5 c 128,-1,43
 1012 844 1012 844 1002.5 904.5 c 128,-1,44
 993 965 993 965 972.5 1027.5 c 128,-1,45
 952 1090 952 1090 915 1140 c 128,-1,46
 878 1190 878 1190 820.5 1222 c 128,-1,47
 763 1254 763 1254 679 1254 c 0,48,49
 616 1254 616 1254 568.5 1235.5 c 128,-1,50
 521 1217 521 1217 485.5 1185 c 128,-1,51
 450 1153 450 1153 426.5 1110 c 128,-1,52
 403 1067 403 1067 389 1019 c 128,-1,53
 375 971 375 971 369 920 c 128,-1,54
 363 869 363 869 363 820 c 0,55,56
 363 777 363 777 369.5 729.5 c 128,-1,57
 376 682 376 682 391 635.5 c 128,-1,58
 406 589 406 589 430.5 546 c 128,-1,59
 455 503 455 503 492 470.5 c 128,-1,60
 529 438 529 438 578 418.5 c 128,-1,61
 627 399 627 399 692 399 c 0,33,34
EndSplineSet
EndChar

StartChar: period
Encoding: 46 46 68
Width: 512
Flags: W
LayerCount: 2
Fore
SplineSet
257 302 m 1,0,-1
 435 123 l 1,1,-1
 257 -58 l 1,2,-1
 75 123 l 1,3,-1
 257 302 l 1,0,-1
EndSplineSet
EndChar

StartChar: periodcentered
Encoding: 183 183 69
Width: 512
Flags: W
LayerCount: 2
Fore
SplineSet
75 690 m 1,0,-1
 257 869 l 1,1,-1
 435 690 l 1,2,-1
 257 509 l 1,3,-1
 75 690 l 1,0,-1
EndSplineSet
EndChar

StartChar: bullet
Encoding: 8226 8226 70
Width: 1532
Flags: W
LayerCount: 2
Fore
SplineSet
700 464 m 1,0,1
 700 521 700 521 697 577 c 128,-1,2
 694 633 694 633 687.5 684 c 128,-1,3
 681 735 681 735 670 779 c 128,-1,4
 659 823 659 823 643 856 c 0,5,6
 624 894 624 894 589 928.5 c 128,-1,7
 554 963 554 963 510.5 995 c 128,-1,8
 467 1027 467 1027 418.5 1056.5 c 128,-1,9
 370 1086 370 1086 324 1115 c 1,10,-1
 389 1230 l 1,11,12
 439 1201 439 1201 489 1174.5 c 128,-1,13
 539 1148 539 1148 586 1128 c 128,-1,14
 633 1108 633 1108 676.5 1096 c 128,-1,15
 720 1084 720 1084 758 1084 c 0,16,17
 800 1084 800 1084 847 1097 c 128,-1,18
 894 1110 894 1110 943.5 1131 c 128,-1,19
 993 1152 993 1152 1043 1178 c 128,-1,20
 1093 1204 1093 1204 1141 1230 c 1,21,-1
 1208 1116 l 1,22,23
 1158 1087 1158 1087 1110.5 1056.5 c 128,-1,24
 1063 1026 1063 1026 1022 995 c 128,-1,25
 981 964 981 964 948.5 932.5 c 128,-1,26
 916 901 916 901 896 870 c 0,27,28
 872 834 872 834 860 786.5 c 128,-1,29
 848 739 848 739 842.5 686 c 128,-1,30
 837 633 837 633 835.5 576.5 c 128,-1,31
 834 520 834 520 832 465 c 1,32,-1
 700 464 l 1,0,1
EndSplineSet
EndChar

StartChar: comma
Encoding: 44 44 71
Width: 512
Flags: W
LayerCount: 2
Fore
SplineSet
257 302 m 1,0,-1
 435 123 l 1,1,2
 435 117 435 117 435.5 111 c 128,-1,3
 436 105 436 105 436 99 c 0,4,5
 436 46 436 46 419.5 -27 c 128,-1,6
 403 -100 403 -100 370.5 -181 c 128,-1,7
 338 -262 338 -262 288.5 -345 c 128,-1,8
 239 -428 239 -428 173 -503 c 1,9,-1
 96 -450 l 1,10,11
 122 -413 122 -413 142 -370 c 128,-1,12
 162 -327 162 -327 176 -283 c 128,-1,13
 190 -239 190 -239 197.5 -196.5 c 128,-1,14
 205 -154 205 -154 205 -118 c 256,15,16
 205 -82 205 -82 197 -52 c 128,-1,17
 189 -22 189 -22 173.5 6 c 128,-1,18
 158 34 158 34 133.5 62 c 128,-1,19
 109 90 109 90 76 123 c 1,20,-1
 257 302 l 1,0,-1
EndSplineSet
EndChar

StartChar: exclam
Encoding: 33 33 74
Width: 512
Flags: W
LayerCount: 2
Fore
SplineSet
219 409 m 1,0,1
 217 521 217 521 212.5 628 c 128,-1,2
 208 735 208 735 201 840 c 0,3,4
 195 929 195 929 185 1023.5 c 128,-1,5
 175 1118 175 1118 160.5 1208.5 c 128,-1,6
 146 1299 146 1299 127 1381 c 128,-1,7
 108 1463 108 1463 83 1527 c 1,8,-1
 266 1706 l 1,9,-1
 444 1527 l 1,10,11
 420 1463 420 1463 401.5 1381 c 128,-1,12
 383 1299 383 1299 369.5 1208.5 c 128,-1,13
 356 1118 356 1118 347 1023.5 c 128,-1,14
 338 929 338 929 332 840 c 0,15,16
 324 735 324 735 320 628 c 128,-1,17
 316 521 316 521 315 409 c 1,18,-1
 219 409 l 1,0,1
271 302 m 1,19,-1
 449 123 l 1,20,-1
 271 -58 l 1,21,-1
 89 123 l 1,22,-1
 271 302 l 1,19,-1
EndSplineSet
EndChar

StartChar: exclamdown
Encoding: 161 161 75
Width: 512
Flags: W
LayerCount: 2
Fore
SplineSet
99 1539 m 1,0,-1
 278 1720 l 1,1,-1
 459 1539 l 1,2,-1
 278 1361 l 1,3,-1
 99 1539 l 1,0,-1
104 135 m 1,4,5
 128 198 128 198 146 280 c 128,-1,6
 164 362 164 362 177.5 452.5 c 128,-1,7
 191 543 191 543 201 637.5 c 128,-1,8
 211 732 211 732 217 821 c 0,9,10
 224 926 224 926 228.5 1033.5 c 128,-1,11
 233 1141 233 1141 234 1253 c 1,12,-1
 330 1253 l 1,13,14
 333 1029 333 1029 348 821 c 0,15,16
 354 732 354 732 363.5 637.5 c 128,-1,17
 373 543 373 543 387.5 452.5 c 128,-1,18
 402 362 402 362 421 280.5 c 128,-1,19
 440 199 440 199 465 135 c 1,20,-1
 283 -44 l 1,21,-1
 104 135 l 1,4,5
EndSplineSet
EndChar

StartChar: question
Encoding: 63 63 76
Width: 1195
Flags: W
LayerCount: 2
Fore
SplineSet
501 815 m 1,0,-1
 564 815 l 1,1,2
 651 828 651 828 705.5 869 c 128,-1,3
 760 910 760 910 790 967 c 128,-1,4
 820 1024 820 1024 831 1092 c 128,-1,5
 842 1160 842 1160 842 1227 c 0,6,7
 842 1302 842 1302 823 1366.5 c 128,-1,8
 804 1431 804 1431 768 1478.5 c 128,-1,9
 732 1526 732 1526 680.5 1552.5 c 128,-1,10
 629 1579 629 1579 565 1579 c 0,11,12
 494 1579 494 1579 440 1565 c 128,-1,13
 386 1551 386 1551 342.5 1515 c 128,-1,14
 299 1479 299 1479 263.5 1416 c 128,-1,15
 228 1353 228 1353 195 1255 c 1,16,-1
 82 1255 l 1,17,-1
 203 1756 l 1,18,-1
 318 1756 l 1,19,20
 320 1719 320 1719 342.5 1697.5 c 128,-1,21
 365 1676 365 1676 392 1676 c 0,22,23
 440 1676 440 1676 488 1681.5 c 128,-1,24
 536 1687 536 1687 588 1687 c 0,25,26
 689 1687 689 1687 778.5 1659.5 c 128,-1,27
 868 1632 868 1632 935.5 1577 c 128,-1,28
 1003 1522 1003 1522 1042 1439.5 c 128,-1,29
 1081 1357 1081 1357 1081 1246 c 0,30,31
 1081 1149 1081 1149 1051 1062 c 128,-1,32
 1021 975 1021 975 966 905.5 c 128,-1,33
 911 836 911 836 833 787 c 128,-1,34
 755 738 755 738 660 718 c 1,35,-1
 637 428 l 1,36,-1
 541 428 l 1,37,-1
 501 815 l 1,0,-1
589 302 m 1,38,-1
 767 123 l 1,39,-1
 589 -58 l 1,40,-1
 407 123 l 1,41,-1
 589 302 l 1,38,-1
EndSplineSet
EndChar

StartChar: quoteleft
Encoding: 8216 8216 78
Width: 512
Flags: W
LayerCount: 2
Fore
SplineSet
95 1079 m 1,0,1
 99 1144 99 1144 114.5 1220.5 c 128,-1,2
 130 1297 130 1297 160.5 1378 c 128,-1,3
 191 1459 191 1459 239.5 1542.5 c 128,-1,4
 288 1626 288 1626 358 1705 c 1,5,-1
 435 1652 l 1,6,7
 383 1577 383 1577 354.5 1503.5 c 128,-1,8
 326 1430 326 1430 326 1358 c 0,9,10
 326 1285 326 1285 357 1215 c 128,-1,11
 388 1145 388 1145 454 1079 c 1,12,-1
 274 901 l 1,13,-1
 95 1079 l 1,0,1
EndSplineSet
EndChar

StartChar: quotesingle
Encoding: 39 39 82
Width: 512
Flags: W
LayerCount: 2
Fore
SplineSet
231 895 m 1,0,1
 229 958 229 958 224.5 1018.5 c 128,-1,2
 220 1079 220 1079 212 1139 c 0,3,4
 205 1189 205 1189 194.5 1242.5 c 128,-1,5
 184 1296 184 1296 170 1347 c 128,-1,6
 156 1398 156 1398 136.5 1444.5 c 128,-1,7
 117 1491 117 1491 92 1527 c 1,8,-1
 278 1706 l 1,9,-1
 460 1527 l 1,10,11
 420 1467 420 1467 395.5 1388.5 c 128,-1,12
 371 1310 371 1310 357 1225.5 c 128,-1,13
 343 1141 343 1141 337 1055.5 c 128,-1,14
 331 970 331 970 328 895 c 1,15,-1
 231 895 l 1,0,1
EndSplineSet
EndChar

StartChar: quotedbl
Encoding: 34 34 84
Width: 1025
Flags: W
LayerCount: 2
Fore
SplineSet
716 895 m 1,0,1
 714 970 714 970 708 1055 c 128,-1,2
 702 1140 702 1140 687.5 1224.5 c 128,-1,3
 673 1309 673 1309 647 1387.5 c 128,-1,4
 621 1466 621 1466 580 1527 c 1,5,-1
 763 1706 l 1,6,-1
 942 1527 l 1,7,8
 903 1466 903 1466 878.5 1388 c 128,-1,9
 854 1310 854 1310 840 1225.5 c 128,-1,10
 826 1141 826 1141 820.5 1055.5 c 128,-1,11
 815 970 815 970 813 895 c 1,12,-1
 716 895 l 1,0,1
231 895 m 1,13,14
 229 970 229 970 223 1055 c 128,-1,15
 217 1140 217 1140 202.5 1224.5 c 128,-1,16
 188 1309 188 1309 162 1387.5 c 128,-1,17
 136 1466 136 1466 95 1527 c 1,18,-1
 278 1706 l 1,19,-1
 457 1527 l 1,20,21
 418 1466 418 1466 393.5 1388 c 128,-1,22
 369 1310 369 1310 355 1225.5 c 128,-1,23
 341 1141 341 1141 335.5 1055.5 c 128,-1,24
 330 970 330 970 328 895 c 1,25,-1
 231 895 l 1,13,14
EndSplineSet
EndChar

StartChar: guilsinglleft
Encoding: 8249 8249 86
Width: 1025
Flags: W
LayerCount: 2
Fore
SplineSet
761 1209 m 1,0,-1
 836 1156 l 1,1,-1
 479 651 l 1,2,-1
 836 148 l 1,3,-1
 761 95 l 1,4,-1
 149 651 l 1,5,-1
 761 1209 l 1,0,-1
EndSplineSet
EndChar

StartChar: guilsinglright
Encoding: 8250 8250 87
Width: 1025
Flags: W
LayerCount: 2
Fore
SplineSet
546 651 m 1,0,-1
 189 1156 l 1,1,-1
 264 1209 l 1,2,-1
 876 651 l 1,3,-1
 264 95 l 1,4,-1
 189 148 l 1,5,-1
 546 651 l 1,0,-1
EndSplineSet
EndChar

StartChar: guillemotleft
Encoding: 171 171 88
Width: 1533
Flags: W
LayerCount: 2
Fore
SplineSet
1327 1209 m 1,0,-1
 1402 1156 l 1,1,-1
 1045 651 l 1,2,-1
 1402 148 l 1,3,-1
 1327 95 l 1,4,-1
 715 651 l 1,5,-1
 1327 1209 l 1,0,-1
762 1209 m 1,6,-1
 837 1156 l 1,7,-1
 480 651 l 1,8,-1
 837 148 l 1,9,-1
 762 95 l 1,10,-1
 150 651 l 1,11,-1
 762 1209 l 1,6,-1
EndSplineSet
EndChar

StartChar: guillemotright
Encoding: 187 187 89
Width: 1533
Flags: W
LayerCount: 2
Fore
SplineSet
1082 651 m 1,0,-1
 724 1156 l 1,1,-1
 799 1209 l 1,2,-1
 1411 651 l 1,3,-1
 799 95 l 1,4,-1
 724 148 l 1,5,-1
 1082 651 l 1,0,-1
517 651 m 1,6,-1
 159 1156 l 1,7,-1
 234 1209 l 1,8,-1
 846 651 l 1,9,-1
 234 95 l 1,10,-1
 159 148 l 1,11,-1
 517 651 l 1,6,-1
EndSplineSet
EndChar

StartChar: onesuperior
Encoding: 185 185 90
Width: 984
Flags: W
LayerCount: 2
Fore
SplineSet
138 856 m 1,0,1
 199 859 199 859 246 864 c 128,-1,2
 293 869 293 869 325 882.5 c 128,-1,3
 357 896 357 896 373.5 920 c 128,-1,4
 390 944 390 944 390 985 c 2,5,-1
 390 1620 l 2,6,7
 390 1672 390 1672 381.5 1704.5 c 128,-1,8
 373 1737 373 1737 346 1755.5 c 128,-1,9
 319 1774 319 1774 269.5 1780.5 c 128,-1,10
 220 1787 220 1787 138 1787 c 1,11,-1
 138 1871 l 1,12,-1
 590 1871 l 1,13,-1
 590 985 l 2,14,15
 590 944 590 944 607 920 c 128,-1,16
 624 896 624 896 656 883 c 128,-1,17
 688 870 688 870 735.5 865 c 128,-1,18
 783 860 783 860 845 857 c 1,19,-1
 845 776 l 1,20,-1
 138 776 l 1,21,-1
 138 856 l 1,0,1
EndSplineSet
EndChar

StartChar: twosuperior
Encoding: 178 178 91
Width: 1236
Flags: W
LayerCount: 2
Fore
SplineSet
141 832 m 1,0,1
 218 886 218 886 296.5 943.5 c 128,-1,2
 375 1001 375 1001 448 1060 c 128,-1,3
 521 1119 521 1119 584.5 1178.5 c 128,-1,4
 648 1238 648 1238 695.5 1295.5 c 128,-1,5
 743 1353 743 1353 770.5 1407 c 128,-1,6
 798 1461 798 1461 798 1510 c 0,7,8
 798 1546 798 1546 786.5 1584.5 c 128,-1,9
 775 1623 775 1623 747.5 1655 c 128,-1,10
 720 1687 720 1687 675 1707.5 c 128,-1,11
 630 1728 630 1728 564 1728 c 256,12,13
 498 1728 498 1728 444 1705 c 128,-1,14
 390 1682 390 1682 345.5 1640 c 128,-1,15
 301 1598 301 1598 265 1539.5 c 128,-1,16
 229 1481 229 1481 200 1411 c 1,17,-1
 113 1411 l 1,18,-1
 258 1912 l 1,19,-1
 337 1912 l 1,20,21
 337 1874 337 1874 354.5 1853 c 128,-1,22
 372 1832 372 1832 399 1832 c 0,23,24
 411 1832 411 1832 435 1837.5 c 128,-1,25
 459 1843 459 1843 490.5 1849 c 128,-1,26
 522 1855 522 1855 558 1860.5 c 128,-1,27
 594 1866 594 1866 628 1866 c 0,28,29
 702 1866 702 1866 771 1844 c 128,-1,30
 840 1822 840 1822 893.5 1781 c 128,-1,31
 947 1740 947 1740 979 1681.5 c 128,-1,32
 1011 1623 1011 1623 1011 1550 c 0,33,34
 1011 1482 1011 1482 983.5 1420.5 c 128,-1,35
 956 1359 956 1359 893 1291 c 128,-1,36
 830 1223 830 1223 727 1141.5 c 128,-1,37
 624 1060 624 1060 474 952 c 1,38,-1
 798 952 l 2,39,40
 858 952 858 952 901.5 963.5 c 128,-1,41
 945 975 945 975 977.5 1000.5 c 128,-1,42
 1010 1026 1010 1026 1034 1066 c 128,-1,43
 1058 1106 1058 1106 1079 1163 c 1,44,-1
 1167 1163 l 1,45,-1
 1060 702 l 1,46,-1
 973 702 l 1,47,48
 966 739 966 739 944 759.5 c 128,-1,49
 922 780 922 780 891 780 c 2,50,-1
 152 780 l 1,51,-1
 141 832 l 1,0,1
EndSplineSet
EndChar

StartChar: threesuperior
Encoding: 179 179 92
Width: 1185
Flags: W
LayerCount: 2
Fore
SplineSet
209 854 m 1,0,1
 239 830 239 830 278.5 810.5 c 128,-1,2
 318 791 318 791 363 777 c 128,-1,3
 408 763 408 763 456.5 755 c 128,-1,4
 505 747 505 747 553 747 c 0,5,6
 618 747 618 747 679 763 c 128,-1,7
 740 779 740 779 786.5 811.5 c 128,-1,8
 833 844 833 844 861 892 c 128,-1,9
 889 940 889 940 889 1003 c 0,10,11
 889 1040 889 1040 868.5 1080.5 c 128,-1,12
 848 1121 848 1121 809.5 1155 c 128,-1,13
 771 1189 771 1189 715 1211 c 128,-1,14
 659 1233 659 1233 588 1233 c 2,15,-1
 577 1233 l 1,16,17
 551 1219 551 1219 525 1208 c 128,-1,18
 499 1197 499 1197 475 1187 c 1,19,-1
 436 1274 l 1,20,21
 522 1307 522 1307 590 1352 c 128,-1,22
 658 1397 658 1397 708 1449 c 128,-1,23
 758 1501 758 1501 789 1556.5 c 128,-1,24
 820 1612 820 1612 832 1666 c 1,25,-1
 451 1666 l 2,26,27
 406 1666 406 1666 375 1650.5 c 128,-1,28
 344 1635 344 1635 320 1607.5 c 128,-1,29
 296 1580 296 1580 277.5 1541.5 c 128,-1,30
 259 1503 259 1503 240 1457 c 1,31,-1
 150 1457 l 1,32,-1
 283 1921 l 1,33,-1
 368 1921 l 1,34,35
 367 1916 367 1916 367 1911.5 c 128,-1,36
 367 1907 367 1907 367 1903 c 0,37,38
 367 1869 367 1869 383.5 1855 c 128,-1,39
 400 1841 400 1841 431 1841 c 2,40,-1
 1020 1841 l 1,41,-1
 1020 1798 l 2,42,43
 1020 1731 1020 1731 1002.5 1671 c 128,-1,44
 985 1611 985 1611 954.5 1557.5 c 128,-1,45
 924 1504 924 1504 882 1456.5 c 128,-1,46
 840 1409 840 1409 792 1368 c 1,47,48
 817 1365 817 1365 848.5 1354.5 c 128,-1,49
 880 1344 880 1344 912.5 1325.5 c 128,-1,50
 945 1307 945 1307 976.5 1280.5 c 128,-1,51
 1008 1254 1008 1254 1032 1219.5 c 128,-1,52
 1056 1185 1056 1185 1071 1142.5 c 128,-1,53
 1086 1100 1086 1100 1086 1050 c 0,54,55
 1086 941 1086 941 1043 862.5 c 128,-1,56
 1000 784 1000 784 930 733 c 128,-1,57
 860 682 860 682 770.5 658 c 128,-1,58
 681 634 681 634 588 634 c 0,59,60
 527 634 527 634 466.5 644 c 128,-1,61
 406 654 406 654 351 672 c 128,-1,62
 296 690 296 690 249.5 713.5 c 128,-1,63
 203 737 203 737 170 764 c 1,64,-1
 209 854 l 1,0,1
EndSplineSet
EndChar

StartChar: onequarter
Encoding: 188 188 93
Width: 2694
Flags: W
LayerCount: 2
Fore
SplineSet
1486 1972 m 1,0,-1
 1637 1972 l 1,1,-1
 874 -352 l 1,2,-1
 720 -352 l 1,3,-1
 1486 1972 l 1,0,-1
2190 1449 m 1,4,-1
 2190 347 l 1,5,-1
 2174 347 l 2,6,7
 2231 347 2231 347 2272 359 c 128,-1,8
 2313 371 2313 371 2343.5 397 c 128,-1,9
 2374 423 2374 423 2397.5 463 c 128,-1,10
 2421 503 2421 503 2442 559 c 1,11,-1
 2531 559 l 1,12,-1
 2432 125 l 1,13,-1
 2345 125 l 1,14,15
 2339 160 2339 160 2318.5 181.5 c 128,-1,16
 2298 203 2298 203 2269 203 c 2,17,-1
 2147 203 l 1,18,-1
 2147 -192 l 1,19,-1
 2018 -192 l 1,20,-1
 2018 203 l 1,21,-1
 1372 203 l 1,22,-1
 1346 277 l 1,23,-1
 2190 1449 l 1,4,-1
2000 347 m 1,24,-1
 2000 901 l 1,25,-1
 1563 347 l 1,26,-1
 2000 347 l 1,24,-1
161 857 m 1,27,28
 222 860 222 860 269 865 c 128,-1,29
 316 870 316 870 348 883.5 c 128,-1,30
 380 897 380 897 396.5 921 c 128,-1,31
 413 945 413 945 413 986 c 2,32,-1
 413 1621 l 2,33,34
 413 1673 413 1673 404.5 1705.5 c 128,-1,35
 396 1738 396 1738 369 1756.5 c 128,-1,36
 342 1775 342 1775 292.5 1781.5 c 128,-1,37
 243 1788 243 1788 161 1788 c 1,38,-1
 161 1872 l 1,39,-1
 613 1872 l 1,40,-1
 613 986 l 2,41,42
 613 945 613 945 630 921 c 128,-1,43
 647 897 647 897 679 884 c 128,-1,44
 711 871 711 871 758.5 866 c 128,-1,45
 806 861 806 861 868 858 c 1,46,-1
 868 777 l 1,47,-1
 161 777 l 1,48,-1
 161 857 l 1,27,28
EndSplineSet
EndChar

StartChar: onehalf
Encoding: 189 189 94
Width: 2649
Flags: W
LayerCount: 2
Fore
SplineSet
1447 1970 m 1,0,-1
 1598 1970 l 1,1,-1
 835 -354 l 1,2,-1
 681 -354 l 1,3,-1
 1447 1970 l 1,0,-1
160 857 m 1,4,5
 221 860 221 860 268 865 c 128,-1,6
 315 870 315 870 347 883.5 c 128,-1,7
 379 897 379 897 395.5 921 c 128,-1,8
 412 945 412 945 412 986 c 2,9,-1
 412 1621 l 2,10,11
 412 1673 412 1673 403.5 1705.5 c 128,-1,12
 395 1738 395 1738 368 1756.5 c 128,-1,13
 341 1775 341 1775 291.5 1781.5 c 128,-1,14
 242 1788 242 1788 160 1788 c 1,15,-1
 160 1872 l 1,16,-1
 612 1872 l 1,17,-1
 612 986 l 2,18,19
 612 945 612 945 629 921 c 128,-1,20
 646 897 646 897 678 884 c 128,-1,21
 710 871 710 871 757.5 866 c 128,-1,22
 805 861 805 861 867 858 c 1,23,-1
 867 777 l 1,24,-1
 160 777 l 1,25,-1
 160 857 l 1,4,5
1461 54 m 1,26,27
 1538 108 1538 108 1616.5 165.5 c 128,-1,28
 1695 223 1695 223 1768 282 c 128,-1,29
 1841 341 1841 341 1904.5 400.5 c 128,-1,30
 1968 460 1968 460 2015.5 517.5 c 128,-1,31
 2063 575 2063 575 2090.5 629 c 128,-1,32
 2118 683 2118 683 2118 732 c 0,33,34
 2118 768 2118 768 2106.5 806.5 c 128,-1,35
 2095 845 2095 845 2067.5 877 c 128,-1,36
 2040 909 2040 909 1995 929.5 c 128,-1,37
 1950 950 1950 950 1884 950 c 256,38,39
 1818 950 1818 950 1764 927 c 128,-1,40
 1710 904 1710 904 1665.5 862 c 128,-1,41
 1621 820 1621 820 1585 761.5 c 128,-1,42
 1549 703 1549 703 1520 633 c 1,43,-1
 1433 633 l 1,44,-1
 1578 1134 l 1,45,-1
 1657 1134 l 1,46,47
 1657 1096 1657 1096 1674.5 1075 c 128,-1,48
 1692 1054 1692 1054 1719 1054 c 0,49,50
 1731 1054 1731 1054 1755 1059.5 c 128,-1,51
 1779 1065 1779 1065 1810.5 1071 c 128,-1,52
 1842 1077 1842 1077 1878 1082.5 c 128,-1,53
 1914 1088 1914 1088 1948 1088 c 0,54,55
 2022 1088 2022 1088 2091 1066 c 128,-1,56
 2160 1044 2160 1044 2213.5 1003 c 128,-1,57
 2267 962 2267 962 2299 903.5 c 128,-1,58
 2331 845 2331 845 2331 772 c 0,59,60
 2331 704 2331 704 2303.5 642.5 c 128,-1,61
 2276 581 2276 581 2213 513 c 128,-1,62
 2150 445 2150 445 2047 363.5 c 128,-1,63
 1944 282 1944 282 1794 174 c 1,64,-1
 2118 174 l 2,65,66
 2178 174 2178 174 2221.5 185.5 c 128,-1,67
 2265 197 2265 197 2297.5 222.5 c 128,-1,68
 2330 248 2330 248 2354 288 c 128,-1,69
 2378 328 2378 328 2399 385 c 1,70,-1
 2487 385 l 1,71,-1
 2380 -76 l 1,72,-1
 2293 -76 l 1,73,74
 2286 -39 2286 -39 2264 -18.5 c 128,-1,75
 2242 2 2242 2 2211 2 c 2,76,-1
 1472 2 l 1,77,-1
 1461 54 l 1,26,27
EndSplineSet
EndChar

StartChar: threequarters
Encoding: 190 190 95
Width: 2865
Flags: W
LayerCount: 2
Fore
SplineSet
1653 1970 m 1,0,-1
 1805 1970 l 1,1,-1
 1041 -354 l 1,2,-1
 888 -354 l 1,3,-1
 1653 1970 l 1,0,-1
2362 1449 m 1,4,-1
 2362 347 l 1,5,-1
 2344 347 l 2,6,7
 2401 347 2401 347 2442.5 359 c 128,-1,8
 2484 371 2484 371 2515 397 c 128,-1,9
 2546 423 2546 423 2569.5 463 c 128,-1,10
 2593 503 2593 503 2614 559 c 1,11,-1
 2702 559 l 1,12,-1
 2603 125 l 1,13,-1
 2516 125 l 1,14,15
 2510 160 2510 160 2489.5 181.5 c 128,-1,16
 2469 203 2469 203 2441 203 c 2,17,-1
 2318 203 l 1,18,-1
 2318 -192 l 1,19,-1
 2189 -192 l 1,20,-1
 2189 203 l 1,21,-1
 1543 203 l 1,22,-1
 1517 277 l 1,23,-1
 2362 1449 l 1,4,-1
2171 347 m 1,24,-1
 2171 901 l 1,25,-1
 1733 347 l 1,26,-1
 2171 347 l 1,24,-1
219 855 m 1,27,28
 249 831 249 831 288.5 811.5 c 128,-1,29
 328 792 328 792 373 778 c 128,-1,30
 418 764 418 764 466.5 756 c 128,-1,31
 515 748 515 748 563 748 c 0,32,33
 628 748 628 748 689 764 c 128,-1,34
 750 780 750 780 796.5 812.5 c 128,-1,35
 843 845 843 845 871 893 c 128,-1,36
 899 941 899 941 899 1004 c 0,37,38
 899 1041 899 1041 878.5 1081.5 c 128,-1,39
 858 1122 858 1122 819.5 1156 c 128,-1,40
 781 1190 781 1190 725 1212 c 128,-1,41
 669 1234 669 1234 598 1234 c 2,42,-1
 587 1234 l 1,43,44
 561 1220 561 1220 535 1209 c 128,-1,45
 509 1198 509 1198 485 1188 c 1,46,-1
 446 1275 l 1,47,48
 532 1308 532 1308 600 1353 c 128,-1,49
 668 1398 668 1398 718 1450 c 128,-1,50
 768 1502 768 1502 799 1557.5 c 128,-1,51
 830 1613 830 1613 842 1667 c 1,52,-1
 461 1667 l 2,53,54
 416 1667 416 1667 385 1651.5 c 128,-1,55
 354 1636 354 1636 330 1608.5 c 128,-1,56
 306 1581 306 1581 287.5 1542.5 c 128,-1,57
 269 1504 269 1504 250 1458 c 1,58,-1
 160 1458 l 1,59,-1
 293 1922 l 1,60,-1
 378 1922 l 1,61,62
 377 1917 377 1917 377 1912.5 c 128,-1,63
 377 1908 377 1908 377 1904 c 0,64,65
 377 1870 377 1870 393.5 1856 c 128,-1,66
 410 1842 410 1842 441 1842 c 2,67,-1
 1030 1842 l 1,68,-1
 1030 1799 l 2,69,70
 1030 1732 1030 1732 1012.5 1672 c 128,-1,71
 995 1612 995 1612 964.5 1558.5 c 128,-1,72
 934 1505 934 1505 892 1457.5 c 128,-1,73
 850 1410 850 1410 802 1369 c 1,74,75
 827 1366 827 1366 858.5 1355.5 c 128,-1,76
 890 1345 890 1345 922.5 1326.5 c 128,-1,77
 955 1308 955 1308 986.5 1281.5 c 128,-1,78
 1018 1255 1018 1255 1042 1220.5 c 128,-1,79
 1066 1186 1066 1186 1081 1143.5 c 128,-1,80
 1096 1101 1096 1101 1096 1051 c 0,81,82
 1096 942 1096 942 1053 863.5 c 128,-1,83
 1010 785 1010 785 940 734 c 128,-1,84
 870 683 870 683 780.5 659 c 128,-1,85
 691 635 691 635 598 635 c 0,86,87
 537 635 537 635 476.5 645 c 128,-1,88
 416 655 416 655 361 673 c 128,-1,89
 306 691 306 691 259.5 714.5 c 128,-1,90
 213 738 213 738 180 765 c 1,91,-1
 219 855 l 1,27,28
EndSplineSet
EndChar

StartChar: ordfeminine
Encoding: 170 170 96
Width: 1189
Flags: W
LayerCount: 2
Fore
SplineSet
515 773 m 0,0,1
 421 773 421 773 354 794.5 c 128,-1,2
 287 816 287 816 244.5 852 c 128,-1,3
 202 888 202 888 182 934 c 128,-1,4
 162 980 162 980 162 1028 c 0,5,6
 162 1074 162 1074 192 1128.5 c 128,-1,7
 222 1183 222 1183 289 1231.5 c 128,-1,8
 356 1280 356 1280 463.5 1314 c 128,-1,9
 571 1348 571 1348 726 1353 c 1,10,-1
 726 1486 l 2,11,12
 726 1550 726 1550 686 1584.5 c 128,-1,13
 646 1619 646 1619 565 1619 c 0,14,15
 495 1619 495 1619 450 1590 c 128,-1,16
 405 1561 405 1561 405 1512 c 0,17,18
 405 1495 405 1495 415.5 1474.5 c 128,-1,19
 426 1454 426 1454 440 1437 c 1,20,-1
 375 1390 l 1,21,22
 354 1395 354 1395 329.5 1406 c 128,-1,23
 305 1417 305 1417 284.5 1434 c 128,-1,24
 264 1451 264 1451 250 1473.5 c 128,-1,25
 236 1496 236 1496 236 1525 c 0,26,27
 236 1567 236 1567 262 1603 c 128,-1,28
 288 1639 288 1639 335 1664.5 c 128,-1,29
 382 1690 382 1690 448 1704.5 c 128,-1,30
 514 1719 514 1719 594 1719 c 0,31,32
 760 1719 760 1719 836 1653 c 128,-1,33
 912 1587 912 1587 912 1471 c 2,34,-1
 912 1001 l 2,35,36
 912 966 912 966 916 945.5 c 128,-1,37
 920 925 920 925 932 914 c 128,-1,38
 944 903 944 903 966.5 899 c 128,-1,39
 989 895 989 895 1027 892 c 1,40,-1
 1027 791 l 1,41,-1
 828 791 l 2,42,43
 789 791 789 791 751.5 788 c 128,-1,44
 714 785 714 785 675.5 782 c 128,-1,45
 637 779 637 779 597 776 c 128,-1,46
 557 773 557 773 515 773 c 0,0,1
572 875 m 0,47,48
 622 875 622 875 652.5 881.5 c 128,-1,49
 683 888 683 888 699.5 904 c 128,-1,50
 716 920 716 920 721 946.5 c 128,-1,51
 726 973 726 973 726 1013 c 2,52,-1
 726 1253 l 1,53,54
 656 1248 656 1248 591.5 1234.5 c 128,-1,55
 527 1221 527 1221 477 1194.5 c 128,-1,56
 427 1168 427 1168 397 1127.5 c 128,-1,57
 367 1087 367 1087 367 1028 c 0,58,59
 367 999 367 999 381.5 971.5 c 128,-1,60
 396 944 396 944 423 922.5 c 128,-1,61
 450 901 450 901 487.5 888 c 128,-1,62
 525 875 525 875 572 875 c 0,47,48
629 580 m 1,63,-1
 807 401 l 1,64,-1
 629 220 l 1,65,-1
 447 401 l 1,66,-1
 629 580 l 1,63,-1
EndSplineSet
EndChar

StartChar: ordmasculine
Encoding: 186 186 97
Width: 1189
Flags: W
LayerCount: 2
Fore
SplineSet
594 772 m 0,0,1
 483 772 483 772 400 813 c 128,-1,2
 317 854 317 854 261.5 921 c 128,-1,3
 206 988 206 988 178.5 1073 c 128,-1,4
 151 1158 151 1158 151 1245 c 0,5,6
 151 1333 151 1333 179 1418.5 c 128,-1,7
 207 1504 207 1504 262.5 1570.5 c 128,-1,8
 318 1637 318 1637 401 1678 c 128,-1,9
 484 1719 484 1719 594 1719 c 256,10,11
 704 1719 704 1719 787.5 1678 c 128,-1,12
 871 1637 871 1637 926.5 1570.5 c 128,-1,13
 982 1504 982 1504 1010 1418.5 c 128,-1,14
 1038 1333 1038 1333 1038 1245 c 0,15,16
 1038 1155 1038 1155 1010 1070 c 128,-1,17
 982 985 982 985 926.5 918.5 c 128,-1,18
 871 852 871 852 787.5 812 c 128,-1,19
 704 772 704 772 594 772 c 0,0,1
596 874 m 0,20,21
 669 874 669 874 715.5 908 c 128,-1,22
 762 942 762 942 789 995 c 128,-1,23
 816 1048 816 1048 826.5 1114 c 128,-1,24
 837 1180 837 1180 837 1245 c 0,25,26
 837 1312 837 1312 826.5 1378.5 c 128,-1,27
 816 1445 816 1445 789 1498.5 c 128,-1,28
 762 1552 762 1552 715.5 1585.5 c 128,-1,29
 669 1619 669 1619 596 1619 c 0,30,31
 522 1619 522 1619 475 1584.5 c 128,-1,32
 428 1550 428 1550 401 1496 c 128,-1,33
 374 1442 374 1442 364 1375.5 c 128,-1,34
 354 1309 354 1309 354 1245 c 256,35,36
 354 1181 354 1181 364 1115 c 128,-1,37
 374 1049 374 1049 401 995.5 c 128,-1,38
 428 942 428 942 475 908 c 128,-1,39
 522 874 522 874 596 874 c 0,20,21
592 580 m 1,40,-1
 770 401 l 1,41,-1
 592 220 l 1,42,-1
 410 401 l 1,43,-1
 592 580 l 1,40,-1
EndSplineSet
EndChar

StartChar: degree
Encoding: 176 176 98
Width: 1025
Flags: W
LayerCount: 2
Fore
SplineSet
513 943 m 0,0,1
 434 943 434 943 365.5 972 c 128,-1,2
 297 1001 297 1001 246.5 1051 c 128,-1,3
 196 1101 196 1101 167 1169.5 c 128,-1,4
 138 1238 138 1238 138 1317 c 0,5,6
 138 1395 138 1395 167 1463 c 128,-1,7
 196 1531 196 1531 246.5 1581.5 c 128,-1,8
 297 1632 297 1632 365.5 1661 c 128,-1,9
 434 1690 434 1690 513 1690 c 0,10,11
 591 1690 591 1690 659 1661 c 128,-1,12
 727 1632 727 1632 778 1581.5 c 128,-1,13
 829 1531 829 1531 858 1463 c 128,-1,14
 887 1395 887 1395 887 1317 c 0,15,16
 887 1238 887 1238 858 1169.5 c 128,-1,17
 829 1101 829 1101 778 1051 c 128,-1,18
 727 1001 727 1001 659 972 c 128,-1,19
 591 943 591 943 513 943 c 0,0,1
513 1061 m 0,20,21
 563 1061 563 1061 607 1082 c 128,-1,22
 651 1103 651 1103 683.5 1138.5 c 128,-1,23
 716 1174 716 1174 735 1220 c 128,-1,24
 754 1266 754 1266 754 1317 c 0,25,26
 754 1367 754 1367 735 1413 c 128,-1,27
 716 1459 716 1459 683.5 1494.5 c 128,-1,28
 651 1530 651 1530 607 1551 c 128,-1,29
 563 1572 563 1572 513 1572 c 0,30,31
 462 1572 462 1572 418 1551 c 128,-1,32
 374 1530 374 1530 341.5 1494.5 c 128,-1,33
 309 1459 309 1459 290.5 1413 c 128,-1,34
 272 1367 272 1367 272 1317 c 0,35,36
 272 1266 272 1266 290.5 1220 c 128,-1,37
 309 1174 309 1174 341.5 1138.5 c 128,-1,38
 374 1103 374 1103 418 1082 c 128,-1,39
 462 1061 462 1061 513 1061 c 0,20,21
EndSplineSet
EndChar

StartChar: less
Encoding: 60 60 99
Width: 1360
Flags: W
LayerCount: 2
Fore
SplineSet
142 899 m 1,0,-1
 1147 1366 l 1,1,-1
 1217 1215 l 1,2,-1
 409 839 l 1,3,4
 613 745 613 745 812.5 650.5 c 128,-1,5
 1012 556 1012 556 1217 462 c 1,6,-1
 1147 311 l 1,7,-1
 142 779 l 1,8,-1
 142 899 l 1,0,-1
EndSplineSet
EndChar

StartChar: greater
Encoding: 62 62 100
Width: 1360
Flags: W
LayerCount: 2
Fore
SplineSet
142 462 m 1,0,-1
 950 839 l 1,1,2
 745 933 745 933 546 1027 c 128,-1,3
 347 1121 347 1121 142 1215 c 1,4,-1
 212 1366 l 1,5,-1
 1217 899 l 1,6,-1
 1217 779 l 1,7,-1
 212 311 l 1,8,-1
 142 462 l 1,0,-1
EndSplineSet
EndChar

StartChar: plus
Encoding: 43 43 101
Width: 1360
Flags: W
LayerCount: 2
Fore
SplineSet
616 753 m 1,0,-1
 99 753 l 1,1,-1
 139 919 l 1,2,-1
 616 919 l 1,3,-1
 616 1396 l 1,4,-1
 785 1396 l 1,5,-1
 785 919 l 1,6,-1
 1260 919 l 1,7,-1
 1220 753 l 1,8,-1
 785 753 l 1,9,-1
 785 278 l 1,10,-1
 616 278 l 1,11,-1
 616 753 l 1,0,-1
EndSplineSet
EndChar

StartChar: plusminus
Encoding: 177 177 102
Width: 1360
Flags: W
LayerCount: 2
Fore
SplineSet
616 927 m 1,0,-1
 99 927 l 1,1,-1
 139 1094 l 1,2,-1
 616 1094 l 1,3,-1
 616 1462 l 1,4,-1
 785 1462 l 1,5,-1
 785 1094 l 1,6,-1
 1261 1094 l 1,7,-1
 1220 927 l 1,8,-1
 785 927 l 1,9,-1
 785 611 l 1,10,-1
 616 611 l 1,11,-1
 616 927 l 1,0,-1
139 449 m 1,12,-1
 1261 449 l 1,13,-1
 1220 282 l 1,14,-1
 99 282 l 1,15,-1
 139 449 l 1,12,-1
EndSplineSet
EndChar

StartChar: hyphen
Encoding: 45 45 103
Width: 1360
Flags: W
LayerCount: 2
Fore
SplineSet
292 919 m 1,0,-1
 1108 919 l 1,1,-1
 1065 753 l 1,2,-1
 251 753 l 1,3,-1
 292 919 l 1,0,-1
EndSplineSet
EndChar

StartChar: equal
Encoding: 61 61 104
Width: 1360
Flags: W
LayerCount: 2
Fore
SplineSet
188 1144 m 1,0,-1
 1212 1144 l 1,1,-1
 1171 977 l 1,2,-1
 148 977 l 1,3,-1
 188 1144 l 1,0,-1
188 692 m 1,4,-1
 1212 692 l 1,5,-1
 1171 525 l 1,6,-1
 148 525 l 1,7,-1
 188 692 l 1,4,-1
EndSplineSet
EndChar

StartChar: multiply
Encoding: 215 215 105
Width: 1360
Flags: W
LayerCount: 2
Fore
SplineSet
169 445 m 1,0,-1
 561 837 l 1,1,-1
 169 1229 l 1,2,-1
 288 1348 l 1,3,-1
 680 956 l 1,4,-1
 1071 1348 l 1,5,-1
 1190 1229 l 1,6,-1
 799 837 l 1,7,-1
 1191 446 l 1,8,-1
 1072 327 l 1,9,-1
 680 718 l 1,10,-1
 288 326 l 1,11,-1
 169 445 l 1,0,-1
EndSplineSet
EndChar

StartChar: divide
Encoding: 247 247 106
Width: 1360
Flags: W
LayerCount: 2
Fore
SplineSet
508 1315 m 1,0,-1
 682 1487 l 1,1,-1
 854 1315 l 1,2,-1
 682 1140 l 1,3,-1
 508 1315 l 1,0,-1
139 919 m 1,4,-1
 1261 919 l 1,5,-1
 1220 752 l 1,6,-1
 99 752 l 1,7,-1
 139 919 l 1,4,-1
682 515 m 1,8,-1
 854 343 l 1,9,-1
 682 169 l 1,10,-1
 508 343 l 1,11,-1
 682 515 l 1,8,-1
EndSplineSet
EndChar

StartChar: logicalnot
Encoding: 172 172 107
Width: 1360
Flags: W
LayerCount: 2
Fore
SplineSet
183 1085 m 1,0,-1
 1216 1085 l 1,1,-1
 1216 473 l 1,2,-1
 1048 473 l 1,3,-1
 1048 917 l 1,4,-1
 143 917 l 1,5,-1
 183 1085 l 1,0,-1
EndSplineSet
EndChar

StartChar: mu
Encoding: 181 181 108
AltUni2: 0003bc.ffffffff.0
Width: 1700
Flags: W
LayerCount: 2
Fore
SplineSet
326 909 m 2,0,1
 326 976 326 976 320.5 1016.5 c 128,-1,2
 315 1057 315 1057 299 1079.5 c 128,-1,3
 283 1102 283 1102 255.5 1110.5 c 128,-1,4
 228 1119 228 1119 184 1123 c 1,5,-1
 184 1209 l 1,6,-1
 688 1209 l 1,7,-1
 688 1123 l 1,8,-1
 661 1119 l 2,9,10
 625 1114 625 1114 601 1108 c 128,-1,11
 577 1102 577 1102 562 1088.5 c 128,-1,12
 547 1075 547 1075 539.5 1049.5 c 128,-1,13
 532 1024 532 1024 530 980 c 1,14,-1
 530 535 l 1,15,16
 536 442 536 442 564.5 367.5 c 128,-1,17
 593 293 593 293 636 234 c 128,-1,18
 679 175 679 175 733 130 c 128,-1,19
 787 85 787 85 845 50 c 1,20,21
 907 87 907 87 964 134.5 c 128,-1,22
 1021 182 1021 182 1065 245.5 c 128,-1,23
 1109 309 1109 309 1135 391 c 128,-1,24
 1161 473 1161 473 1161 578 c 2,25,-1
 1161 916 l 2,26,27
 1161 984 1161 984 1156 1022.5 c 128,-1,28
 1151 1061 1151 1061 1137 1080.5 c 128,-1,29
 1123 1100 1123 1100 1097 1107 c 128,-1,30
 1071 1114 1071 1114 1028 1120 c 1,31,-1
 1002 1123 l 1,32,-1
 1002 1209 l 1,33,-1
 1506 1209 l 1,34,-1
 1506 1124 l 1,35,-1
 1504 1123 l 1,36,37
 1460 1119 1460 1119 1433 1110 c 128,-1,38
 1406 1101 1406 1101 1390 1079 c 128,-1,39
 1374 1057 1374 1057 1368.5 1016.5 c 128,-1,40
 1363 976 1363 976 1363 909 c 2,41,-1
 1363 236 l 2,42,43
 1363 190 1363 190 1368.5 162.5 c 128,-1,44
 1374 135 1374 135 1392 119 c 128,-1,45
 1410 103 1410 103 1444 96.5 c 128,-1,46
 1478 90 1478 90 1535 86 c 1,47,-1
 1535 0 l 1,48,-1
 1161 0 l 1,49,-1
 1161 209 l 1,50,51
 1139 166 1139 166 1111 126 c 128,-1,52
 1083 86 1083 86 1045.5 48.5 c 128,-1,53
 1008 11 1008 11 958.5 -23.5 c 128,-1,54
 909 -58 909 -58 845 -90 c 1,55,56
 736 -38 736 -38 659 31 c 128,-1,57
 582 100 582 100 530 185 c 1,58,-1
 530 -329 l 2,59,60
 530 -382 530 -382 539 -410.5 c 128,-1,61
 548 -439 548 -439 570.5 -453.5 c 128,-1,62
 593 -468 593 -468 630.5 -473 c 128,-1,63
 668 -478 668 -478 725 -483 c 1,64,-1
 725 -566 l 1,65,-1
 164 -566 l 1,66,-1
 164 -483 l 1,67,68
 212 -479 212 -479 243.5 -474 c 128,-1,69
 275 -469 275 -469 293 -454 c 128,-1,70
 311 -439 311 -439 318.5 -410 c 128,-1,71
 326 -381 326 -381 326 -329 c 2,72,-1
 326 909 l 2,0,1
EndSplineSet
EndChar

StartChar: percent
Encoding: 37 37 109
Width: 2221
Flags: W
LayerCount: 2
Fore
SplineSet
1449 1543 m 1,0,-1
 1601 1543 l 1,1,-1
 776 -70 l 1,2,-1
 622 -70 l 1,3,-1
 1449 1543 l 1,0,-1
610 673 m 0,4,5
 509 673 509 673 433.5 709 c 128,-1,6
 358 745 358 745 307.5 803.5 c 128,-1,7
 257 862 257 862 232 935.5 c 128,-1,8
 207 1009 207 1009 207 1085 c 0,9,10
 207 1162 207 1162 232.5 1236.5 c 128,-1,11
 258 1311 258 1311 308.5 1369.5 c 128,-1,12
 359 1428 359 1428 434.5 1463.5 c 128,-1,13
 510 1499 510 1499 610 1499 c 256,14,15
 710 1499 710 1499 785.5 1463.5 c 128,-1,16
 861 1428 861 1428 912 1369.5 c 128,-1,17
 963 1311 963 1311 988.5 1236.5 c 128,-1,18
 1014 1162 1014 1162 1014 1085 c 0,19,20
 1014 1007 1014 1007 988.5 933 c 128,-1,21
 963 859 963 859 912 801 c 128,-1,22
 861 743 861 743 785.5 708 c 128,-1,23
 710 673 710 673 610 673 c 0,4,5
613 771 m 0,24,25
 676 771 676 771 716 799.5 c 128,-1,26
 756 828 756 828 779.5 873 c 128,-1,27
 803 918 803 918 812 974 c 128,-1,28
 821 1030 821 1030 821 1085 c 0,29,30
 821 1142 821 1142 812 1198.5 c 128,-1,31
 803 1255 803 1255 779.5 1301 c 128,-1,32
 756 1347 756 1347 716 1375.5 c 128,-1,33
 676 1404 676 1404 613 1404 c 256,34,35
 550 1404 550 1404 509 1374.5 c 128,-1,36
 468 1345 468 1345 445 1298.5 c 128,-1,37
 422 1252 422 1252 413 1195.5 c 128,-1,38
 404 1139 404 1139 404 1085 c 256,39,40
 404 1031 404 1031 412.5 975 c 128,-1,41
 421 919 421 919 444.5 874 c 128,-1,42
 468 829 468 829 508.5 800 c 128,-1,43
 549 771 549 771 613 771 c 0,24,25
1207 357 m 0,44,45
 1207 434 1207 434 1232.5 508.5 c 128,-1,46
 1258 583 1258 583 1309 641.5 c 128,-1,47
 1360 700 1360 700 1435.5 735.5 c 128,-1,48
 1511 771 1511 771 1611 771 c 256,49,50
 1711 771 1711 771 1786.5 735.5 c 128,-1,51
 1862 700 1862 700 1913 641.5 c 128,-1,52
 1964 583 1964 583 1989.5 508.5 c 128,-1,53
 2015 434 2015 434 2015 357 c 0,54,55
 2015 279 2015 279 1989.5 205 c 128,-1,56
 1964 131 1964 131 1913 73 c 128,-1,57
 1862 15 1862 15 1786.5 -20 c 128,-1,58
 1711 -55 1711 -55 1611 -55 c 0,59,60
 1510 -55 1510 -55 1434.5 -19 c 128,-1,61
 1359 17 1359 17 1308.5 75 c 128,-1,62
 1258 133 1258 133 1232.5 207 c 128,-1,63
 1207 281 1207 281 1207 357 c 0,44,45
1404 357 m 256,64,65
 1404 303 1404 303 1412.5 247 c 128,-1,66
 1421 191 1421 191 1444.5 145.5 c 128,-1,67
 1468 100 1468 100 1508.5 70.5 c 128,-1,68
 1549 41 1549 41 1613 41 c 0,69,70
 1676 41 1676 41 1716.5 70 c 128,-1,71
 1757 99 1757 99 1780 144.5 c 128,-1,72
 1803 190 1803 190 1812 246.5 c 128,-1,73
 1821 303 1821 303 1821 357 c 0,74,75
 1821 414 1821 414 1812 470.5 c 128,-1,76
 1803 527 1803 527 1780 572.5 c 128,-1,77
 1757 618 1757 618 1716.5 646.5 c 128,-1,78
 1676 675 1676 675 1613 675 c 256,79,80
 1550 675 1550 675 1509 645.5 c 128,-1,81
 1468 616 1468 616 1445 569.5 c 128,-1,82
 1422 523 1422 523 1413 467 c 128,-1,83
 1404 411 1404 411 1404 357 c 256,64,65
EndSplineSet
EndChar

StartChar: numbersign
Encoding: 35 35 110
Width: 1539
Flags: W
LayerCount: 2
Fore
SplineSet
404 393 m 1,0,-1
 158 393 l 1,1,-1
 198 560 l 1,2,-1
 418 560 l 1,3,-1
 450 940 l 1,4,-1
 182 940 l 1,5,-1
 221 1107 l 1,6,-1
 464 1107 l 1,7,-1
 497 1477 l 1,8,-1
 665 1463 l 1,9,-1
 634 1107 l 1,10,-1
 975 1107 l 1,11,-1
 1008 1477 l 1,12,-1
 1176 1463 l 1,13,-1
 1145 1107 l 1,14,-1
 1381 1107 l 1,15,-1
 1340 940 l 1,16,-1
 1131 940 l 1,17,-1
 1098 560 l 1,18,-1
 1347 560 l 1,19,-1
 1306 393 l 1,20,-1
 1084 393 l 1,21,-1
 1050 -13 l 1,22,-1
 881 1 l 1,23,-1
 915 393 l 1,24,-1
 573 393 l 1,25,-1
 539 -13 l 1,26,-1
 371 1 l 1,27,-1
 404 393 l 1,0,-1
929 560 m 1,28,-1
 961 940 l 1,29,-1
 620 940 l 1,30,-1
 587 560 l 1,31,-1
 929 560 l 1,28,-1
EndSplineSet
EndChar

StartChar: asterisk
Encoding: 42 42 111
Width: 1195
Flags: W
LayerCount: 2
Fore
SplineSet
451 932 m 1,0,1
 474 966 474 966 490.5 1010.5 c 128,-1,2
 507 1055 507 1055 518.5 1104 c 128,-1,3
 530 1153 530 1153 537.5 1202.5 c 128,-1,4
 545 1252 545 1252 549 1295 c 1,5,6
 513 1269 513 1269 474 1238 c 128,-1,7
 435 1207 435 1207 399 1172.5 c 128,-1,8
 363 1138 363 1138 333.5 1101 c 128,-1,9
 304 1064 304 1064 286 1026 c 1,10,-1
 85 1082 l 1,11,-1
 137 1280 l 1,12,-1
 151 1280 l 2,13,14
 192 1280 192 1280 237.5 1288.5 c 128,-1,15
 283 1297 283 1297 329.5 1311 c 128,-1,16
 376 1325 376 1325 420.5 1342.5 c 128,-1,17
 465 1360 465 1360 503 1377 c 1,18,19
 465 1394 465 1394 422 1411 c 128,-1,20
 379 1428 379 1428 334 1442 c 128,-1,21
 289 1456 289 1456 244 1464.5 c 128,-1,22
 199 1473 199 1473 158 1473 c 0,23,24
 153 1473 153 1473 147 1472.5 c 128,-1,25
 141 1472 141 1472 136 1472 c 1,26,-1
 85 1673 l 1,27,-1
 284 1726 l 1,28,29
 302 1690 302 1690 332.5 1653 c 128,-1,30
 363 1616 363 1616 399.5 1581.5 c 128,-1,31
 436 1547 436 1547 475 1516 c 128,-1,32
 514 1485 514 1485 550 1460 c 1,33,34
 546 1503 546 1503 538.5 1552 c 128,-1,35
 531 1601 531 1601 519 1649.5 c 128,-1,36
 507 1698 507 1698 490 1742.5 c 128,-1,37
 473 1787 473 1787 449 1822 c 1,38,-1
 598 1968 l 1,39,-1
 743 1822 l 1,40,41
 720 1787 720 1787 703.5 1742 c 128,-1,42
 687 1697 687 1697 675 1648.5 c 128,-1,43
 663 1600 663 1600 655.5 1551 c 128,-1,44
 648 1502 648 1502 644 1460 c 1,45,46
 679 1485 679 1485 718 1516 c 128,-1,47
 757 1547 757 1547 793.5 1581.5 c 128,-1,48
 830 1616 830 1616 860 1653 c 128,-1,49
 890 1690 890 1690 908 1728 c 1,50,-1
 1109 1672 l 1,51,-1
 1057 1475 l 1,52,-1
 1042 1475 l 2,53,54
 1001 1475 1001 1475 955 1466.5 c 128,-1,55
 909 1458 909 1458 863 1444 c 128,-1,56
 817 1430 817 1430 773 1412.5 c 128,-1,57
 729 1395 729 1395 690 1377 c 1,58,59
 728 1360 728 1360 771 1343 c 128,-1,60
 814 1326 814 1326 859 1312.5 c 128,-1,61
 904 1299 904 1299 949 1290.5 c 128,-1,62
 994 1282 994 1282 1035 1282 c 0,63,64
 1041 1282 1041 1282 1046.5 1282 c 128,-1,65
 1052 1282 1052 1282 1058 1283 c 1,66,-1
 1109 1081 l 1,67,-1
 910 1028 l 1,68,69
 891 1064 891 1064 860 1100.5 c 128,-1,70
 829 1137 829 1137 793 1171.5 c 128,-1,71
 757 1206 757 1206 718 1237 c 128,-1,72
 679 1268 679 1268 643 1294 c 1,73,74
 647 1251 647 1251 654.5 1201.5 c 128,-1,75
 662 1152 662 1152 674 1103.5 c 128,-1,76
 686 1055 686 1055 703.5 1010.5 c 128,-1,77
 721 966 721 966 745 932 c 1,78,-1
 597 787 l 1,79,-1
 451 932 l 1,0,1
EndSplineSet
EndChar

StartChar: endash
Encoding: 8211 8211 112
Width: 1530
Flags: W
LayerCount: 2
Fore
SplineSet
224 919 m 1,0,-1
 1345 919 l 1,1,-1
 1304 753 l 1,2,-1
 184 753 l 1,3,-1
 224 919 l 1,0,-1
EndSplineSet
EndChar

StartChar: emdash
Encoding: 8212 8212 113
Width: 2039
Flags: W
LayerCount: 2
Fore
SplineSet
227 919 m 1,0,-1
 1850 919 l 1,1,-1
 1809 753 l 1,2,-1
 188 753 l 1,3,-1
 227 919 l 1,0,-1
EndSplineSet
EndChar

StartChar: slash
Encoding: 47 47 114
Width: 848
Flags: W
LayerCount: 2
Fore
SplineSet
627 1658 m 1,0,-1
 779 1658 l 1,1,-1
 223 -30 l 1,2,-1
 69 -30 l 1,3,-1
 627 1658 l 1,0,-1
EndSplineSet
EndChar

StartChar: backslash
Encoding: 92 92 115
Width: 848
Flags: W
LayerCount: 2
Fore
SplineSet
69 1658 m 1,0,-1
 223 1658 l 1,1,-1
 779 -30 l 1,2,-1
 627 -30 l 1,3,-1
 69 1658 l 1,0,-1
EndSplineSet
EndChar

StartChar: bar
Encoding: 124 124 116
Width: 510
Flags: W
LayerCount: 2
Fore
SplineSet
182 1909 m 1,0,-1
 327 1909 l 1,1,-1
 327 -193 l 1,2,-1
 182 -193 l 1,3,-1
 182 1909 l 1,0,-1
EndSplineSet
EndChar

StartChar: brokenbar
Encoding: 166 166 117
Width: 510
Flags: W
LayerCount: 2
Fore
SplineSet
182 1911 m 1,0,-1
 327 1911 l 1,1,-1
 327 1019 l 1,2,-1
 182 1019 l 1,3,-1
 182 1911 l 1,0,-1
182 697 m 1,4,-1
 327 697 l 1,5,-1
 327 -191 l 1,6,-1
 182 -191 l 1,7,-1
 182 697 l 1,4,-1
EndSplineSet
EndChar

StartChar: paragraph
Encoding: 182 182 118
Width: 1703
Flags: W
LayerCount: 2
Fore
SplineSet
846 350 m 1,0,1
 832 349 832 349 819.5 349 c 128,-1,2
 807 349 807 349 793 349 c 0,3,4
 614 349 614 349 481 404 c 128,-1,5
 348 459 348 459 259 551.5 c 128,-1,6
 170 644 170 644 126 765 c 128,-1,7
 82 886 82 886 82 1018 c 0,8,9
 82 1158 82 1158 128 1283.5 c 128,-1,10
 174 1409 174 1409 269.5 1504 c 128,-1,11
 365 1599 365 1599 511.5 1654.5 c 128,-1,12
 658 1710 658 1710 859 1710 c 0,13,14
 923 1710 923 1710 984 1705.5 c 128,-1,15
 1045 1701 1045 1701 1100.5 1695 c 128,-1,16
 1156 1689 1156 1689 1204.5 1684.5 c 128,-1,17
 1253 1680 1253 1680 1291 1680 c 2,18,-1
 1526 1680 l 1,19,-1
 1526 1597 l 1,20,21
 1467 1592 1467 1592 1433 1583.5 c 128,-1,22
 1399 1575 1399 1575 1381.5 1557 c 128,-1,23
 1364 1539 1364 1539 1358.5 1509 c 128,-1,24
 1353 1479 1353 1479 1352 1433 c 2,25,-1
 1300 -565 l 1,26,-1
 1183 -565 l 1,27,-1
 1183 1579 l 1,28,-1
 1022 1579 l 1,29,-1
 1022 -565 l 1,30,-1
 871 -565 l 1,31,-1
 846 350 l 1,0,1
814 1578 m 1,32,33
 698 1570 698 1570 621.5 1520.5 c 128,-1,34
 545 1471 545 1471 499.5 1392.5 c 128,-1,35
 454 1314 454 1314 435.5 1213.5 c 128,-1,36
 417 1113 417 1113 417 1002 c 0,37,38
 417 878 417 878 444.5 779 c 128,-1,39
 472 680 472 680 525.5 610.5 c 128,-1,40
 579 541 579 541 658.5 503.5 c 128,-1,41
 738 466 738 466 843 465 c 1,42,-1
 814 1578 l 1,32,33
EndSplineSet
EndChar

StartChar: braceleft
Encoding: 123 123 119
Width: 1022
Flags: W
LayerCount: 2
Fore
SplineSet
423 471 m 2,0,1
 423 547 423 547 405.5 602 c 128,-1,2
 388 657 388 657 353 693.5 c 128,-1,3
 318 730 318 730 265.5 750 c 128,-1,4
 213 770 213 770 143 776 c 1,5,-1
 143 897 l 1,6,7
 213 903 213 903 265.5 922.5 c 128,-1,8
 318 942 318 942 353 978.5 c 128,-1,9
 388 1015 388 1015 405.5 1069.5 c 128,-1,10
 423 1124 423 1124 423 1201 c 2,11,-1
 423 1373 l 2,12,13
 423 1509 423 1509 456 1598.5 c 128,-1,14
 489 1688 489 1688 548 1741 c 128,-1,15
 607 1794 607 1794 688.5 1816 c 128,-1,16
 770 1838 770 1838 867 1838 c 1,17,-1
 868 1746 l 1,18,19
 799 1736 799 1736 751 1716.5 c 128,-1,20
 703 1697 703 1697 673.5 1663 c 128,-1,21
 644 1629 644 1629 631 1577.5 c 128,-1,22
 618 1526 618 1526 618 1453 c 2,23,-1
 619 1270 l 2,24,25
 619 1170 619 1170 600 1096 c 128,-1,26
 581 1022 581 1022 546 970 c 128,-1,27
 511 918 511 918 461.5 885.5 c 128,-1,28
 412 853 412 853 352 836 c 1,29,30
 412 819 412 819 461.5 786.5 c 128,-1,31
 511 754 511 754 546 702 c 128,-1,32
 581 650 581 650 600 576 c 128,-1,33
 619 502 619 502 619 402 c 2,34,-1
 618 220 l 2,35,36
 618 146 618 146 630.5 95 c 128,-1,37
 643 44 643 44 672.5 9.5 c 128,-1,38
 702 -25 702 -25 750 -44.5 c 128,-1,39
 798 -64 798 -64 868 -74 c 1,40,-1
 867 -166 l 1,41,42
 770 -166 770 -166 688.5 -144 c 128,-1,43
 607 -122 607 -122 548 -69 c 128,-1,44
 489 -16 489 -16 456 74 c 128,-1,45
 423 164 423 164 423 300 c 2,46,-1
 423 471 l 2,0,1
EndSplineSet
EndChar

StartChar: parenleft
Encoding: 40 40 121
Width: 1022
Flags: W
LayerCount: 2
Fore
SplineSet
200 793 m 0,0,1
 200 944 200 944 227.5 1074.5 c 128,-1,2
 255 1205 255 1205 300.5 1315 c 128,-1,3
 346 1425 346 1425 404.5 1514.5 c 128,-1,4
 463 1604 463 1604 524.5 1673.5 c 128,-1,5
 586 1743 586 1743 645.5 1792.5 c 128,-1,6
 705 1842 705 1842 754 1872 c 1,7,-1
 812 1812 l 1,8,9
 721 1733 721 1733 656.5 1647.5 c 128,-1,10
 592 1562 592 1562 548 1474 c 128,-1,11
 504 1386 504 1386 477.5 1297 c 128,-1,12
 451 1208 451 1208 437.5 1122.5 c 128,-1,13
 424 1037 424 1037 419.5 957.5 c 128,-1,14
 415 878 415 878 415 809 c 256,15,16
 415 740 415 740 419 653 c 128,-1,17
 423 566 423 566 437 469 c 128,-1,18
 451 372 451 372 477 269.5 c 128,-1,19
 503 167 503 167 547 68 c 128,-1,20
 591 -31 591 -31 656 -123 c 128,-1,21
 721 -215 721 -215 812 -291 c 1,22,-1
 754 -350 l 1,23,24
 705 -314 705 -314 645.5 -260.5 c 128,-1,25
 586 -207 586 -207 524.5 -133.5 c 128,-1,26
 463 -60 463 -60 404.5 33.5 c 128,-1,27
 346 127 346 127 300.5 242 c 128,-1,28
 255 357 255 357 227.5 494.5 c 128,-1,29
 200 632 200 632 200 793 c 0,0,1
EndSplineSet
EndChar

StartChar: bracketleft
Encoding: 91 91 123
Width: 848
Flags: W
LayerCount: 2
Fore
SplineSet
200 1817 m 1,0,-1
 662 1817 l 1,1,-1
 662 1714 l 1,2,-1
 476 1714 l 2,3,4
 434 1714 434 1714 408 1689.5 c 128,-1,5
 382 1665 382 1665 382 1620 c 2,6,-1
 382 64 l 2,7,8
 382 16 382 16 405.5 -13.5 c 128,-1,9
 429 -43 429 -43 483 -43 c 2,10,-1
 662 -43 l 1,11,-1
 662 -150 l 1,12,-1
 200 -150 l 1,13,-1
 200 1817 l 1,0,-1
EndSplineSet
EndChar

StartChar: currency
Encoding: 164 164 125
Width: 1532
Flags: W
LayerCount: 2
Fore
SplineSet
436 489 m 1,0,1
 398 543 398 543 376.5 609.5 c 128,-1,2
 355 676 355 676 355 745 c 256,3,4
 355 814 355 814 376.5 880 c 128,-1,5
 398 946 398 946 437 1001 c 1,6,7
 413 1025 413 1025 382.5 1054 c 128,-1,8
 352 1083 352 1083 319.5 1113.5 c 128,-1,9
 287 1144 287 1144 255.5 1174.5 c 128,-1,10
 224 1205 224 1205 198 1231 c 1,11,-1
 278 1311 l 1,12,-1
 510 1073 l 1,13,14
 561 1111 561 1111 624 1132.5 c 128,-1,15
 687 1154 687 1154 766 1154 c 256,16,17
 845 1154 845 1154 908.5 1132.5 c 128,-1,18
 972 1111 972 1111 1021 1074 c 1,19,-1
 1253 1311 l 1,20,-1
 1333 1231 l 1,21,-1
 1094 1001 l 1,22,23
 1134 947 1134 947 1156 880.5 c 128,-1,24
 1178 814 1178 814 1178 745 c 0,25,26
 1178 678 1178 678 1155.5 610 c 128,-1,27
 1133 542 1133 542 1095 488 c 1,28,-1
 1333 257 l 1,29,-1
 1253 177 l 1,30,-1
 1023 415 l 1,31,32
 972 377 972 377 909.5 356 c 128,-1,33
 847 335 847 335 766 335 c 256,34,35
 685 335 685 335 621.5 356.5 c 128,-1,36
 558 378 558 378 509 416 c 1,37,-1
 278 177 l 1,38,-1
 198 257 l 1,39,-1
 436 489 l 1,0,1
768 450 m 0,40,41
 835 450 835 450 878.5 477 c 128,-1,42
 922 504 922 504 947 546.5 c 128,-1,43
 972 589 972 589 981.5 641.5 c 128,-1,44
 991 694 991 694 991 745 c 0,45,46
 991 797 991 797 981.5 850 c 128,-1,47
 972 903 972 903 947 945.5 c 128,-1,48
 922 988 922 988 878.5 1014.5 c 128,-1,49
 835 1041 835 1041 768 1041 c 256,50,51
 701 1041 701 1041 658 1013.5 c 128,-1,52
 615 986 615 986 590 943 c 128,-1,53
 565 900 565 900 555.5 847.5 c 128,-1,54
 546 795 546 795 546 745 c 256,55,56
 546 695 546 695 555 642.5 c 128,-1,57
 564 590 564 590 589 547 c 128,-1,58
 614 504 614 504 657 477 c 128,-1,59
 700 450 700 450 768 450 c 0,40,41
EndSplineSet
EndChar

StartChar: dollar
Encoding: 36 36 126
Width: 1526
Flags: W
LayerCount: 2
Fore
SplineSet
189 314 m 0,0,1
 189 371 189 371 215 414.5 c 128,-1,2
 241 458 241 458 278.5 489 c 128,-1,3
 316 520 316 520 357.5 538.5 c 128,-1,4
 399 557 399 557 430 563 c 1,5,-1
 484 499 l 1,6,7
 471 484 471 484 460.5 471 c 128,-1,8
 450 458 450 458 442.5 441 c 128,-1,9
 435 424 435 424 430.5 401.5 c 128,-1,10
 426 379 426 379 426 346 c 0,11,12
 426 298 426 298 443.5 253 c 128,-1,13
 461 208 461 208 496 172.5 c 128,-1,14
 531 137 531 137 585 113 c 128,-1,15
 639 89 639 89 711 83 c 1,16,-1
 711 715 l 1,17,18
 600 770 600 770 514 823 c 128,-1,19
 428 876 428 876 369 931 c 128,-1,20
 310 986 310 986 279 1045.5 c 128,-1,21
 248 1105 248 1105 248 1173 c 0,22,23
 248 1255 248 1255 286.5 1320.5 c 128,-1,24
 325 1386 325 1386 389 1433.5 c 128,-1,25
 453 1481 453 1481 537 1510 c 128,-1,26
 621 1539 621 1539 711 1548 c 1,27,-1
 711 1770 l 1,28,-1
 816 1770 l 1,29,-1
 816 1551 l 1,30,31
 903 1548 903 1548 983.5 1527.5 c 128,-1,32
 1064 1507 1064 1507 1126 1472 c 128,-1,33
 1188 1437 1188 1437 1225 1390 c 128,-1,34
 1262 1343 1262 1343 1262 1287 c 0,35,36
 1262 1262 1262 1262 1250.5 1234 c 128,-1,37
 1239 1206 1239 1206 1215.5 1179.5 c 128,-1,38
 1192 1153 1192 1153 1155 1130 c 128,-1,39
 1118 1107 1118 1107 1067 1092 c 1,40,-1
 993 1141 l 1,41,42
 1003 1153 1003 1153 1013 1166 c 128,-1,43
 1023 1179 1023 1179 1031 1194 c 128,-1,44
 1039 1209 1039 1209 1044 1228 c 128,-1,45
 1049 1247 1049 1247 1049 1271 c 0,46,47
 1049 1347 1049 1347 985.5 1390 c 128,-1,48
 922 1433 922 1433 816 1441 c 1,49,-1
 816 866 l 1,50,-1
 862 842 l 1,51,52
 957 795 957 795 1043 747 c 128,-1,53
 1129 699 1129 699 1194 644.5 c 128,-1,54
 1259 590 1259 590 1297.5 527 c 128,-1,55
 1336 464 1336 464 1336 387 c 0,56,57
 1336 289 1336 289 1294.5 215.5 c 128,-1,58
 1253 142 1253 142 1181.5 92 c 128,-1,59
 1110 42 1110 42 1015.5 14 c 128,-1,60
 921 -14 921 -14 816 -21 c 1,61,-1
 816 -232 l 1,62,-1
 711 -232 l 1,63,-1
 711 -22 l 1,64,65
 609 -19 609 -19 514.5 4.5 c 128,-1,66
 420 28 420 28 348 70.5 c 128,-1,67
 276 113 276 113 232.5 174 c 128,-1,68
 189 235 189 235 189 314 c 0,0,1
711 1441 m 1,69,70
 660 1435 660 1435 616 1418.5 c 128,-1,71
 572 1402 572 1402 539.5 1374.5 c 128,-1,72
 507 1347 507 1347 489 1309 c 128,-1,73
 471 1271 471 1271 471 1223 c 0,74,75
 471 1173 471 1173 486 1133 c 128,-1,76
 501 1093 501 1093 531 1057.5 c 128,-1,77
 561 1022 561 1022 606 989.5 c 128,-1,78
 651 957 651 957 711 923 c 1,79,-1
 711 1441 l 1,69,70
816 83 m 1,80,81
 952 94 952 94 1029 158 c 128,-1,82
 1106 222 1106 222 1106 341 c 0,83,84
 1106 399 1106 399 1082.5 444.5 c 128,-1,85
 1059 490 1059 490 1019 527.5 c 128,-1,86
 979 565 979 565 926.5 597 c 128,-1,87
 874 629 874 629 816 660 c 1,88,-1
 816 83 l 1,80,81
EndSplineSet
EndChar

StartChar: cent
Encoding: 162 162 127
Width: 1360
Flags: W
LayerCount: 2
Fore
SplineSet
631 -14 m 1,0,1
 521 5 521 5 437 63.5 c 128,-1,2
 353 122 353 122 296 206 c 128,-1,3
 239 290 239 290 210 394 c 128,-1,4
 181 498 181 498 181 609 c 0,5,6
 181 739 181 739 217.5 854.5 c 128,-1,7
 254 970 254 970 324.5 1057 c 128,-1,8
 395 1144 395 1144 499 1195 c 128,-1,9
 603 1246 603 1246 738 1246 c 2,10,-1
 754 1246 l 1,11,-1
 779 1498 l 1,12,-1
 895 1490 l 1,13,-1
 869 1232 l 1,14,15
 892 1227 892 1227 916.5 1219.5 c 128,-1,16
 941 1212 941 1212 961.5 1204.5 c 128,-1,17
 982 1197 982 1197 995.5 1191.5 c 128,-1,18
 1009 1186 1009 1186 1011 1186 c 0,19,20
 1048 1196 1048 1196 1065 1216 c 128,-1,21
 1082 1236 1082 1236 1088 1267 c 1,22,-1
 1167 1267 l 1,23,-1
 1167 839 l 1,24,-1
 1084 839 l 1,25,26
 1066 949 1066 949 1012.5 1025 c 128,-1,27
 959 1101 959 1101 859 1127 c 1,28,-1
 758 105 l 1,29,-1
 769 105 l 2,30,31
 880 105 880 105 969.5 140.5 c 128,-1,32
 1059 176 1059 176 1134 234 c 1,33,-1
 1191 179 l 1,34,35
 1155 135 1155 135 1105 98.5 c 128,-1,36
 1055 62 1055 62 996.5 35.5 c 128,-1,37
 938 9 938 9 874 -6.5 c 128,-1,38
 810 -22 810 -22 746 -23 c 1,39,-1
 719 -295 l 1,40,-1
 604 -287 l 1,41,-1
 631 -14 l 1,0,1
744 1140 m 1,42,43
 651 1137 651 1137 587 1091.5 c 128,-1,44
 523 1046 523 1046 483.5 972 c 128,-1,45
 444 898 444 898 426.5 803 c 128,-1,46
 409 708 409 708 409 607 c 0,47,48
 409 531 409 531 420.5 456 c 128,-1,49
 432 381 432 381 459.5 316 c 128,-1,50
 487 251 487 251 532 201 c 128,-1,51
 577 151 577 151 644 126 c 1,52,-1
 744 1140 l 1,42,43
EndSplineSet
EndChar

StartChar: sterling
Encoding: 163 163 128
Width: 1529
Flags: W
LayerCount: 2
Fore
SplineSet
127 83 m 1,0,1
 230 101 230 101 292.5 134.5 c 128,-1,2
 355 168 355 168 389 223.5 c 128,-1,3
 423 279 423 279 434 359 c 128,-1,4
 445 439 445 439 445 550 c 0,5,6
 445 577 445 577 443.5 604.5 c 128,-1,7
 442 632 442 632 440 659 c 1,8,-1
 205 659 l 1,9,-1
 231 772 l 1,10,-1
 428 772 l 1,11,12
 420 839 420 839 413 906 c 128,-1,13
 406 973 406 973 406 1045 c 0,14,15
 406 1158 406 1158 438.5 1252.5 c 128,-1,16
 471 1347 471 1347 532.5 1415.5 c 128,-1,17
 594 1484 594 1484 681.5 1522 c 128,-1,18
 769 1560 769 1560 879 1560 c 0,19,20
 927 1560 927 1560 967.5 1550 c 128,-1,21
 1008 1540 1008 1540 1041 1527.5 c 128,-1,22
 1074 1515 1074 1515 1099 1505 c 128,-1,23
 1124 1495 1124 1495 1142 1495 c 0,24,25
 1170 1495 1170 1495 1194.5 1512.5 c 128,-1,26
 1219 1530 1219 1530 1233 1560 c 1,27,-1
 1336 1560 l 1,28,-1
 1216 1031 l 1,29,-1
 1110 1031 l 1,30,31
 1111 1038 1111 1038 1112 1050 c 128,-1,32
 1113 1062 1113 1062 1113.5 1075.5 c 128,-1,33
 1114 1089 1114 1089 1114.5 1102 c 128,-1,34
 1115 1115 1115 1115 1115 1124 c 0,35,36
 1115 1179 1115 1179 1105.5 1237 c 128,-1,37
 1096 1295 1096 1295 1069 1343 c 128,-1,38
 1042 1391 1042 1391 994 1421.5 c 128,-1,39
 946 1452 946 1452 869 1452 c 0,40,41
 791 1452 791 1452 742.5 1424 c 128,-1,42
 694 1396 694 1396 667.5 1352 c 128,-1,43
 641 1308 641 1308 631.5 1255 c 128,-1,44
 622 1202 622 1202 622 1153 c 0,45,46
 622 1059 622 1059 633 967 c 128,-1,47
 644 875 644 875 654 772 c 1,48,-1
 1070 772 l 1,49,-1
 1043 659 l 1,50,-1
 662 659 l 1,51,52
 665 606 665 606 665 550 c 0,53,54
 665 456 665 456 659 394.5 c 128,-1,55
 653 333 653 333 646.5 293 c 128,-1,56
 640 253 640 253 634 228.5 c 128,-1,57
 628 204 628 204 628 185 c 0,58,59
 628 158 628 158 640.5 143 c 128,-1,60
 653 128 653 128 680 120.5 c 128,-1,61
 707 113 707 113 748.5 111.5 c 128,-1,62
 790 110 790 110 848 110 c 0,63,64
 920 110 920 110 977.5 112.5 c 128,-1,65
 1035 115 1035 115 1081 125 c 128,-1,66
 1127 135 1127 135 1163 155 c 128,-1,67
 1199 175 1199 175 1228 211.5 c 128,-1,68
 1257 248 1257 248 1280 303 c 128,-1,69
 1303 358 1303 358 1323 437 c 1,70,-1
 1424 437 l 1,71,-1
 1361 0 l 1,72,-1
 127 0 l 1,73,-1
 127 83 l 1,0,1
EndSplineSet
EndChar

StartChar: Euro
Encoding: 8364 8364 129
Width: 1872
Flags: W
LayerCount: 2
Fore
SplineSet
140 697 m 1,0,-1
 339 697 l 1,1,2
 338 711 338 711 337.5 726 c 128,-1,3
 337 741 337 741 337 756 c 0,4,5
 337 792 337 792 340 828 c 1,6,-1
 140 828 l 1,7,-1
 140 941 l 1,8,-1
 356 941 l 1,9,10
 381 1064 381 1064 440.5 1175 c 128,-1,11
 500 1286 500 1286 591.5 1369.5 c 128,-1,12
 683 1453 683 1453 806.5 1502.5 c 128,-1,13
 930 1552 930 1552 1083 1552 c 0,14,15
 1164 1552 1164 1552 1220.5 1539.5 c 128,-1,16
 1277 1527 1277 1527 1319 1512 c 128,-1,17
 1361 1497 1361 1497 1394.5 1484.5 c 128,-1,18
 1428 1472 1428 1472 1463 1472 c 0,19,20
 1492 1472 1492 1472 1520 1495.5 c 128,-1,21
 1548 1519 1548 1519 1574 1554 c 1,22,-1
 1669 1554 l 1,23,-1
 1537 1024 l 1,24,-1
 1441 1024 l 1,25,26
 1443 1048 1443 1048 1444.5 1072 c 128,-1,27
 1446 1096 1446 1096 1446 1121 c 0,28,29
 1446 1153 1446 1153 1443 1186.5 c 128,-1,30
 1440 1220 1440 1220 1430 1253 c 0,31,32
 1416 1299 1416 1299 1380.5 1334.5 c 128,-1,33
 1345 1370 1345 1370 1296.5 1394 c 128,-1,34
 1248 1418 1248 1418 1191.5 1430.5 c 128,-1,35
 1135 1443 1135 1443 1080 1443 c 0,36,37
 965 1443 965 1443 879.5 1402 c 128,-1,38
 794 1361 794 1361 734.5 1292 c 128,-1,39
 675 1223 675 1223 639 1132 c 128,-1,40
 603 1041 603 1041 587 941 c 1,41,-1
 1299 941 l 1,42,-1
 1272 828 l 1,43,-1
 574 828 l 1,44,45
 573 808 573 808 572.5 788.5 c 128,-1,46
 572 769 572 769 572 749 c 0,47,48
 572 735 572 735 572 722.5 c 128,-1,49
 572 710 572 710 573 697 c 1,50,-1
 1235 697 l 1,51,-1
 1208 584 l 1,52,-1
 588 584 l 1,53,54
 606 492 606 492 646 407.5 c 128,-1,55
 686 323 686 323 751.5 258 c 128,-1,56
 817 193 817 193 908.5 154.5 c 128,-1,57
 1000 116 1000 116 1121 116 c 0,58,59
 1190 116 1190 116 1250 126.5 c 128,-1,60
 1310 137 1310 137 1363.5 158.5 c 128,-1,61
 1417 180 1417 180 1464 213.5 c 128,-1,62
 1511 247 1511 247 1555 293 c 1,63,-1
 1605 226 l 1,64,65
 1532 111 1532 111 1398.5 43.5 c 128,-1,66
 1265 -24 1265 -24 1079 -24 c 0,67,68
 922 -24 922 -24 797.5 24 c 128,-1,69
 673 72 673 72 581.5 154.5 c 128,-1,70
 490 237 490 237 432.5 347.5 c 128,-1,71
 375 458 375 458 352 584 c 1,72,-1
 140 584 l 1,73,-1
 140 697 l 1,0,-1
EndSplineSet
EndChar

StartChar: yen
Encoding: 165 165 130
Width: 1701
Flags: W
LayerCount: 2
Fore
SplineSet
287 451 m 1,0,-1
 748 451 l 1,1,-1
 748 639 l 1,2,-1
 261 639 l 1,3,-1
 287 752 l 1,4,-1
 618 752 l 1,5,6
 543 790 543 790 480.5 839 c 128,-1,7
 418 888 418 888 373.5 950 c 128,-1,8
 329 1012 329 1012 304.5 1088 c 128,-1,9
 280 1164 280 1164 280 1256 c 0,10,11
 280 1308 280 1308 278 1342 c 128,-1,12
 276 1376 276 1376 262.5 1397 c 128,-1,13
 249 1418 249 1418 220.5 1428.5 c 128,-1,14
 192 1439 192 1439 140 1444 c 1,15,-1
 140 1531 l 1,16,-1
 652 1531 l 1,17,-1
 652 1444 l 1,18,19
 599 1439 599 1439 566 1429 c 128,-1,20
 533 1419 533 1419 514 1400 c 128,-1,21
 495 1381 495 1381 488 1351 c 128,-1,22
 481 1321 481 1321 481 1275 c 0,23,24
 481 1187 481 1187 501 1111.5 c 128,-1,25
 521 1036 521 1036 565.5 975.5 c 128,-1,26
 610 915 610 915 680 871 c 128,-1,27
 750 827 750 827 849 802 c 1,28,29
 961 827 961 827 1032.5 871 c 128,-1,30
 1104 915 1104 915 1144.5 975.5 c 128,-1,31
 1185 1036 1185 1036 1200 1111.5 c 128,-1,32
 1215 1187 1215 1187 1215 1275 c 0,33,34
 1215 1321 1215 1321 1207.5 1351 c 128,-1,35
 1200 1381 1200 1381 1181 1400 c 128,-1,36
 1162 1419 1162 1419 1129 1429 c 128,-1,37
 1096 1439 1096 1439 1045 1444 c 1,38,-1
 1045 1531 l 1,39,-1
 1556 1531 l 1,40,-1
 1556 1444 l 1,41,42
 1507 1438 1507 1438 1479 1428.5 c 128,-1,43
 1451 1419 1451 1419 1437 1399.5 c 128,-1,44
 1423 1380 1423 1380 1419.5 1345.5 c 128,-1,45
 1416 1311 1416 1311 1416 1256 c 0,46,47
 1416 1164 1416 1164 1390.5 1088 c 128,-1,48
 1365 1012 1365 1012 1320 950 c 128,-1,49
 1275 888 1275 888 1212.5 839 c 128,-1,50
 1150 790 1150 790 1076 752 c 1,51,-1
 1418 752 l 1,52,-1
 1391 639 l 1,53,-1
 949 639 l 1,54,-1
 949 451 l 1,55,-1
 1418 451 l 1,56,-1
 1391 338 l 1,57,-1
 949 338 l 1,58,-1
 949 266 l 2,59,60
 949 208 949 208 954.5 175.5 c 128,-1,61
 960 143 960 143 981 126 c 128,-1,62
 1002 109 1002 109 1043 101 c 128,-1,63
 1084 93 1084 93 1155 84 c 1,64,-1
 1155 1 l 1,65,-1
 542 1 l 1,66,-1
 542 84 l 1,67,68
 610 92 610 92 650.5 99.5 c 128,-1,69
 691 107 691 107 713 125 c 128,-1,70
 735 143 735 143 741.5 175.5 c 128,-1,71
 748 208 748 208 748 266 c 2,72,-1
 748 338 l 1,73,-1
 261 338 l 1,74,-1
 287 451 l 1,0,-1
EndSplineSet
EndChar

StartChar: at
Encoding: 64 64 131
Width: 2220
Flags: W
LayerCount: 2
Fore
SplineSet
159 414 m 0,0,1
 159 588 159 588 199 738.5 c 128,-1,2
 239 889 239 889 310.5 1013 c 128,-1,3
 382 1137 382 1137 482 1233 c 128,-1,4
 582 1329 582 1329 702.5 1395 c 128,-1,5
 823 1461 823 1461 959.5 1495 c 128,-1,6
 1096 1529 1096 1529 1242 1529 c 0,7,8
 1354 1529 1354 1529 1459 1504 c 128,-1,9
 1564 1479 1564 1479 1656 1431.5 c 128,-1,10
 1748 1384 1748 1384 1824.5 1315.5 c 128,-1,11
 1901 1247 1901 1247 1955.5 1161 c 128,-1,12
 2010 1075 2010 1075 2040 972 c 128,-1,13
 2070 869 2070 869 2070 753 c 0,14,15
 2070 665 2070 665 2048.5 575 c 128,-1,16
 2027 485 2027 485 1987 401.5 c 128,-1,17
 1947 318 1947 318 1891 244.5 c 128,-1,18
 1835 171 1835 171 1765 117 c 128,-1,19
 1695 63 1695 63 1614 31.5 c 128,-1,20
 1533 0 1533 0 1443 0 c 0,21,22
 1398 0 1398 0 1365 15 c 128,-1,23
 1332 30 1332 30 1309.5 55 c 128,-1,24
 1287 80 1287 80 1274.5 112.5 c 128,-1,25
 1262 145 1262 145 1257 180 c 1,26,27
 1234 148 1234 148 1201.5 116 c 128,-1,28
 1169 84 1169 84 1130 58.5 c 128,-1,29
 1091 33 1091 33 1048 16.5 c 128,-1,30
 1005 0 1005 0 962 0 c 0,31,32
 885 0 885 0 829 33 c 128,-1,33
 773 66 773 66 736 121.5 c 128,-1,34
 699 177 699 177 681.5 248.5 c 128,-1,35
 664 320 664 320 664 398 c 0,36,37
 664 481 664 481 682 565.5 c 128,-1,38
 700 650 700 650 734.5 728 c 128,-1,39
 769 806 769 806 818.5 874 c 128,-1,40
 868 942 868 942 930 992 c 128,-1,41
 992 1042 992 1042 1066 1071 c 128,-1,42
 1140 1100 1140 1100 1224 1100 c 0,43,44
 1283 1100 1283 1100 1339 1083.5 c 128,-1,45
 1395 1067 1395 1067 1443 1041 c 128,-1,46
 1491 1015 1491 1015 1528.5 983.5 c 128,-1,47
 1566 952 1566 952 1588 922 c 1,48,-1
 1448 275 l 2,49,50
 1441 244 1441 244 1435.5 215 c 128,-1,51
 1430 186 1430 186 1430 162 c 0,52,53
 1430 133 1430 133 1441.5 114.5 c 128,-1,54
 1453 96 1453 96 1485 96 c 0,55,56
 1545 96 1545 96 1598 123.5 c 128,-1,57
 1651 151 1651 151 1696.5 198 c 128,-1,58
 1742 245 1742 245 1778 308.5 c 128,-1,59
 1814 372 1814 372 1839 445 c 128,-1,60
 1864 518 1864 518 1877.5 595.5 c 128,-1,61
 1891 673 1891 673 1891 749 c 0,62,63
 1891 839 1891 839 1872 925 c 128,-1,64
 1853 1011 1853 1011 1816.5 1087.5 c 128,-1,65
 1780 1164 1780 1164 1725 1228.5 c 128,-1,66
 1670 1293 1670 1293 1598 1340 c 128,-1,67
 1526 1387 1526 1387 1436.5 1413 c 128,-1,68
 1347 1439 1347 1439 1242 1439 c 0,69,70
 1133 1439 1133 1439 1024.5 1411 c 128,-1,71
 916 1383 916 1383 817.5 1326 c 128,-1,72
 719 1269 719 1269 633.5 1182.5 c 128,-1,73
 548 1096 548 1096 485.5 979 c 128,-1,74
 423 862 423 862 387.5 713.5 c 128,-1,75
 352 565 352 565 352 385 c 0,76,77
 352 236 352 236 405.5 104.5 c 128,-1,78
 459 -27 459 -27 556 -124.5 c 128,-1,79
 653 -222 653 -222 787 -278.5 c 128,-1,80
 921 -335 921 -335 1083 -335 c 0,81,82
 1168 -335 1168 -335 1242 -324 c 128,-1,83
 1316 -313 1316 -313 1379 -294.5 c 128,-1,84
 1442 -276 1442 -276 1495 -251 c 128,-1,85
 1548 -226 1548 -226 1591 -198 c 1,86,-1
 1620 -286 l 1,87,88
 1582 -316 1582 -316 1521.5 -345 c 128,-1,89
 1461 -374 1461 -374 1389 -397 c 128,-1,90
 1317 -420 1317 -420 1238.5 -434 c 128,-1,91
 1160 -448 1160 -448 1085 -448 c 0,92,93
 921 -448 921 -448 789 -410.5 c 128,-1,94
 657 -373 657 -373 554 -309 c 128,-1,95
 451 -245 451 -245 376.5 -159.5 c 128,-1,96
 302 -74 302 -74 253.5 22 c 128,-1,97
 205 118 205 118 182 218.5 c 128,-1,98
 159 319 159 319 159 414 c 0,0,1
856 420 m 0,99,100
 856 364 856 364 865.5 310.5 c 128,-1,101
 875 257 875 257 895 215 c 128,-1,102
 915 173 915 173 945.5 147.5 c 128,-1,103
 976 122 976 122 1017 122 c 0,104,105
 1056 122 1056 122 1097 142 c 128,-1,106
 1138 162 1138 162 1175 202 c 128,-1,107
 1212 242 1212 242 1243 300.5 c 128,-1,108
 1274 359 1274 359 1293 436 c 2,109,-1
 1412 944 l 1,110,111
 1383 972 1383 972 1346.5 986 c 128,-1,112
 1310 1000 1310 1000 1254 1000 c 0,113,114
 1188 1000 1188 1000 1128.5 961.5 c 128,-1,115
 1069 923 1069 923 1020.5 864 c 128,-1,116
 972 805 972 805 936 735 c 128,-1,117
 900 665 900 665 880 601 c 1,118,119
 869 559 869 559 862.5 512 c 128,-1,120
 856 465 856 465 856 420 c 0,99,100
EndSplineSet
EndChar

StartChar: copyright
Encoding: 169 169 132
Width: 1870
Flags: W
LayerCount: 2
Fore
SplineSet
74 675 m 256,0,1
 74 789 74 789 102.5 894.5 c 128,-1,2
 131 1000 131 1000 183.5 1091.5 c 128,-1,3
 236 1183 236 1183 310 1258.5 c 128,-1,4
 384 1334 384 1334 475 1387.5 c 128,-1,5
 566 1441 566 1441 671.5 1470.5 c 128,-1,6
 777 1500 777 1500 892 1500 c 0,7,8
 1006 1500 1006 1500 1111 1470.5 c 128,-1,9
 1216 1441 1216 1441 1306.5 1387.5 c 128,-1,10
 1397 1334 1397 1334 1470.5 1258.5 c 128,-1,11
 1544 1183 1544 1183 1596 1091.5 c 128,-1,12
 1648 1000 1648 1000 1676.5 894.5 c 128,-1,13
 1705 789 1705 789 1705 675 c 256,14,15
 1705 561 1705 561 1676.5 456 c 128,-1,16
 1648 351 1648 351 1596 260 c 128,-1,17
 1544 169 1544 169 1470.5 94.5 c 128,-1,18
 1397 20 1397 20 1306.5 -33.5 c 128,-1,19
 1216 -87 1216 -87 1111 -116 c 128,-1,20
 1006 -145 1006 -145 892 -145 c 0,21,22
 777 -145 777 -145 671.5 -116 c 128,-1,23
 566 -87 566 -87 475 -33.5 c 128,-1,24
 384 20 384 20 310 94.5 c 128,-1,25
 236 169 236 169 183.5 260 c 128,-1,26
 131 351 131 351 102.5 456 c 128,-1,27
 74 561 74 561 74 675 c 256,0,1
183 675 m 256,28,29
 183 578 183 578 208.5 486.5 c 128,-1,30
 234 395 234 395 280 314 c 128,-1,31
 326 233 326 233 391 165 c 128,-1,32
 456 97 456 97 534.5 48 c 128,-1,33
 613 -1 613 -1 703.5 -28 c 128,-1,34
 794 -55 794 -55 892 -55 c 0,35,36
 1044 -55 1044 -55 1172.5 2 c 128,-1,37
 1301 59 1301 59 1395 157.5 c 128,-1,38
 1489 256 1489 256 1541.5 389 c 128,-1,39
 1594 522 1594 522 1594 675 c 0,40,41
 1594 773 1594 773 1571 865.5 c 128,-1,42
 1548 958 1548 958 1505.5 1039 c 128,-1,43
 1463 1120 1463 1120 1401 1188 c 128,-1,44
 1339 1256 1339 1256 1261 1304.5 c 128,-1,45
 1183 1353 1183 1353 1090 1380 c 128,-1,46
 997 1407 997 1407 892 1407 c 0,47,48
 789 1407 789 1407 696 1380 c 128,-1,49
 603 1353 603 1353 524.5 1304 c 128,-1,50
 446 1255 446 1255 382.5 1187 c 128,-1,51
 319 1119 319 1119 275 1038 c 128,-1,52
 231 957 231 957 207 864.5 c 128,-1,53
 183 772 183 772 183 675 c 256,28,29
422 663 m 256,54,55
 422 762 422 762 453.5 856 c 128,-1,56
 485 950 485 950 546 1023.5 c 128,-1,57
 607 1097 607 1097 696 1141.5 c 128,-1,58
 785 1186 785 1186 900 1186 c 0,59,60
 936 1186 936 1186 978 1178 c 128,-1,61
 1020 1170 1020 1170 1056.5 1161 c 128,-1,62
 1093 1152 1093 1152 1119.5 1144 c 128,-1,63
 1146 1136 1146 1136 1151 1136 c 0,64,65
 1158 1136 1158 1136 1168 1139.5 c 128,-1,66
 1178 1143 1178 1143 1188.5 1150 c 128,-1,67
 1199 1157 1199 1157 1208.5 1166 c 128,-1,68
 1218 1175 1218 1175 1224 1186 c 1,69,-1
 1281 1186 l 1,70,-1
 1194 834 l 1,71,-1
 1138 834 l 1,72,73
 1139 842 1139 842 1139.5 850 c 128,-1,74
 1140 858 1140 858 1140 866 c 0,75,76
 1140 916 1140 916 1123.5 959 c 128,-1,77
 1107 1002 1107 1002 1077 1034 c 128,-1,78
 1047 1066 1047 1066 1005.5 1084 c 128,-1,79
 964 1102 964 1102 914 1102 c 0,80,81
 833 1102 833 1102 778.5 1061.5 c 128,-1,82
 724 1021 724 1021 690 957 c 128,-1,83
 656 893 656 893 641.5 814.5 c 128,-1,84
 627 736 627 736 627 661 c 0,85,86
 627 589 627 589 643 516 c 128,-1,87
 659 443 659 443 694.5 384.5 c 128,-1,88
 730 326 730 326 786.5 289 c 128,-1,89
 843 252 843 252 923 252 c 0,90,91
 1006 252 1006 252 1076 295 c 128,-1,92
 1146 338 1146 338 1218 414 c 1,93,-1
 1268 359 l 1,94,95
 1239 314 1239 314 1198.5 277.5 c 128,-1,96
 1158 241 1158 241 1109.5 215 c 128,-1,97
 1061 189 1061 189 1007 175 c 128,-1,98
 953 161 953 161 898 161 c 0,99,100
 781 161 781 161 692 202.5 c 128,-1,101
 603 244 603 244 543 313.5 c 128,-1,102
 483 383 483 383 452.5 473.5 c 128,-1,103
 422 564 422 564 422 663 c 256,54,55
EndSplineSet
EndChar

StartChar: registered
Encoding: 174 174 133
Width: 1870
Flags: W
LayerCount: 2
Fore
SplineSet
74 675 m 256,0,1
 74 789 74 789 102.5 894.5 c 128,-1,2
 131 1000 131 1000 183.5 1091.5 c 128,-1,3
 236 1183 236 1183 310 1258.5 c 128,-1,4
 384 1334 384 1334 475 1387.5 c 128,-1,5
 566 1441 566 1441 671.5 1470.5 c 128,-1,6
 777 1500 777 1500 892 1500 c 0,7,8
 1006 1500 1006 1500 1111 1470.5 c 128,-1,9
 1216 1441 1216 1441 1306.5 1387.5 c 128,-1,10
 1397 1334 1397 1334 1470.5 1258.5 c 128,-1,11
 1544 1183 1544 1183 1596 1091.5 c 128,-1,12
 1648 1000 1648 1000 1676.5 894.5 c 128,-1,13
 1705 789 1705 789 1705 675 c 256,14,15
 1705 561 1705 561 1676.5 456 c 128,-1,16
 1648 351 1648 351 1596 260 c 128,-1,17
 1544 169 1544 169 1470.5 94.5 c 128,-1,18
 1397 20 1397 20 1306.5 -33.5 c 128,-1,19
 1216 -87 1216 -87 1111 -116 c 128,-1,20
 1006 -145 1006 -145 892 -145 c 0,21,22
 777 -145 777 -145 671.5 -116 c 128,-1,23
 566 -87 566 -87 475 -33.5 c 128,-1,24
 384 20 384 20 310 94.5 c 128,-1,25
 236 169 236 169 183.5 260 c 128,-1,26
 131 351 131 351 102.5 456 c 128,-1,27
 74 561 74 561 74 675 c 256,0,1
183 675 m 256,28,29
 183 578 183 578 208.5 486.5 c 128,-1,30
 234 395 234 395 280 314 c 128,-1,31
 326 233 326 233 391 165 c 128,-1,32
 456 97 456 97 534.5 48 c 128,-1,33
 613 -1 613 -1 703.5 -28 c 128,-1,34
 794 -55 794 -55 892 -55 c 0,35,36
 1044 -55 1044 -55 1172.5 2 c 128,-1,37
 1301 59 1301 59 1395 157.5 c 128,-1,38
 1489 256 1489 256 1541.5 389 c 128,-1,39
 1594 522 1594 522 1594 675 c 0,40,41
 1594 773 1594 773 1571 865.5 c 128,-1,42
 1548 958 1548 958 1505.5 1039 c 128,-1,43
 1463 1120 1463 1120 1401 1188 c 128,-1,44
 1339 1256 1339 1256 1261 1304.5 c 128,-1,45
 1183 1353 1183 1353 1090 1380 c 128,-1,46
 997 1407 997 1407 892 1407 c 0,47,48
 789 1407 789 1407 696 1380 c 128,-1,49
 603 1353 603 1353 524.5 1304 c 128,-1,50
 446 1255 446 1255 382.5 1187 c 128,-1,51
 319 1119 319 1119 275 1038 c 128,-1,52
 231 957 231 957 207 864.5 c 128,-1,53
 183 772 183 772 183 675 c 256,28,29
485 249 m 1,54,-1
 487 250 l 1,55,56
 522 256 522 256 545.5 264.5 c 128,-1,57
 569 273 569 273 583 288 c 128,-1,58
 597 303 597 303 603 327 c 128,-1,59
 609 351 609 351 609 387 c 2,60,-1
 609 996 l 2,61,62
 609 1029 609 1029 602.5 1049.5 c 128,-1,63
 596 1070 596 1070 581 1083 c 128,-1,64
 566 1096 566 1096 542.5 1103 c 128,-1,65
 519 1110 519 1110 485 1115 c 1,66,-1
 485 1164 l 1,67,-1
 925 1164 l 2,68,69
 995 1164 995 1164 1058.5 1150.5 c 128,-1,70
 1122 1137 1122 1137 1169.5 1106.5 c 128,-1,71
 1217 1076 1217 1076 1245 1026.5 c 128,-1,72
 1273 977 1273 977 1273 906 c 0,73,74
 1273 800 1273 800 1217 739.5 c 128,-1,75
 1161 679 1161 679 1064 653 c 1,76,-1
 1363 187 l 1,77,-1
 1305 141 l 1,78,-1
 889 632 l 1,79,80
 873 632 873 632 855.5 632.5 c 128,-1,81
 838 633 838 633 823 634 c 128,-1,82
 808 635 808 635 797 635.5 c 128,-1,83
 786 636 786 636 783 636 c 1,84,-1
 783 370 l 2,85,86
 783 337 783 337 788 316 c 128,-1,87
 793 295 793 295 806 282.5 c 128,-1,88
 819 270 819 270 842 263.5 c 128,-1,89
 865 257 865 257 901 253 c 1,90,-1
 901 204 l 1,91,-1
 485 204 l 1,92,-1
 485 249 l 1,54,-1
783 711 m 1,93,94
 853 711 853 711 910 716 c 128,-1,95
 967 721 967 721 1007 740.5 c 128,-1,96
 1047 760 1047 760 1068.5 799 c 128,-1,97
 1090 838 1090 838 1090 906 c 0,98,99
 1090 952 1090 952 1076 986 c 128,-1,100
 1062 1020 1062 1020 1036 1041.5 c 128,-1,101
 1010 1063 1010 1063 974 1073.5 c 128,-1,102
 938 1084 938 1084 894 1084 c 0,103,104
 872 1084 872 1084 852 1082.5 c 128,-1,105
 832 1081 832 1081 816.5 1077 c 128,-1,106
 801 1073 801 1073 792 1066 c 128,-1,107
 783 1059 783 1059 783 1048 c 2,108,-1
 783 711 l 1,93,94
EndSplineSet
EndChar

StartChar: asciicircum
Encoding: 94 94 134
Width: 1360
Flags: W
LayerCount: 2
Fore
SplineSet
137 651 m 1,0,-1
 624 1653 l 1,1,-1
 745 1653 l 1,2,-1
 1232 651 l 1,3,-1
 1090 580 l 1,4,-1
 695 1317 l 1,5,-1
 684 1317 l 1,6,-1
 279 580 l 1,7,-1
 137 651 l 1,0,-1
EndSplineSet
EndChar

StartChar: underscore
Encoding: 95 95 135
Width: 1189
Flags: W
LayerCount: 2
Fore
SplineSet
1200 -194 m 1,0,-1
 1200 -312 l 1,1,-1
 -12 -312 l 1,2,-1
 -12 -194 l 1,3,-1
 1200 -194 l 1,0,-1
EndSplineSet
EndChar

StartChar: section
Encoding: 167 167 136
Width: 1189
Flags: W
LayerCount: 2
Fore
SplineSet
176 -63 m 0,0,1
 176 -6 176 -6 202 39.5 c 128,-1,2
 228 85 228 85 269 123.5 c 128,-1,3
 310 162 310 162 360.5 195.5 c 128,-1,4
 411 229 411 229 460 262 c 1,5,-1
 400 313 l 2,6,7
 355 350 355 350 312 395.5 c 128,-1,8
 269 441 269 441 235 492 c 128,-1,9
 201 543 201 543 180.5 598.5 c 128,-1,10
 160 654 160 654 160 711 c 0,11,12
 160 776 160 776 183.5 832 c 128,-1,13
 207 888 207 888 248 929 c 128,-1,14
 289 970 289 970 343.5 993.5 c 128,-1,15
 398 1017 398 1017 461 1017 c 0,16,17
 466 1017 466 1017 472 1016.5 c 128,-1,18
 478 1016 478 1016 483 1015 c 2,19,-1
 496 1013 l 1,20,21
 439 1062 439 1062 385 1103.5 c 128,-1,22
 331 1145 331 1145 289 1188.5 c 128,-1,23
 247 1232 247 1232 222 1283 c 128,-1,24
 197 1334 197 1334 197 1403 c 0,25,26
 197 1471 197 1471 227.5 1527 c 128,-1,27
 258 1583 258 1583 313 1623 c 128,-1,28
 368 1663 368 1663 443.5 1685 c 128,-1,29
 519 1707 519 1707 609 1707 c 0,30,31
 689 1707 689 1707 758.5 1687.5 c 128,-1,32
 828 1668 828 1668 879 1633 c 128,-1,33
 930 1598 930 1598 959 1550.5 c 128,-1,34
 988 1503 988 1503 988 1447 c 0,35,36
 988 1411 988 1411 972.5 1382 c 128,-1,37
 957 1353 957 1353 933 1329.5 c 128,-1,38
 909 1306 909 1306 879.5 1289 c 128,-1,39
 850 1272 850 1272 823 1260 c 1,40,-1
 733 1288 l 1,41,42
 746 1301 746 1301 758.5 1317.5 c 128,-1,43
 771 1334 771 1334 780.5 1353 c 128,-1,44
 790 1372 790 1372 795.5 1392 c 128,-1,45
 801 1412 801 1412 801 1432 c 0,46,47
 801 1474 801 1474 786 1509 c 128,-1,48
 771 1544 771 1544 743 1569.5 c 128,-1,49
 715 1595 715 1595 674.5 1609.5 c 128,-1,50
 634 1624 634 1624 582 1624 c 0,51,52
 538 1624 538 1624 501 1611.5 c 128,-1,53
 464 1599 464 1599 437.5 1576.5 c 128,-1,54
 411 1554 411 1554 396 1523.5 c 128,-1,55
 381 1493 381 1493 381 1457 c 0,56,57
 381 1412 381 1412 401.5 1374 c 128,-1,58
 422 1336 422 1336 453 1304 c 128,-1,59
 484 1272 484 1272 521 1243.5 c 128,-1,60
 558 1215 558 1215 592 1188 c 1,61,-1
 786 1026 l 2,62,63
 835 985 835 985 881 939.5 c 128,-1,64
 927 894 927 894 963 844 c 128,-1,65
 999 794 999 794 1020.5 739.5 c 128,-1,66
 1042 685 1042 685 1042 626 c 0,67,68
 1042 560 1042 560 1021.5 503.5 c 128,-1,69
 1001 447 1001 447 963 405.5 c 128,-1,70
 925 364 925 364 872 340.5 c 128,-1,71
 819 317 819 317 754 317 c 0,72,73
 745 317 745 317 736 317.5 c 128,-1,74
 727 318 727 318 719 320 c 1,75,-1
 765 276 l 2,76,77
 803 240 803 240 845.5 205 c 128,-1,78
 888 170 888 170 924 132 c 128,-1,79
 960 94 960 94 983.5 48.5 c 128,-1,80
 1007 3 1007 3 1007 -54 c 0,81,82
 1007 -127 1007 -127 973.5 -183 c 128,-1,83
 940 -239 940 -239 883 -277.5 c 128,-1,84
 826 -316 826 -316 749.5 -336 c 128,-1,85
 673 -356 673 -356 587 -356 c 0,86,87
 506 -356 506 -356 432 -337 c 128,-1,88
 358 -318 358 -318 301 -281.5 c 128,-1,89
 244 -245 244 -245 210 -190 c 128,-1,90
 176 -135 176 -135 176 -63 c 0,0,1
471 533 m 0,91,92
 540 472 540 472 599 439 c 128,-1,93
 658 406 658 406 723 406 c 0,94,95
 755 406 755 406 782.5 417.5 c 128,-1,96
 810 429 810 429 830.5 450 c 128,-1,97
 851 471 851 471 862.5 499.5 c 128,-1,98
 874 528 874 528 874 561 c 0,99,100
 874 606 874 606 835 669 c 128,-1,101
 796 732 796 732 727 798 c 1,102,103
 652 865 652 865 588.5 897 c 128,-1,104
 525 929 525 929 474 929 c 0,105,106
 444 929 444 929 417 917.5 c 128,-1,107
 390 906 390 906 369.5 886 c 128,-1,108
 349 866 349 866 337.5 838.5 c 128,-1,109
 326 811 326 811 326 780 c 0,110,111
 326 743 326 743 335.5 711 c 128,-1,112
 345 679 345 679 363.5 649.5 c 128,-1,113
 382 620 382 620 409 591.5 c 128,-1,114
 436 563 436 563 471 533 c 0,91,92
361 -39 m 0,115,116
 361 -90 361 -90 374 -133.5 c 128,-1,117
 387 -177 387 -177 415.5 -209 c 128,-1,118
 444 -241 444 -241 489 -259 c 128,-1,119
 534 -277 534 -277 598 -277 c 0,120,121
 701 -277 701 -277 762 -231.5 c 128,-1,122
 823 -186 823 -186 823 -101 c 0,123,124
 823 -66 823 -66 807.5 -34 c 128,-1,125
 792 -2 792 -2 767 27 c 128,-1,126
 742 56 742 56 710.5 82.5 c 128,-1,127
 679 109 679 109 646 132 c 128,-1,128
 613 155 613 155 582.5 175 c 128,-1,129
 552 195 552 195 530 211 c 1,130,131
 501 191 501 191 471 161.5 c 128,-1,132
 441 132 441 132 416.5 98 c 128,-1,133
 392 64 392 64 376.5 28.5 c 128,-1,134
 361 -7 361 -7 361 -39 c 0,115,116
EndSplineSet
EndChar

StartChar: acute
Encoding: 180 180 137
Width: 850
Flags: W
LayerCount: 2
Fore
SplineSet
328 1414 m 1,0,-1
 581 1880 l 1,1,-1
 791 1746 l 1,2,-1
 426 1359 l 1,3,-1
 328 1414 l 1,0,-1
EndSplineSet
EndChar

StartChar: grave
Encoding: 96 96 138
Width: 850
Flags: W
LayerCount: 2
Fore
SplineSet
182 1736 m 1,0,-1
 383 1870 l 1,1,-1
 636 1404 l 1,2,-1
 547 1349 l 1,3,-1
 182 1736 l 1,0,-1
EndSplineSet
EndChar

StartChar: tilde
Encoding: 732 732 139
Width: 1195
Flags: W
LayerCount: 2
Fore
SplineSet
205 1438 m 1,0,1
 203 1450 203 1450 201.5 1462.5 c 128,-1,2
 200 1475 200 1475 200 1486 c 0,3,4
 200 1537 200 1537 220.5 1580.5 c 128,-1,5
 241 1624 241 1624 275 1656 c 128,-1,6
 309 1688 309 1688 353.5 1706.5 c 128,-1,7
 398 1725 398 1725 446 1725 c 0,8,9
 484 1725 484 1725 515.5 1713.5 c 128,-1,10
 547 1702 547 1702 574 1685.5 c 128,-1,11
 601 1669 601 1669 625 1649 c 128,-1,12
 649 1629 649 1629 672.5 1612.5 c 128,-1,13
 696 1596 696 1596 720 1584.5 c 128,-1,14
 744 1573 744 1573 771 1573 c 0,15,16
 791 1573 791 1573 810 1580 c 128,-1,17
 829 1587 829 1587 844 1600.5 c 128,-1,18
 859 1614 859 1614 868 1633.5 c 128,-1,19
 877 1653 877 1653 877 1677 c 0,20,21
 877 1680 877 1680 876.5 1683.5 c 128,-1,22
 876 1687 876 1687 876 1691 c 1,23,-1
 989 1691 l 1,24,25
 994 1663 994 1663 994 1643 c 0,26,27
 994 1592 994 1592 973.5 1548.5 c 128,-1,28
 953 1505 953 1505 919 1472.5 c 128,-1,29
 885 1440 885 1440 840 1422 c 128,-1,30
 795 1404 795 1404 747 1404 c 0,31,32
 708 1404 708 1404 678.5 1415 c 128,-1,33
 649 1426 649 1426 624 1443 c 128,-1,34
 599 1460 599 1460 577 1479.5 c 128,-1,35
 555 1499 555 1499 533 1516 c 128,-1,36
 511 1533 511 1533 487 1544 c 128,-1,37
 463 1555 463 1555 433 1555 c 0,38,39
 412 1555 412 1555 391.5 1547.5 c 128,-1,40
 371 1540 371 1540 354.5 1526.5 c 128,-1,41
 338 1513 338 1513 327.5 1493.5 c 128,-1,42
 317 1474 317 1474 317 1450 c 0,43,44
 317 1442 317 1442 318 1438 c 1,45,-1
 205 1438 l 1,0,1
EndSplineSet
EndChar

StartChar: asciitilde
Encoding: 126 126 140
Width: 1370
Flags: W
LayerCount: 2
Fore
SplineSet
131 730 m 1,0,1
 158 778 158 778 192.5 822.5 c 128,-1,2
 227 867 227 867 272.5 900.5 c 128,-1,3
 318 934 318 934 376.5 954.5 c 128,-1,4
 435 975 435 975 509 975 c 1,5,6
 557 976 557 976 603 960.5 c 128,-1,7
 649 945 649 945 701 922 c 2,8,-1
 772 890 l 2,9,10
 785 884 785 884 803 876 c 128,-1,11
 821 868 821 868 839.5 861.5 c 128,-1,12
 858 855 858 855 877 850.5 c 128,-1,13
 896 846 896 846 913 846 c 0,14,15
 995 846 995 846 1058 886.5 c 128,-1,16
 1121 927 1121 927 1166 993 c 1,17,-1
 1238 939 l 1,18,19
 1211 892 1211 892 1176.5 845.5 c 128,-1,20
 1142 799 1142 799 1096.5 761.5 c 128,-1,21
 1051 724 1051 724 992.5 701 c 128,-1,22
 934 678 934 678 860 678 c 0,23,24
 825 678 825 678 793.5 684.5 c 128,-1,25
 762 691 762 691 733 701.5 c 128,-1,26
 704 712 704 712 676.5 724.5 c 128,-1,27
 649 737 649 737 624 749 c 2,28,-1
 554 782 l 2,29,30
 527 794 527 794 500 803.5 c 128,-1,31
 473 813 473 813 447 813 c 0,32,33
 363 813 363 813 306.5 777.5 c 128,-1,34
 250 742 250 742 202 676 c 1,35,-1
 131 730 l 1,0,1
EndSplineSet
EndChar

StartChar: dieresis
Encoding: 168 168 141
Width: 1020
Flags: W
LayerCount: 2
Fore
SplineSet
564 1612 m 1,0,-1
 747 1791 l 1,1,-1
 926 1612 l 1,2,-1
 747 1432 l 1,3,-1
 564 1612 l 1,0,-1
94 1612 m 1,4,-1
 277 1791 l 1,5,-1
 456 1612 l 1,6,-1
 277 1432 l 1,7,-1
 94 1612 l 1,4,-1
EndSplineSet
EndChar

StartChar: cedilla
Encoding: 184 184 142
Width: 934
Flags: W
LayerCount: 2
Fore
SplineSet
355 2 m 1,0,-1
 474 2 l 1,1,-1
 425 -127 l 1,2,3
 475 -127 475 -127 522 -139 c 128,-1,4
 569 -151 569 -151 605 -175 c 128,-1,5
 641 -199 641 -199 663 -235 c 128,-1,6
 685 -271 685 -271 685 -318 c 0,7,8
 685 -358 685 -358 668 -393 c 128,-1,9
 651 -428 651 -428 623 -457 c 128,-1,10
 595 -486 595 -486 559 -509.5 c 128,-1,11
 523 -533 523 -533 484.5 -549.5 c 128,-1,12
 446 -566 446 -566 408 -575.5 c 128,-1,13
 370 -585 370 -585 339 -587 c 1,14,-1
 282 -504 l 1,15,16
 373 -482 373 -482 425.5 -442 c 128,-1,17
 478 -402 478 -402 478 -351 c 0,18,19
 478 -314 478 -314 462.5 -289 c 128,-1,20
 447 -264 447 -264 419.5 -248.5 c 128,-1,21
 392 -233 392 -233 353 -226.5 c 128,-1,22
 314 -220 314 -220 268 -220 c 1,23,-1
 355 2 l 1,0,-1
EndSplineSet
EndChar

StartChar: circumflex
Encoding: 710 710 143
Width: 1189
Flags: W
LayerCount: 2
Fore
SplineSet
248 1406 m 1,0,-1
 476 1859 l 1,1,-1
 732 1859 l 1,2,-1
 958 1406 l 1,3,-1
 873 1364 l 1,4,-1
 603 1706 l 1,5,-1
 333 1364 l 1,6,-1
 248 1406 l 1,0,-1
EndSplineSet
EndChar

StartChar: macron
Encoding: 175 175 144
Width: 1189
Flags: W
LayerCount: 2
Fore
SplineSet
260 1706 m 1,0,-1
 929 1706 l 1,1,-1
 929 1552 l 1,2,-1
 260 1552 l 1,3,-1
 260 1706 l 1,0,-1
EndSplineSet
EndChar

StartChar: ae
Encoding: 230 230 145
Width: 2046
Flags: W
LayerCount: 2
Fore
SplineSet
141 313 m 0,0,1
 141 354 141 354 159 401 c 128,-1,2
 177 448 177 448 216.5 494.5 c 128,-1,3
 256 541 256 541 318.5 584 c 128,-1,4
 381 627 381 627 469.5 660.5 c 128,-1,5
 558 694 558 694 674 715.5 c 128,-1,6
 790 737 790 737 937 740 c 1,7,-1
 937 915 l 2,8,9
 937 1015 937 1015 867.5 1073 c 128,-1,10
 798 1131 798 1131 643 1131 c 0,11,12
 592 1131 592 1131 549 1117.5 c 128,-1,13
 506 1104 506 1104 475.5 1080 c 128,-1,14
 445 1056 445 1056 427.5 1023.5 c 128,-1,15
 410 991 410 991 410 953 c 0,16,17
 410 921 410 921 423 896 c 128,-1,18
 436 871 436 871 448 853 c 1,19,-1
 380 812 l 1,20,21
 351 817 351 817 317.5 830 c 128,-1,22
 284 843 284 843 256 863.5 c 128,-1,23
 228 884 228 884 209.5 911 c 128,-1,24
 191 938 191 938 191 971 c 0,25,26
 191 1023 191 1023 226 1070 c 128,-1,27
 261 1117 261 1117 324.5 1152 c 128,-1,28
 388 1187 388 1187 476.5 1207.5 c 128,-1,29
 565 1228 565 1228 672 1228 c 0,30,31
 758 1228 758 1228 825 1215.5 c 128,-1,32
 892 1203 892 1203 943.5 1180.5 c 128,-1,33
 995 1158 995 1158 1031.5 1125 c 128,-1,34
 1068 1092 1068 1092 1092 1052 c 1,35,36
 1165 1136 1165 1136 1277 1182 c 128,-1,37
 1389 1228 1389 1228 1526 1228 c 0,38,39
 1611 1228 1611 1228 1682 1208.5 c 128,-1,40
 1753 1189 1753 1189 1804 1153 c 128,-1,41
 1855 1117 1855 1117 1883.5 1066 c 128,-1,42
 1912 1015 1912 1015 1912 952 c 0,43,44
 1912 902 1912 902 1895.5 851 c 128,-1,45
 1879 800 1879 800 1842.5 752 c 128,-1,46
 1806 704 1806 704 1748 662 c 128,-1,47
 1690 620 1690 620 1607 588.5 c 128,-1,48
 1524 557 1524 557 1414 538.5 c 128,-1,49
 1304 520 1304 520 1164 519 c 1,50,51
 1164 484 1164 484 1173 438.5 c 128,-1,52
 1182 393 1182 393 1201.5 345 c 128,-1,53
 1221 297 1221 297 1251.5 251.5 c 128,-1,54
 1282 206 1282 206 1323.5 170 c 128,-1,55
 1365 134 1365 134 1419 112 c 128,-1,56
 1473 90 1473 90 1540 90 c 0,57,58
 1634 90 1634 90 1716 116.5 c 128,-1,59
 1798 143 1798 143 1862 198 c 1,60,-1
 1919 141 l 1,61,62
 1851 57 1851 57 1750 18.5 c 128,-1,63
 1649 -20 1649 -20 1508 -20 c 0,64,65
 1358 -20 1358 -20 1248.5 34 c 128,-1,66
 1139 88 1139 88 1070 185 c 1,67,68
 1033 129 1033 129 975 90.5 c 128,-1,69
 917 52 917 52 848.5 27 c 128,-1,70
 780 2 780 2 706 -9 c 128,-1,71
 632 -20 632 -20 563 -20 c 0,72,73
 450 -20 450 -20 370 8.5 c 128,-1,74
 290 37 290 37 239 84 c 128,-1,75
 188 131 188 131 164.5 191 c 128,-1,76
 141 251 141 251 141 313 c 0,0,1
1164 626 m 1,77,78
 1262 628 1262 628 1357 647.5 c 128,-1,79
 1452 667 1452 667 1527 707.5 c 128,-1,80
 1602 748 1602 748 1648 811 c 128,-1,81
 1694 874 1694 874 1694 964 c 0,82,83
 1694 992 1694 992 1683 1021.5 c 128,-1,84
 1672 1051 1672 1051 1648 1075 c 128,-1,85
 1624 1099 1624 1099 1586.5 1114.5 c 128,-1,86
 1549 1130 1549 1130 1495 1130 c 0,87,88
 1411 1130 1411 1130 1348.5 1088 c 128,-1,89
 1286 1046 1286 1046 1245 976 c 128,-1,90
 1204 906 1204 906 1184 815 c 128,-1,91
 1164 724 1164 724 1164 626 c 1,77,78
369 313 m 0,92,93
 369 259 369 259 388.5 216 c 128,-1,94
 408 173 408 173 444 143 c 128,-1,95
 480 113 480 113 530.5 96.5 c 128,-1,96
 581 80 581 80 643 80 c 0,97,98
 703 80 703 80 756.5 100.5 c 128,-1,99
 810 121 810 121 850 158 c 128,-1,100
 890 195 890 195 913.5 246.5 c 128,-1,101
 937 298 937 298 937 360 c 2,102,-1
 937 636 l 1,103,104
 828 630 828 630 726 612.5 c 128,-1,105
 624 595 624 595 544.5 558.5 c 128,-1,106
 465 522 465 522 417 462.5 c 128,-1,107
 369 403 369 403 369 313 c 0,92,93
EndSplineSet
EndChar

StartChar: hbar
Encoding: 295 295 157
Width: 1535
Flags: W
LayerCount: 2
Fore
SplineSet
151 82 m 1,0,-1
 153 83 l 1,1,2
 212 90 212 90 246 98 c 128,-1,3
 280 106 280 106 297 123.5 c 128,-1,4
 314 141 314 141 318.5 173 c 128,-1,5
 323 205 323 205 323 261 c 2,6,-1
 323 1381 l 1,7,-1
 151 1381 l 1,8,-1
 179 1504 l 1,9,-1
 323 1504 l 1,10,11
 322 1549 322 1549 314.5 1575 c 128,-1,12
 307 1601 307 1601 288.5 1615.5 c 128,-1,13
 270 1630 270 1630 236.5 1635.5 c 128,-1,14
 203 1641 203 1641 151 1646 c 1,15,-1
 151 1730 l 1,16,-1
 700 1730 l 1,17,-1
 700 1646 l 1,18,19
 647 1640 647 1640 614 1635 c 128,-1,20
 581 1630 581 1630 562 1616.5 c 128,-1,21
 543 1603 543 1603 535.5 1577 c 128,-1,22
 528 1551 528 1551 527 1504 c 1,23,-1
 771 1504 l 1,24,-1
 742 1381 l 1,25,-1
 527 1381 l 1,26,-1
 527 1000 l 1,27,28
 572 1088 572 1088 657 1164 c 128,-1,29
 742 1240 742 1240 860 1300 c 1,30,31
 942 1256 942 1256 1007.5 1206.5 c 128,-1,32
 1073 1157 1073 1157 1123.5 1096.5 c 128,-1,33
 1174 1036 1174 1036 1209.5 960.5 c 128,-1,34
 1245 885 1245 885 1268 788.5 c 128,-1,35
 1291 692 1291 692 1301.5 571.5 c 128,-1,36
 1312 451 1312 451 1312 300 c 0,37,38
 1312 244 1312 244 1314 208 c 128,-1,39
 1316 172 1316 172 1321.5 151 c 128,-1,40
 1327 130 1327 130 1338 119.5 c 128,-1,41
 1349 109 1349 109 1367 104 c 128,-1,42
 1385 99 1385 99 1411 95 c 128,-1,43
 1437 91 1437 91 1474 83 c 1,44,-1
 1474 0 l 1,45,-1
 931 0 l 1,46,-1
 931 83 l 1,47,48
 988 90 988 90 1022 96.5 c 128,-1,49
 1056 103 1056 103 1074 121 c 128,-1,50
 1092 139 1092 139 1097.5 176 c 128,-1,51
 1103 213 1103 213 1103 282 c 2,52,-1
 1103 399 l 2,53,54
 1103 501 1103 501 1100.5 584 c 128,-1,55
 1098 667 1098 667 1089.5 736 c 128,-1,56
 1081 805 1081 805 1064.5 861.5 c 128,-1,57
 1048 918 1048 918 1020 968.5 c 128,-1,58
 992 1019 992 1019 950.5 1065.5 c 128,-1,59
 909 1112 909 1112 851 1159 c 1,60,61
 792 1123 792 1123 734 1078 c 128,-1,62
 676 1033 676 1033 630 971.5 c 128,-1,63
 584 910 584 910 555.5 826.5 c 128,-1,64
 527 743 527 743 527 631 c 2,65,-1
 527 292 l 2,66,67
 527 223 527 223 531 184.5 c 128,-1,68
 535 146 535 146 552.5 126 c 128,-1,69
 570 106 570 106 604.5 98.5 c 128,-1,70
 639 91 639 91 700 83 c 1,71,-1
 700 0 l 1,72,-1
 151 0 l 1,73,-1
 151 82 l 1,0,-1
EndSplineSet
EndChar

StartChar: dotlessi
Encoding: 305 305 158
Width: 680
Flags: W
LayerCount: 2
Fore
SplineSet
85 83 m 1,0,-1
 120 88 l 2,1,2
 163 94 163 94 190 100.5 c 128,-1,3
 217 107 217 107 232 124.5 c 128,-1,4
 247 142 247 142 252.5 174.5 c 128,-1,5
 258 207 258 207 258 266 c 2,6,-1
 258 944 l 2,7,8
 258 1002 258 1002 252.5 1035.5 c 128,-1,9
 247 1069 247 1069 228.5 1086.5 c 128,-1,10
 210 1104 210 1104 176 1110.5 c 128,-1,11
 142 1117 142 1117 85 1122 c 1,12,-1
 85 1208 l 1,13,-1
 632 1208 l 1,14,-1
 632 1122 l 1,15,16
 575 1116 575 1116 541 1110 c 128,-1,17
 507 1104 507 1104 489 1087 c 128,-1,18
 471 1070 471 1070 465.5 1037 c 128,-1,19
 460 1004 460 1004 460 944 c 2,20,-1
 460 266 l 2,21,22
 460 208 460 208 464 176 c 128,-1,23
 468 144 468 144 482 126.5 c 128,-1,24
 496 109 496 109 522.5 102.5 c 128,-1,25
 549 96 549 96 593 89 c 2,26,-1
 632 83 l 1,27,-1
 632 0 l 1,28,-1
 85 0 l 1,29,-1
 85 83 l 1,0,-1
EndSplineSet
EndChar

